<svg width="66" height="66" viewBox="0 0 66 66" fill="none" xmlns="http://www.w3.org/2000/svg">
<rect width="66" height="66" rx="33" fill="#D94243"/>
<path d="M21.0803 27.9166H45.6323V38.9991H21.0803V27.9166Z" fill="#F8F8F0"/>
<path d="M45.6323 28.0018C45.6323 34.8288 40.1361 40.3631 33.3563 40.3631C26.5765 40.3631 21.0803 34.8288 21.0803 28.0018C21.0803 21.1749 26.5765 15.6406 33.3563 15.6406C40.1361 15.6406 45.6323 21.1749 45.6323 28.0018Z" fill="#F8F8F0"/>
<path d="M45.6323 38.7433C45.6323 45.5702 40.1361 51.1045 33.3563 51.1045C26.5765 51.1045 21.0803 45.5702 21.0803 38.7433C21.0803 31.9164 26.5765 26.3821 33.3563 26.3821C40.1361 26.3821 45.6323 31.9164 45.6323 38.7433Z" fill="#F8F8F0"/>
<path d="M36.9802 32.1524C36.9283 31.8809 36.7771 31.638 36.5557 31.4709C36.4345 31.3866 36.2977 31.327 36.1532 31.2954C36.0087 31.2638 35.8594 31.2609 35.7138 31.2869C35.5682 31.3128 35.4292 31.3671 35.3047 31.4466C35.1803 31.5262 35.0728 31.6293 34.9886 31.7502L31.1445 37.2643C30.9759 37.5042 30.91 37.8008 30.9613 38.0889C31.0126 38.3771 31.1769 38.6332 31.418 38.8009C31.6592 38.9686 31.9575 39.0341 32.2472 38.9831C32.5369 38.9321 32.7944 38.7687 32.963 38.5288L36.8366 32.9413C36.981 32.7051 37.0321 32.424 36.9802 32.1524Z" fill="#D94243"/>
<path d="M30.9227 35.2204L34.7668 29.7064C34.849 29.5843 34.9059 29.4471 34.9341 29.3029C34.9623 29.1586 34.9612 29.0102 34.9309 28.8663C34.9006 28.7225 34.8417 28.5861 34.7577 28.4653C34.6736 28.3444 34.5661 28.2414 34.4415 28.1624C34.204 28.0189 33.9214 27.968 33.6483 28.0197C33.3752 28.0712 33.1311 28.2217 32.963 28.4419L29.1634 34.0294C29.019 34.2656 28.9679 34.5467 29.0198 34.8183C29.0717 35.0898 29.2229 35.3327 29.4443 35.4998C29.6827 35.6401 29.9644 35.6892 30.2366 35.6377C30.5087 35.5863 30.7527 35.4379 30.9227 35.2204Z" fill="#D94243"/>
<rect x="20.6875" y="47.9355" width="1.125" height="4.5" rx="0.5625" fill="#F8F8F0"/>
<rect x="19" y="50.748" width="1.125" height="4.5" rx="0.5625" transform="rotate(-90 19 50.748)" fill="#F8F8F0"/>
<rect x="44.6875" y="14" width="1.125" height="4.5" rx="0.5625" fill="#F8F8F0"/>
<rect x="43" y="16.8125" width="1.125" height="4.5" rx="0.5625" transform="rotate(-90 43 16.8125)" fill="#F8F8F0"/>
</svg>
