<svg width="66" height="66" viewBox="0 0 66 66" fill="none" xmlns="http://www.w3.org/2000/svg">
<rect width="66" height="66" rx="33" fill="#6AA062"/>
<path d="M33 19C25.268 19 19 25.268 19 33V47H33C40.732 47 47 40.732 47 33C47 25.268 40.732 19 33 19ZM26.3179 34.7141C25.3713 34.7141 24.6038 33.9466 24.6038 33C24.6038 32.0534 25.3713 31.2859 26.3179 31.2859C27.2645 31.2859 28.032 32.0534 28.032 33C28.032 33.9466 27.2645 34.7141 26.3179 34.7141ZM33 34.7141C32.0534 34.7141 31.2859 33.9466 31.2859 33C31.2859 32.0534 32.0534 31.2859 33 31.2859C33.9466 31.2859 34.7141 32.0534 34.7141 33C34.7141 33.9466 33.9466 34.7141 33 34.7141ZM39.6821 34.7141C38.7355 34.7141 37.968 33.9466 37.968 33C37.968 32.0534 38.7355 31.2859 39.6821 31.2859C40.6287 31.2859 41.3962 32.0534 41.3962 33C41.3962 33.9466 40.6287 34.7141 39.6821 34.7141Z" fill="#F8F8F0"/>
</svg>
