<svg width="299" height="238" viewBox="0 0 299 238" fill="none" xmlns="http://www.w3.org/2000/svg">
<path fill-rule="evenodd" clip-rule="evenodd" d="M0 0H299V238H181V226C181 223.791 179.209 222 177 222H174C171.791 222 170 223.791 170 226V238H129V226C129 223.791 127.209 222 125 222H122C119.791 222 118 223.791 118 226V238H0V0Z" fill="#F8F8F0"/>
<path d="M56.9 28.46L57.34 28.64C56.44 30.36 55.6 31.04 54.64 31.04C53.6 31.04 51.08 29.3 50.02 29.3C49.3 29.3 48.72 29.78 47.84 31.28L47.42 31.06C48.3 29.58 49.1 28.9 50.06 28.9C51.26 28.9 53.6 30.62 54.76 30.62C55.42 30.62 56.32 29.74 56.9 28.46ZM67.1148 28.46L67.5548 28.64C66.6548 30.36 65.8148 31.04 64.8548 31.04C63.8148 31.04 61.2948 29.3 60.2348 29.3C59.5148 29.3 58.9348 29.78 58.0548 31.28L57.6348 31.06C58.5148 29.58 59.3148 28.9 60.2748 28.9C61.4748 28.9 63.8148 30.62 64.9748 30.62C65.6348 30.62 66.5348 29.74 67.1148 28.46ZM74.3066 23.4C74.5666 23.4 76.1666 23.46 79.3466 23.46C82.2066 23.46 83.7666 23.4 84.2266 23.4C84.5666 23.4 84.7866 23.46 84.7866 23.72C84.7866 23.9 84.6866 24.28 84.5666 24.82C84.1866 26.46 84.0266 27.48 83.9466 28.2C83.9066 28.6 83.8066 28.8 83.6066 28.8C83.3666 28.8 83.3466 28.62 83.3466 28.46C83.3466 28.14 84.1466 25.54 84.1466 24.52C84.1466 24.02 83.8666 23.88 82.8066 23.88H80.2066C79.5866 23.88 79.5466 23.98 79.1466 26L77.4666 34.62C77.3266 35.38 77.2866 35.78 77.2866 36.08C77.2866 36.4 77.5266 36.56 78.0266 36.56C78.5266 36.56 79.1066 36.52 79.2666 36.52C79.4866 36.52 79.6466 36.56 79.6466 36.8C79.6466 36.96 79.3466 37.06 79.1066 37.06C78.9266 37.06 78.1266 36.96 76.7466 36.96C75.4866 36.96 74.7066 37.06 74.5266 37.06C74.2866 37.06 74.0866 37.04 74.0866 36.8C74.0866 36.66 74.3466 36.52 74.5666 36.52C74.8666 36.52 75.2666 36.54 75.5666 36.54C76.4066 36.54 76.5666 36.12 76.8666 34.64C77.4866 31.52 78.0666 28.5 78.6466 25.42C78.7866 24.72 78.8266 24.34 78.8266 24.3C78.8266 23.9 78.5466 23.88 78.1666 23.88H75.4466C74.4066 23.88 74.0666 24.2 73.7266 26.74C73.4666 28.68 73.4266 28.86 73.0866 28.86C72.9066 28.86 72.8866 28.68 72.8866 28.54C72.8866 28.44 72.9266 28.24 73.0066 27.92C73.8066 24.84 73.4066 23.4 74.3066 23.4ZM92.9011 37.2C91.9211 37.2 91.3411 36.48 91.3411 35.58C91.3411 34.72 91.5411 33.54 91.9611 32.06C92.3811 30.56 92.5811 29.56 92.5811 29.02C92.5811 27.86 91.7611 27.2 90.6411 27.2C88.1811 27.2 86.2411 29.36 85.4211 34.94C85.2411 36.2 85.1411 36.7 85.0411 36.94C84.9611 37.12 84.8411 37.14 84.6811 37.14C84.5411 37.14 84.4611 37.02 84.4611 36.9C84.4611 36.8 84.6611 36.04 85.3011 32.74L86.7811 25.18C86.8611 24.78 86.9411 24.24 86.9411 24C86.9411 23.6 86.6211 23.54 86.2011 23.54C85.8211 23.54 85.3411 23.62 85.0811 23.62C84.9211 23.62 84.8011 23.58 84.8011 23.44C84.8011 23.22 85.1211 23.14 85.4211 23.14C85.8211 23.14 86.3411 23.16 86.4411 23.16C86.7411 23.16 87.1411 23.12 87.4011 23.12C87.6211 23.12 87.6411 23.32 87.6411 23.4C87.6411 23.64 87.4611 24.24 87.3411 24.84L86.3011 30.2C87.4811 27.8 88.8411 26.78 90.7211 26.78C92.1211 26.78 93.1411 27.58 93.1411 28.98C93.1411 29.72 92.8811 30.72 92.5011 32.16C92.0811 33.72 91.8811 34.7 91.8811 35.32C91.8811 36.28 92.2611 36.8 92.9211 36.8C93.7611 36.8 94.2611 35.92 94.6011 35.06C94.8611 34.42 95.1011 33.46 95.1011 33.5C95.1611 33.3 95.2211 33.24 95.3211 33.24C95.4811 33.24 95.5411 33.34 95.5411 33.44C95.5411 33.78 95.4211 34.32 95.1411 35C94.6011 36.32 93.7811 37.2 92.9011 37.2ZM102.467 26.78C104.087 26.78 105.147 27.62 105.147 28.92C105.147 30.74 102.687 32.32 98.5667 32.32C98.0867 32.32 97.8267 32.28 97.6067 32.28C97.2267 32.28 97.1667 32.28 97.1667 33.26C97.1667 34.92 97.8067 36.86 100.307 36.86C102.647 36.86 104.127 35.02 104.567 33.54C104.627 33.36 104.687 33.28 104.867 33.28C105.047 33.28 105.087 33.36 105.087 33.5C105.087 33.76 104.867 34.34 104.387 35.02C103.427 36.38 102.007 37.28 100.267 37.28C97.9667 37.28 96.6067 35.86 96.6067 33.36C96.6067 29.98 99.2267 26.78 102.467 26.78ZM97.4067 31.66C97.4067 31.86 97.4067 31.9 98.4867 31.9C102.567 31.9 104.587 30.44 104.587 28.96C104.587 27.9 103.867 27.2 102.407 27.2C100.887 27.2 99.5867 28 98.7667 29C97.5267 30.5 97.4067 31.54 97.4067 31.66ZM117.144 26.78C117.984 26.78 118.464 26.94 118.904 27.28C119.424 27.66 119.804 28.3 119.964 29.22C120.424 27.18 120.204 26.92 120.684 26.92C120.904 26.92 120.944 27.1 120.944 27.2C120.944 27.3 120.904 27.54 120.704 28.2C120.504 28.86 119.704 32.84 119.384 34.86C119.084 36.8 118.684 38.24 118.004 39.24C117.164 40.48 115.844 41.02 113.944 41.02C111.924 41.02 110.664 40.22 110.664 39.08C110.664 38.64 111.044 38.2 111.464 38.2C111.784 38.2 112.064 38.42 112.064 38.76C112.064 39.38 111.344 39.26 111.344 39.5C111.344 40.1 112.664 40.6 114.024 40.6C115.644 40.6 116.924 40.16 117.764 38.68C118.364 37.64 118.744 36.08 119.064 33.84C118.124 36.1 116.664 37.28 114.884 37.28C112.904 37.28 111.704 35.9 111.704 33.66C111.704 32.52 111.944 31.04 112.844 29.54C113.864 27.86 115.324 26.78 117.144 26.78ZM112.244 33.62C112.244 35.62 113.264 36.86 114.864 36.86C117.724 36.86 119.644 33.02 119.644 29.94C119.644 28.2 118.724 27.2 117.244 27.2C116.064 27.2 115.364 27.52 114.564 28.18C113.364 29.18 112.244 31.22 112.244 33.62ZM128.932 26.78C130.552 26.78 131.612 27.62 131.612 28.92C131.612 30.74 129.152 32.32 125.032 32.32C124.552 32.32 124.292 32.28 124.072 32.28C123.692 32.28 123.632 32.28 123.632 33.26C123.632 34.92 124.272 36.86 126.772 36.86C129.112 36.86 130.592 35.02 131.032 33.54C131.092 33.36 131.152 33.28 131.332 33.28C131.512 33.28 131.552 33.36 131.552 33.5C131.552 33.76 131.332 34.34 130.852 35.02C129.892 36.38 128.472 37.28 126.732 37.28C124.432 37.28 123.072 35.86 123.072 33.36C123.072 29.98 125.692 26.78 128.932 26.78ZM123.872 31.66C123.872 31.86 123.872 31.9 124.952 31.9C129.032 31.9 131.052 30.44 131.052 28.96C131.052 27.9 130.332 27.2 128.872 27.2C127.352 27.2 126.052 28 125.232 29C123.992 30.5 123.872 31.54 123.872 31.66ZM140.171 26.78C141.571 26.78 142.651 27.6 142.651 28.98C142.651 29.72 142.391 30.72 142.011 32.16C141.591 33.72 141.431 34.78 141.431 35.16C141.431 36.16 141.791 36.8 142.451 36.8C143.291 36.8 143.791 35.94 144.131 35.08C144.391 34.44 144.611 33.5 144.611 33.54C144.671 33.34 144.731 33.24 144.831 33.24C144.991 33.24 145.051 33.34 145.051 33.44C145.051 33.74 144.931 34.32 144.651 35C144.111 36.32 143.371 37.2 142.331 37.2C141.351 37.2 140.871 36.3 140.871 35.4C140.871 34.54 141.051 33.54 141.471 32.06C141.891 30.56 142.091 29.56 142.091 29.02C142.091 27.86 141.111 27.2 140.111 27.2C138.391 27.2 136.711 28.34 135.791 30.9C135.491 31.72 135.251 32.82 135.071 33.64C134.491 36.42 134.691 37.14 134.111 37.14C133.951 37.14 133.831 37.02 133.831 36.86C133.831 36.58 134.031 36.12 134.431 34.08L135.451 28.88C135.491 28.66 135.531 28.4 135.531 28.26C135.531 27.7 135.411 27.42 135.011 27.42C134.311 27.42 133.831 27.52 133.651 27.52C133.511 27.52 133.351 27.5 133.351 27.32C133.351 27.1 133.651 27 134.031 27C134.331 27 134.751 27.04 135.091 27.04C135.391 27.04 135.771 27 135.951 27C136.131 27 136.191 27.16 136.191 27.3C136.191 27.6 135.931 28.6 135.711 29.72L135.551 30.52C136.591 28.02 138.031 26.78 140.171 26.78ZM149.799 23.28C149.959 23.28 150.019 23.34 150.019 23.5C150.019 24 149.399 25.98 149.399 26.76C149.399 27.02 149.599 27.08 149.939 27.08C150.319 27.08 150.979 26.98 151.619 26.98C152.099 26.98 152.259 27.04 152.259 27.18C152.259 27.4 152.099 27.46 151.679 27.46L149.639 27.44C149.259 27.44 149.219 27.6 149.139 28.06L148.119 33.46C147.979 34.22 147.919 35.02 147.919 35.34C147.919 36.36 148.399 36.86 149.259 36.86C149.999 36.86 151.319 36.46 151.839 33.72C152.059 32.52 152.139 32.5 152.319 32.5C152.459 32.5 152.519 32.6 152.519 32.74C152.519 33 152.439 33.36 152.299 33.82C151.979 34.9 151.359 37.28 149.259 37.28C148.099 37.28 147.359 36.58 147.359 35.44C147.359 34.88 147.419 34.26 147.539 33.68C147.959 31.5 148.659 28.04 148.659 27.68C148.659 27.46 148.579 27.4 148.439 27.4C148.259 27.4 147.439 27.42 146.899 27.42C146.679 27.42 146.579 27.36 146.579 27.22C146.579 27.04 146.799 27 147.259 27H147.979C148.639 27 148.899 26.94 149.199 25.2L149.459 23.66C149.499 23.38 149.619 23.28 149.799 23.28ZM154.992 23.12C155.332 23.12 155.872 23.16 155.972 23.16C156.272 23.16 156.652 23.12 156.912 23.12C157.152 23.12 157.192 23.22 157.192 23.38C157.192 23.6 157.032 24.22 156.892 24.92L155.212 33.52C155.112 34 155.012 34.78 155.012 35.2C155.012 36.24 155.412 36.8 156.112 36.8C156.912 36.8 157.832 35.62 158.192 33.78C158.252 33.44 158.372 33.24 158.552 33.24C158.652 33.24 158.692 33.3 158.692 33.4C158.692 33.68 158.552 34.24 158.292 34.94C157.772 36.34 156.952 37.2 156.032 37.2C155.092 37.2 154.472 36.5 154.472 35.12C154.472 34.66 154.612 33.9 155.032 31.76L156.392 24.9C156.432 24.68 156.492 24.3 156.492 24C156.492 23.68 156.312 23.54 155.912 23.54C155.252 23.54 154.752 23.64 154.572 23.64C154.432 23.64 154.352 23.58 154.352 23.44C154.352 23.22 154.652 23.12 154.992 23.12ZM165.689 26.78C167.309 26.78 168.369 27.62 168.369 28.92C168.369 30.74 165.909 32.32 161.789 32.32C161.309 32.32 161.049 32.28 160.829 32.28C160.449 32.28 160.389 32.28 160.389 33.26C160.389 34.92 161.029 36.86 163.529 36.86C165.869 36.86 167.349 35.02 167.789 33.54C167.849 33.36 167.909 33.28 168.089 33.28C168.269 33.28 168.309 33.36 168.309 33.5C168.309 33.76 168.089 34.34 167.609 35.02C166.649 36.38 165.229 37.28 163.489 37.28C161.189 37.28 159.829 35.86 159.829 33.36C159.829 29.98 162.449 26.78 165.689 26.78ZM160.629 31.66C160.629 31.86 160.629 31.9 161.709 31.9C165.789 31.9 167.809 30.44 167.809 28.96C167.809 27.9 167.089 27.2 165.629 27.2C164.109 27.2 162.809 28 161.989 29C160.749 30.5 160.629 31.54 160.629 31.66ZM180.367 26.78C181.207 26.78 181.687 26.94 182.127 27.28C182.647 27.66 183.027 28.3 183.187 29.22C183.647 27.18 183.427 26.92 183.907 26.92C184.127 26.92 184.167 27.1 184.167 27.2C184.167 27.3 184.127 27.54 183.927 28.2C183.727 28.86 182.927 32.84 182.607 34.86C182.307 36.8 181.907 38.24 181.227 39.24C180.387 40.48 179.067 41.02 177.167 41.02C175.147 41.02 173.887 40.22 173.887 39.08C173.887 38.64 174.267 38.2 174.687 38.2C175.007 38.2 175.287 38.42 175.287 38.76C175.287 39.38 174.567 39.26 174.567 39.5C174.567 40.1 175.887 40.6 177.247 40.6C178.867 40.6 180.147 40.16 180.987 38.68C181.587 37.64 181.967 36.08 182.287 33.84C181.347 36.1 179.887 37.28 178.107 37.28C176.127 37.28 174.927 35.9 174.927 33.66C174.927 32.52 175.167 31.04 176.067 29.54C177.087 27.86 178.547 26.78 180.367 26.78ZM175.467 33.62C175.467 35.62 176.487 36.86 178.087 36.86C180.947 36.86 182.867 33.02 182.867 29.94C182.867 28.2 181.947 27.2 180.467 27.2C179.287 27.2 178.587 27.52 177.787 28.18C176.587 29.18 175.467 31.22 175.467 33.62ZM191.674 26.78C193.654 26.78 195.314 28.2 195.314 30.88C195.314 34.48 192.914 37.28 189.914 37.28C187.674 37.28 186.274 35.68 186.274 33.14C186.274 29.78 188.714 26.78 191.674 26.78ZM186.814 33.3C186.814 35.74 188.314 36.86 189.954 36.86C193.114 36.86 194.774 33.32 194.774 30.86C194.774 28.52 193.534 27.2 191.614 27.2C188.894 27.2 186.814 30.12 186.814 33.3ZM202.065 26.78C204.045 26.78 205.705 28.2 205.705 30.88C205.705 34.48 203.305 37.28 200.305 37.28C198.065 37.28 196.665 35.68 196.665 33.14C196.665 29.78 199.105 26.78 202.065 26.78ZM197.205 33.3C197.205 35.74 198.705 36.86 200.345 36.86C203.505 36.86 205.165 33.32 205.165 30.86C205.165 28.52 203.925 27.2 202.005 27.2C199.285 27.2 197.205 30.12 197.205 33.3ZM211.955 26.78C214.075 26.78 215.435 27.7 215.435 28.84C215.435 29.38 214.995 29.84 214.595 29.84C214.115 29.84 213.915 29.56 213.915 29.26C213.915 28.96 214.115 28.7 214.555 28.7C214.795 28.7 214.815 28.66 214.815 28.56C214.815 28.06 213.895 27.2 211.915 27.2C210.255 27.2 208.795 28.32 208.795 29.74C208.795 30.58 209.475 31.08 210.795 31.4L212.755 31.88C214.115 32.22 214.935 32.78 214.935 33.98C214.935 35.86 212.995 37.28 210.515 37.28C208.195 37.28 206.615 36.38 206.615 35.02C206.615 34.46 207.195 33.84 207.735 33.84C208.235 33.84 208.495 34.1 208.495 34.48C208.495 34.92 208.235 35.04 207.975 35.04C207.855 35.04 207.715 35.02 207.575 34.98C207.435 34.94 207.375 34.9 207.355 34.9C207.255 34.9 207.155 35.06 207.155 35.22C207.155 36.1 208.455 36.86 210.515 36.86C212.735 36.86 214.375 35.64 214.375 33.98C214.375 33.04 213.655 32.52 212.295 32.2L210.535 31.78C208.955 31.4 208.255 30.82 208.255 29.8C208.255 28.06 209.935 26.78 211.955 26.78ZM222.603 26.78C224.223 26.78 225.283 27.62 225.283 28.92C225.283 30.74 222.823 32.32 218.703 32.32C218.223 32.32 217.963 32.28 217.743 32.28C217.363 32.28 217.303 32.28 217.303 33.26C217.303 34.92 217.943 36.86 220.443 36.86C222.783 36.86 224.263 35.02 224.703 33.54C224.763 33.36 224.823 33.28 225.003 33.28C225.183 33.28 225.223 33.36 225.223 33.5C225.223 33.76 225.003 34.34 224.523 35.02C223.563 36.38 222.143 37.28 220.403 37.28C218.103 37.28 216.743 35.86 216.743 33.36C216.743 29.98 219.363 26.78 222.603 26.78ZM217.543 31.66C217.543 31.86 217.543 31.9 218.623 31.9C222.703 31.9 224.723 30.44 224.723 28.96C224.723 27.9 224.003 27.2 222.543 27.2C221.023 27.2 219.723 28 218.903 29C217.663 30.5 217.543 31.54 217.543 31.66ZM241.041 28.46L241.481 28.64C240.581 30.36 239.741 31.04 238.781 31.04C237.741 31.04 235.221 29.3 234.161 29.3C233.441 29.3 232.861 29.78 231.981 31.28L231.561 31.06C232.441 29.58 233.241 28.9 234.201 28.9C235.401 28.9 237.741 30.62 238.901 30.62C239.561 30.62 240.461 29.74 241.041 28.46ZM251.255 28.46L251.695 28.64C250.795 30.36 249.955 31.04 248.995 31.04C247.955 31.04 245.435 29.3 244.375 29.3C243.655 29.3 243.075 29.78 242.195 31.28L241.775 31.06C242.655 29.58 243.455 28.9 244.415 28.9C245.615 28.9 247.955 30.62 249.115 30.62C249.775 30.62 250.675 29.74 251.255 28.46Z" fill="black"/>
<mask id="mask0_16_701" style="mask-type:alpha" maskUnits="userSpaceOnUse" x="83" y="60" width="134" height="134">
<rect x="83" y="60" width="134" height="134" fill="#D9D9D9"/>
</mask>
<g mask="url(#mask0_16_701)">
<rect x="38.5723" y="5.54028" width="238.62" height="250.802" fill="#95CBE2"/>
<path d="M153.629 225.053C151.177 227.015 148.779 229.054 146.842 231.509C143.798 235.356 142.369 237.11 137.412 236.518C133.377 236.033 129.28 235.24 125.283 234.171C120.533 232.901 115.553 232.794 110.703 231.955C99.4744 230.016 94.2634 221.821 88.6681 212.765C84.7406 206.401 80.0139 205.593 72.6893 205.432C73.527 204.578 74.3648 203.716 75.2025 202.862C72.8353 202.538 63.0666 203.608 67.7934 199.368C72.1974 195.413 77.0548 191.974 82.2504 189.127C86.8158 186.618 91.6963 184.541 95.6391 181.14C98.1063 179.008 100.128 176.423 102.38 174.068C114.838 161.034 133.915 155.786 151.976 156.71C153.767 137.596 146.742 118.483 148.402 99.3541C148.886 93.7678 150.662 84.1726 155.735 80.8024C160.823 77.4245 169.923 80.8255 173.727 84.7344C176.24 87.3197 176.233 92.9676 176.156 96.2762C176.11 98.2383 176.125 101.285 175.08 103.032C173.181 106.218 168.862 104.709 166.541 107.095C164.804 108.88 165.088 111.904 165.388 114.143C166.095 119.437 168.347 124.408 170.299 129.332C173.765 138.089 175.818 147.753 181.175 155.648C186.409 163.373 190.897 170.013 190.536 179.839C190.198 189.142 185.002 198.999 178.438 205.485C175.126 208.756 170.914 210.649 167.409 213.572C163.251 217.035 159.155 220.69 154.866 224.083C154.451 224.414 154.044 224.737 153.629 225.068V225.053Z" fill="white"/>
<path d="M175.203 106.218C174.58 105.625 173.927 105.063 173.181 104.679C171.367 103.74 169.223 104.363 167.486 103.44C162.951 101.031 166.74 95.4991 166.848 92.1519C166.91 90.3283 167.286 88.9818 169.062 88.1123C171.075 87.1274 174.257 87.3659 175.717 89.2203C176.878 90.69 176.34 92.6136 176.44 94.3141C176.655 97.9229 180.99 101.17 182.481 104.332C183.611 106.725 183.203 108.857 180.329 109.011C178.016 109.134 176.671 107.587 175.21 106.202L175.203 106.218Z" fill="#E99A4F"/>
<path d="M172.467 99.654C172.951 99.6771 173.589 100 173.858 100.162C174.426 100.5 174.957 101.062 174.795 101.77C174.726 102.07 174.403 102.27 174.081 102.201C173.496 102.07 171.083 100.462 172.052 99.754C172.159 99.6771 172.305 99.6463 172.467 99.654Z" fill="#B28356"/>
<path d="M125.983 197.976C124.699 198.453 123.431 198.891 122.17 199.299C120.541 199.822 118.712 200.269 117.175 199.522C115.638 198.776 114.984 196.298 116.437 195.398C113.355 197.637 109.566 198.899 105.754 198.968C104.324 198.991 102.764 198.799 101.749 197.799C100.735 196.798 100.712 194.767 102.011 194.175C98.1907 195.737 94.0019 196.391 89.8823 196.067C87.6458 195.89 84.8174 194.636 85.1786 192.428C85.4476 190.797 89.6979 187.834 90.8738 186.726C93.5639 184.187 96.1693 181.694 99.1822 179.47C104.608 175.461 109.289 170.468 115.038 166.897C120.003 163.812 125.591 161.534 131.44 161.172C138.088 160.765 150.001 166.035 150.093 173.961C150.17 180.671 149.409 186.165 143.645 189.558C138.257 192.736 132.054 195.713 125.983 197.968V197.976Z" fill="#DFDFDD"/>
<path d="M162.936 91.5213C162.828 90.7287 162.014 89.8054 161.099 89.613C160.415 89.4668 159.624 89.8285 159.431 90.5672C159.27 91.175 159.562 91.8675 160.015 92.26C160.477 92.6524 161.068 92.7755 161.637 92.7447C162.682 92.6832 163.021 92.1445 162.936 91.5213Z" fill="#1D1D1B"/>
<path d="M167.355 101.355C169.4 102.155 171.567 102.501 173.327 103.878C174.296 104.64 175.072 105.579 175.963 106.418C177.708 108.08 180.598 109.018 182.396 106.772C182.589 106.533 182.842 106.533 183.05 106.656C183.034 107.456 182.719 108.126 182.051 108.541C181.858 108.649 181.666 108.734 181.466 108.811C181.136 108.918 180.759 108.995 180.321 109.018C178.008 109.142 176.663 107.595 175.202 106.21C174.58 105.617 173.927 105.056 173.181 104.671C173.097 104.625 173.004 104.602 172.912 104.563C171.175 103.217 169.008 102.824 167.317 101.424C167.286 101.393 167.317 101.332 167.363 101.347L167.355 101.355Z" fill="#B28356"/>
<path d="M149.563 67.2293C149.186 66.306 148.764 65.398 148.264 64.5285C147.488 63.1897 158.317 60.2503 159.209 60.158C163.221 59.7579 167.724 60.1272 171.629 61.1583C171.383 62.7511 171.206 64.3054 171.052 65.9597C170.906 67.5294 170.653 69.1068 170.53 70.6842C170.376 72.6155 169.892 74.6777 170.13 76.6244C171.959 76.6706 174.011 76.5628 175.856 76.3243C177.178 76.1473 178.631 75.7857 179.899 76.4551C182.304 77.7247 179.338 81.0719 178.193 82.0106C174.004 85.4501 169.085 87.1737 163.82 87.9585C159.439 88.6126 154.889 88.8896 150.562 87.7662C148.817 87.3122 140.202 84.2267 143.737 81.1334C144.775 80.2255 152.86 79.8792 152.96 79.0559C152.314 76.1935 151.815 73.3157 150.816 70.538C150.416 69.43 150.032 68.3143 149.586 67.2216L149.563 67.2293Z" fill="#1D1D1B"/>
<path d="M153.636 79.0867C153.636 79.0867 153.867 79.179 154.236 79.3252C154.628 79.4791 155.204 79.6561 155.942 79.81C157.402 80.1332 159.524 80.2871 161.783 79.9023C164.043 79.5176 165.957 78.7481 167.294 78.1172C168.631 77.4785 169.408 76.9861 169.408 76.9861C169.408 76.9861 168.485 77.0938 167.04 77.3246C165.211 77.6324 163.297 77.9633 161.499 78.2634C159.37 78.625 157.433 78.8866 155.996 78.979C155.281 79.0328 154.682 79.0636 154.274 79.0636C153.882 79.079 153.629 79.0867 153.629 79.0867H153.636Z" fill="white"/>
<path d="M155.012 136.812C155.996 134.318 161.422 138.281 163.436 138.812C164.181 139.012 167.878 140.859 168.439 140.289C171.129 137.55 173.812 134.88 176.471 132.118C177.578 130.971 178.147 129.786 179.384 131.548C180.36 132.949 180.598 135.165 180.96 136.819C181.482 139.181 182.343 141.513 182.835 143.898C183.481 147.022 183.457 147.784 181.29 147.361C177.347 146.591 173.304 144.999 169.362 143.829C168.631 143.614 166.257 147.538 165.726 148.146C164.289 149.785 162.552 152.101 160.561 152.593C158.824 153.016 157.925 150.362 157.41 148.423C156.68 145.668 156.081 143.013 155.304 140.289C154.812 138.566 154.759 137.466 155.02 136.804L155.012 136.812Z" fill="#1D1D1B"/>
</g>
</svg>
