<svg width="290" height="17" viewBox="0 0 290 17" fill="none" xmlns="http://www.w3.org/2000/svg">
<path d="M3.664 0.651999C3.88 0.651999 5.23 0.831999 6.418 0.831999C7.48 0.831999 8.632 0.669999 9.802 0.669999C11.89 0.669999 13.186 1.642 13.186 3.19C13.186 4.612 12.304 5.746 10.432 6.322C11.872 6.754 12.7 7.762 12.7 8.968C12.7 11.236 10.666 13.09 7.678 13.09C6.652 13.09 4.636 12.91 3.682 12.91C2.512 12.91 1.828 13.054 1.486 13.054C1.108 13.054 0.82 12.91 0.82 12.496C0.82 12.136 1.108 11.884 1.846 11.884C2.008 11.884 2.152 11.902 2.314 11.902C3.034 11.902 3.25 11.236 3.448 10.192L4.402 5.314C4.492 4.882 4.852 2.938 4.852 2.488C4.852 2.074 4.636 1.858 4.186 1.858C3.952 1.858 3.7 1.876 3.466 1.876C2.818 1.876 2.71 1.66 2.71 1.372C2.71 1.03 3.106 0.651999 3.664 0.651999ZM6.472 2.74L6.058 4.666C5.986 4.99 5.95 5.206 5.95 5.296C5.95 5.8 6.418 5.8 7.624 5.8C10.414 5.8 11.512 4.918 11.512 3.424C11.512 2.434 10.792 1.822 9.118 1.822C7.228 1.822 6.616 2.074 6.472 2.74ZM5.428 7.78L4.96 10.336C4.888 10.714 4.87 10.984 4.87 11.092C4.87 11.722 5.212 11.938 6.976 11.938C9.568 11.938 11.044 10.894 11.044 9.076C11.044 7.816 10.342 7.042 7.552 7.042C7.012 7.042 6.526 7.06 6.274 7.078C5.806 7.114 5.554 7.132 5.428 7.78ZM19.181 3.496C21.071 3.496 22.133 4.324 22.133 5.71C22.133 7.906 19.343 9.238 16.409 9.238C15.797 9.238 15.779 9.256 15.779 9.904C15.779 11.11 16.661 12.082 18.119 12.082C19.253 12.082 20.405 11.2 21.089 10.174C21.521 9.526 21.647 9.508 21.845 9.508C22.169 9.508 22.511 9.688 22.511 10.066C22.511 10.372 22.259 10.804 21.791 11.38C20.855 12.496 19.397 13.306 17.885 13.306C15.743 13.306 14.285 11.776 14.285 9.4C14.285 6.016 16.841 3.496 19.181 3.496ZM16.067 7.798C16.067 8.014 16.121 8.014 16.391 8.014C18.641 8.014 20.639 7.114 20.639 5.782C20.639 5.152 20.189 4.72 19.235 4.72C18.731 4.72 18.227 4.882 17.759 5.224C16.877 5.854 16.067 7.15 16.067 7.798ZM29.3326 0.0939999C30.5386 0.0939999 31.2766 0.688 31.2766 1.624C31.2766 2.2 30.7366 2.776 30.2326 2.776C29.7826 2.776 29.5126 2.56 29.5126 2.128C29.5126 1.858 29.6926 1.75 29.6926 1.606C29.6926 1.408 29.4586 1.318 29.1166 1.318C27.8926 1.318 27.1366 2.362 27.1366 3.64C27.1366 3.874 27.2266 3.892 27.5866 3.892C27.9646 3.892 28.3246 3.838 28.6666 3.838C29.0806 3.838 29.3506 3.982 29.3506 4.27C29.3506 4.702 29.0626 4.972 28.6306 4.972C28.3606 4.972 27.8026 4.918 27.3886 4.918C26.9026 4.918 26.8666 5.134 26.7586 5.818L25.9666 10.642C25.7506 11.974 25.5526 12.928 25.3906 13.468C24.8506 15.34 23.7886 16.942 21.7366 16.942C20.6206 16.942 19.9366 16.366 19.9366 15.502C19.9366 14.764 20.4226 14.152 20.9986 14.152C21.5206 14.152 21.7906 14.458 21.7906 14.764C21.7906 15.214 21.4306 15.268 21.4306 15.466C21.4306 15.682 21.6826 15.808 22.0426 15.808C23.3386 15.808 24.2026 13.846 24.6886 10.642L25.3906 5.998C25.4446 5.584 25.4986 5.314 25.4986 5.224C25.4986 5.098 25.4626 4.954 25.1566 4.954C25.1026 4.954 24.7246 4.99 24.3646 4.99C23.9326 4.99 23.7166 4.774 23.7166 4.54C23.7166 4.054 24.0226 3.82 24.5986 3.82C24.8866 3.82 25.1566 3.874 25.4626 3.874C25.7686 3.874 25.8406 3.298 25.8946 2.902C26.1106 1.336 27.6946 0.0939999 29.3326 0.0939999ZM33.3138 3.496C35.7258 3.496 37.0578 4.954 37.0578 7.42C37.0578 10.786 34.6998 13.306 32.1618 13.306C29.8578 13.306 28.3638 11.668 28.3638 9.382C28.3638 6.16 30.4518 3.496 33.3138 3.496ZM29.9478 9.346C29.9478 11.146 30.7758 12.082 32.1438 12.082C33.9078 12.082 35.4738 9.814 35.4738 7.276C35.4738 5.692 34.6638 4.72 33.2238 4.72C31.4958 4.72 29.9478 6.754 29.9478 9.346ZM44.0973 3.496C45.3033 3.496 46.0593 4.27 46.0593 5.224C46.0593 5.872 45.5913 6.376 44.9613 6.376C44.5473 6.376 44.2233 6.16 44.2233 5.746C44.2233 5.44 44.4753 5.332 44.4753 5.08C44.4753 4.9 44.3493 4.72 43.9353 4.72C43.3593 4.72 42.6753 5.152 42.0993 5.908C41.5773 6.61 41.1633 7.474 40.7853 9.022C40.4253 10.498 40.2633 11.344 40.1553 12.262C40.0653 13 39.8493 13.252 39.1833 13.252C38.8953 13.252 38.6073 13.072 38.6073 12.784C38.6073 12.46 38.8233 11.866 39.5793 8.212C39.9033 6.646 40.0473 5.764 40.0473 5.458C40.0473 5.026 39.7233 4.936 39.4353 4.936C39.2733 4.936 39.0213 4.972 38.8593 4.972C38.5173 4.972 38.2293 4.828 38.2293 4.54C38.2293 4.18 38.5173 3.838 39.0393 3.838C39.2553 3.838 39.5793 3.928 39.9573 3.928C40.5153 3.928 41.0373 3.838 41.1993 3.838C41.3973 3.838 41.5593 3.892 41.5593 4.09C41.5593 4.252 41.4153 4.882 41.3613 5.26C42.0813 4.09 43.0713 3.496 44.0973 3.496ZM51.0325 3.496C52.9225 3.496 53.9845 4.324 53.9845 5.71C53.9845 7.906 51.1945 9.238 48.2605 9.238C47.6485 9.238 47.6305 9.256 47.6305 9.904C47.6305 11.11 48.5125 12.082 49.9705 12.082C51.1045 12.082 52.2565 11.2 52.9405 10.174C53.3725 9.526 53.4985 9.508 53.6965 9.508C54.0205 9.508 54.3625 9.688 54.3625 10.066C54.3625 10.372 54.1105 10.804 53.6425 11.38C52.7065 12.496 51.2485 13.306 49.7365 13.306C47.5945 13.306 46.1365 11.776 46.1365 9.4C46.1365 6.016 48.6925 3.496 51.0325 3.496ZM47.9185 7.798C47.9185 8.014 47.9725 8.014 48.2425 8.014C50.4925 8.014 52.4905 7.114 52.4905 5.782C52.4905 5.152 52.0405 4.72 51.0865 4.72C50.5825 4.72 50.0785 4.882 49.6105 5.224C48.7285 5.854 47.9185 7.15 47.9185 7.798ZM64.494 3.496C66.474 3.496 67.698 4.432 67.698 5.656C67.698 6.304 67.338 6.79 66.708 6.79C66.204 6.79 65.88 6.448 65.88 5.998C65.88 5.8 66.06 5.53 66.06 5.386C66.06 5.026 65.376 4.648 64.368 4.648C63.234 4.648 62.244 5.296 62.244 5.98C62.244 6.7 62.64 6.988 63.216 7.168L64.998 7.708C66.978 8.302 67.32 8.986 67.32 10.156C67.32 11.92 65.646 13.306 63.09 13.306C60.894 13.306 59.49 12.262 59.49 10.894C59.49 10.12 60.03 9.472 60.66 9.472C61.164 9.472 61.524 9.742 61.524 10.282C61.524 10.732 61.11 10.75 61.074 11.074C61.074 11.596 61.974 12.082 63.216 12.082C64.872 12.082 65.916 11.236 65.916 10.282C65.916 9.634 65.466 9.31 64.188 8.914C62.172 8.302 60.858 7.942 60.858 6.25C60.858 4.774 62.334 3.496 64.494 3.496ZM72.4596 0.85C73.0896 0.85 73.1976 0.957999 73.1976 1.354C73.1976 1.588 73.1256 1.984 72.9636 2.578C72.7116 3.478 72.6936 3.658 72.6936 3.73C72.6936 3.856 72.7476 3.91 72.9816 3.91C73.2516 3.91 73.8636 3.838 74.4936 3.838C74.9436 3.838 75.1236 3.982 75.1236 4.288C75.1236 4.756 74.9076 4.99 74.2056 4.99C73.8636 4.99 73.3956 4.936 72.9636 4.936C72.7476 4.936 72.5676 4.954 72.4776 5.062C72.3696 5.206 72.3336 5.512 72.2256 6.124L71.5956 9.418C71.4876 9.94 71.3436 10.75 71.3436 11.128C71.3436 11.686 71.6496 12.028 72.2796 12.028C72.9276 12.028 73.4856 11.452 73.8816 9.922C74.0976 9.058 74.2956 8.86 74.7276 8.86C75.1416 8.86 75.2676 9.022 75.2676 9.382C75.2676 9.832 75.1236 10.39 74.8356 11.092C74.2776 12.46 73.2696 13.306 72.0276 13.306C70.8036 13.306 69.9216 12.622 69.9216 11.398C69.9216 11.236 69.9936 10.534 70.2816 8.986L70.8936 5.764C70.9476 5.494 70.9836 5.26 70.9836 5.17C70.9836 5.044 70.9836 4.954 70.8216 4.954C70.6596 4.954 70.2276 5.008 69.9216 5.008C69.6336 5.008 69.4176 4.81 69.4176 4.54C69.4176 4.09 69.6696 3.82 70.2456 3.82C70.4796 3.82 70.7676 3.874 70.9296 3.874C71.2356 3.874 71.3976 3.748 71.5236 2.866C71.6856 1.678 71.7936 0.85 72.4596 0.85ZM80.7873 3.496C82.0833 3.496 82.9293 4 83.4333 5.008L83.5233 4.342C83.5953 3.748 83.8293 3.496 84.3873 3.496C84.6753 3.496 84.9993 3.694 84.9993 4C84.9993 4.378 84.5673 5.548 84.1173 7.834C83.7393 9.724 83.6673 10.192 83.6673 10.822C83.6673 11.614 83.9193 11.956 84.3513 11.956C84.7832 11.956 85.2333 11.614 85.6293 10.282C85.8993 9.382 86.0613 8.86 86.4753 8.86C86.8533 8.86 87.1053 9.076 87.1053 9.49C87.1053 9.85 86.9613 10.372 86.6733 11.056C86.0973 12.424 85.2153 13.252 84.2253 13.252C83.1633 13.252 82.5873 12.622 82.4613 11.506C81.5793 12.73 80.4453 13.306 79.3113 13.306C77.3493 13.306 76.0713 12.028 76.0713 9.868C76.0713 6.214 78.2493 3.496 80.7873 3.496ZM77.5653 9.868C77.5653 11.218 78.2673 12.082 79.4373 12.082C81.2553 12.082 82.8033 9.526 82.8033 6.844C82.8033 5.566 82.0653 4.72 80.8953 4.72C79.2573 4.72 77.5653 6.916 77.5653 9.868ZM93.8083 3.496C95.0143 3.496 95.7703 4.27 95.7703 5.224C95.7703 5.872 95.3023 6.376 94.6723 6.376C94.2583 6.376 93.9343 6.16 93.9343 5.746C93.9343 5.44 94.1863 5.332 94.1863 5.08C94.1863 4.9 94.0603 4.72 93.6463 4.72C93.0703 4.72 92.3863 5.152 91.8103 5.908C91.2883 6.61 90.8743 7.474 90.4963 9.022C90.1363 10.498 89.9743 11.344 89.8663 12.262C89.7763 13 89.5603 13.252 88.8943 13.252C88.6063 13.252 88.3183 13.072 88.3183 12.784C88.3183 12.46 88.5343 11.866 89.2903 8.212C89.6143 6.646 89.7583 5.764 89.7583 5.458C89.7583 5.026 89.4343 4.936 89.1463 4.936C88.9843 4.936 88.7323 4.972 88.5703 4.972C88.2283 4.972 87.9403 4.828 87.9403 4.54C87.9403 4.18 88.2283 3.838 88.7503 3.838C88.9663 3.838 89.2903 3.928 89.6683 3.928C90.2263 3.928 90.7483 3.838 90.9103 3.838C91.1083 3.838 91.2703 3.892 91.2703 4.09C91.2703 4.252 91.1263 4.882 91.0723 5.26C91.7923 4.09 92.7823 3.496 93.8083 3.496ZM99.2135 0.85C99.8435 0.85 99.9515 0.957999 99.9515 1.354C99.9515 1.588 99.8795 1.984 99.7175 2.578C99.4655 3.478 99.4475 3.658 99.4475 3.73C99.4475 3.856 99.5015 3.91 99.7355 3.91C100.005 3.91 100.617 3.838 101.247 3.838C101.697 3.838 101.877 3.982 101.877 4.288C101.877 4.756 101.661 4.99 100.959 4.99C100.617 4.99 100.149 4.936 99.7175 4.936C99.5015 4.936 99.3215 4.954 99.2315 5.062C99.1235 5.206 99.0875 5.512 98.9795 6.124L98.3495 9.418C98.2415 9.94 98.0975 10.75 98.0975 11.128C98.0975 11.686 98.4035 12.028 99.0335 12.028C99.6815 12.028 100.239 11.452 100.635 9.922C100.851 9.058 101.049 8.86 101.481 8.86C101.895 8.86 102.021 9.022 102.021 9.382C102.021 9.832 101.877 10.39 101.589 11.092C101.031 12.46 100.023 13.306 98.7815 13.306C97.5575 13.306 96.6755 12.622 96.6755 11.398C96.6755 11.236 96.7475 10.534 97.0355 8.986L97.6475 5.764C97.7015 5.494 97.7375 5.26 97.7375 5.17C97.7375 5.044 97.7375 4.954 97.5755 4.954C97.4135 4.954 96.9815 5.008 96.6755 5.008C96.3875 5.008 96.1715 4.81 96.1715 4.54C96.1715 4.09 96.4235 3.82 96.9995 3.82C97.2335 3.82 97.5215 3.874 97.6835 3.874C97.9895 3.874 98.1515 3.748 98.2775 2.866C98.4395 1.678 98.5475 0.85 99.2135 0.85ZM103.851 11.02C104.715 11.02 105.111 11.614 105.111 12.442C105.111 12.928 104.949 13.486 104.679 14.062C104.157 15.196 103.041 16.33 102.591 16.33C102.483 16.33 102.303 16.222 102.303 16.024C102.303 15.898 102.375 15.754 102.501 15.628C102.933 15.232 103.977 14.134 103.977 13.45C103.977 13.252 103.815 13.216 103.617 13.216C103.527 13.216 103.455 13.234 103.329 13.234C102.879 13.234 102.555 12.82 102.555 12.334C102.555 11.596 103.149 11.02 103.851 11.02ZM122.717 3.496C124.031 3.496 124.931 4.612 124.931 6.682C124.931 10.012 122.753 13.306 119.999 13.306C118.649 13.306 117.623 12.622 117.335 11.308C116.381 12.73 115.373 13.306 114.203 13.306C112.853 13.306 111.845 12.406 111.845 11.038C111.845 10.462 112.889 6.628 112.889 5.476C112.889 5.044 112.583 4.954 112.277 4.954C112.061 4.954 111.773 4.99 111.629 4.99C111.323 4.99 111.107 4.828 111.107 4.54C111.107 4.162 111.413 3.838 111.845 3.838C111.989 3.838 112.403 3.91 113.123 3.91C113.483 3.91 114.023 3.838 114.185 3.838C114.383 3.838 114.599 3.892 114.599 4.09C114.599 4.288 114.509 4.54 114.491 4.666L113.915 7.708C113.825 8.212 113.339 10.102 113.339 10.822C113.339 11.596 113.771 12.028 114.509 12.028C116.129 12.028 117.677 9.418 118.199 5.314C118.379 3.91 118.469 3.694 119.099 3.694C119.513 3.694 119.783 3.91 119.783 4.198C119.783 4.396 119.657 5.026 119.387 6.088C118.811 8.248 118.505 9.778 118.505 10.516C118.505 11.434 119.225 12.028 120.107 12.028C121.925 12.028 123.527 9.202 123.527 6.502C123.527 5.638 123.239 4.972 122.861 4.972C122.573 4.972 122.537 5.386 122.051 5.386C121.565 5.386 121.313 4.99 121.313 4.594C121.313 3.946 121.925 3.496 122.717 3.496ZM130.82 3.496C132.71 3.496 133.772 4.324 133.772 5.71C133.772 7.906 130.982 9.238 128.048 9.238C127.436 9.238 127.418 9.256 127.418 9.904C127.418 11.11 128.3 12.082 129.758 12.082C130.892 12.082 132.044 11.2 132.728 10.174C133.16 9.526 133.286 9.508 133.484 9.508C133.808 9.508 134.15 9.688 134.15 10.066C134.15 10.372 133.898 10.804 133.43 11.38C132.494 12.496 131.036 13.306 129.524 13.306C127.382 13.306 125.924 11.776 125.924 9.4C125.924 6.016 128.48 3.496 130.82 3.496ZM127.706 7.798C127.706 8.014 127.76 8.014 128.03 8.014C130.28 8.014 132.278 7.114 132.278 5.782C132.278 5.152 131.828 4.72 130.874 4.72C130.37 4.72 129.866 4.882 129.398 5.224C128.516 5.854 127.706 7.15 127.706 7.798ZM146.099 3.496C147.629 3.496 148.511 4.288 148.511 5.656C148.511 6.106 148.349 6.988 148.007 8.284C147.665 9.58 147.503 10.462 147.503 10.948C147.503 11.596 147.665 11.956 148.151 11.956C148.637 11.956 149.141 11.254 149.393 10.228C149.645 9.202 149.789 8.86 150.239 8.86C150.653 8.86 150.851 9.058 150.851 9.436C150.851 9.814 150.707 10.354 150.437 11.038C149.879 12.406 148.979 13.252 147.935 13.252C146.873 13.252 146.099 12.424 146.099 10.966C146.099 10.516 146.261 9.634 146.567 8.428C146.873 7.186 147.017 6.34 147.017 5.89C147.017 5.098 146.531 4.792 145.667 4.792C145.199 4.792 144.695 5.008 144.137 5.44C143.003 6.322 142.247 7.978 141.725 11.524C141.509 13.018 141.437 13.252 140.591 13.252C140.249 13.252 140.051 13 140.051 12.694C140.051 12.478 140.519 10.552 141.095 7.636L141.419 5.98C141.455 5.782 141.473 5.584 141.473 5.458C141.473 5.098 141.293 4.936 140.861 4.936C140.663 4.936 140.429 4.972 140.267 4.972C139.925 4.972 139.655 4.828 139.655 4.54C139.655 4.162 139.961 3.838 140.465 3.838C140.663 3.838 140.987 3.928 141.437 3.928C141.941 3.928 142.427 3.838 142.625 3.838C142.823 3.838 142.985 3.892 142.985 4.09C142.985 4.288 142.913 4.522 142.823 4.864L142.661 5.512C143.615 4.198 144.695 3.496 146.099 3.496ZM156.466 3.496C158.356 3.496 159.418 4.324 159.418 5.71C159.418 7.906 156.628 9.238 153.694 9.238C153.082 9.238 153.064 9.256 153.064 9.904C153.064 11.11 153.946 12.082 155.404 12.082C156.538 12.082 157.69 11.2 158.374 10.174C158.806 9.526 158.932 9.508 159.13 9.508C159.454 9.508 159.796 9.688 159.796 10.066C159.796 10.372 159.544 10.804 159.076 11.38C158.14 12.496 156.682 13.306 155.17 13.306C153.028 13.306 151.57 11.776 151.57 9.4C151.57 6.016 154.126 3.496 156.466 3.496ZM153.352 7.798C153.352 8.014 153.406 8.014 153.676 8.014C155.926 8.014 157.924 7.114 157.924 5.782C157.924 5.152 157.474 4.72 156.52 4.72C156.016 4.72 155.512 4.882 155.044 5.224C154.162 5.854 153.352 7.15 153.352 7.798ZM165.484 3.496C167.374 3.496 168.436 4.324 168.436 5.71C168.436 7.906 165.646 9.238 162.712 9.238C162.1 9.238 162.082 9.256 162.082 9.904C162.082 11.11 162.964 12.082 164.422 12.082C165.556 12.082 166.708 11.2 167.392 10.174C167.824 9.526 167.95 9.508 168.148 9.508C168.472 9.508 168.814 9.688 168.814 10.066C168.814 10.372 168.562 10.804 168.094 11.38C167.158 12.496 165.7 13.306 164.188 13.306C162.046 13.306 160.588 11.776 160.588 9.4C160.588 6.016 163.144 3.496 165.484 3.496ZM162.37 7.798C162.37 8.014 162.424 8.014 162.694 8.014C164.944 8.014 166.942 7.114 166.942 5.782C166.942 5.152 166.492 4.72 165.538 4.72C165.034 4.72 164.53 4.882 164.062 5.224C163.18 5.854 162.37 7.15 162.37 7.798ZM176.229 0.489999C176.391 0.489999 176.823 0.598 177.183 0.598C177.903 0.598 178.335 0.508 178.551 0.508C178.767 0.508 178.965 0.543999 178.965 0.76C178.965 0.993999 178.875 1.282 178.821 1.552L178.587 2.83C178.137 5.314 177.129 9.202 177.129 10.822C177.129 11.506 177.327 11.956 177.759 11.956C177.939 11.956 178.371 11.902 178.785 11.02C178.929 10.732 179.109 10.21 179.199 9.886C179.379 9.238 179.523 8.86 179.937 8.86C180.297 8.86 180.549 9.076 180.549 9.436C180.549 9.778 180.405 10.336 180.099 11.038C179.523 12.406 178.641 13.252 177.561 13.252C176.571 13.252 176.031 12.64 175.959 11.398C175.005 12.856 173.763 13.306 172.719 13.306C171.981 13.306 171.207 13.072 170.649 12.604C169.929 12.01 169.551 11.11 169.551 9.562C169.551 6.322 171.729 3.496 174.141 3.496C175.347 3.496 176.283 3.928 176.805 4.792L177.129 3.082C177.219 2.632 177.255 2.326 177.255 2.146C177.255 1.768 177.039 1.642 176.697 1.642C176.463 1.642 176.211 1.714 176.013 1.714C175.743 1.714 175.473 1.534 175.473 1.228C175.473 0.85 175.779 0.489999 176.229 0.489999ZM171.045 9.814C171.045 11.362 171.747 12.082 172.809 12.082C174.897 12.082 176.283 9.166 176.283 6.952C176.283 5.566 175.527 4.72 174.393 4.72C173.547 4.72 172.611 5.296 172.017 6.286C171.405 7.294 171.045 8.194 171.045 9.814ZM190.652 3.496C192.632 3.496 193.856 4.432 193.856 5.656C193.856 6.304 193.496 6.79 192.866 6.79C192.362 6.79 192.038 6.448 192.038 5.998C192.038 5.8 192.218 5.53 192.218 5.386C192.218 5.026 191.534 4.648 190.526 4.648C189.392 4.648 188.402 5.296 188.402 5.98C188.402 6.7 188.798 6.988 189.374 7.168L191.156 7.708C193.136 8.302 193.478 8.986 193.478 10.156C193.478 11.92 191.804 13.306 189.248 13.306C187.052 13.306 185.648 12.262 185.648 10.894C185.648 10.12 186.188 9.472 186.818 9.472C187.322 9.472 187.682 9.742 187.682 10.282C187.682 10.732 187.268 10.75 187.232 11.074C187.232 11.596 188.132 12.082 189.374 12.082C191.03 12.082 192.074 11.236 192.074 10.282C192.074 9.634 191.624 9.31 190.346 8.914C188.33 8.302 187.016 7.942 187.016 6.25C187.016 4.774 188.492 3.496 190.652 3.496ZM200.148 3.496C202.56 3.496 203.892 4.954 203.892 7.42C203.892 10.786 201.534 13.306 198.996 13.306C196.692 13.306 195.198 11.668 195.198 9.382C195.198 6.16 197.286 3.496 200.148 3.496ZM196.782 9.346C196.782 11.146 197.61 12.082 198.978 12.082C200.742 12.082 202.308 9.814 202.308 7.276C202.308 5.692 201.498 4.72 200.058 4.72C198.33 4.72 196.782 6.754 196.782 9.346ZM211.417 3.496C212.677 3.496 213.433 4.072 213.721 5.278C214.603 4.144 215.647 3.496 216.943 3.496C218.419 3.496 219.265 4.342 219.265 5.728C219.265 6.232 219.103 7.096 218.779 8.338C218.437 9.598 218.275 10.48 218.275 10.966C218.275 11.632 218.419 11.956 218.905 11.956C219.067 11.956 219.391 11.866 219.661 11.434C219.859 11.11 220.075 10.66 220.291 9.85C220.489 9.13 220.633 8.86 221.047 8.86C221.335 8.86 221.623 9.076 221.623 9.418C221.623 9.796 221.479 10.354 221.191 11.056C220.615 12.442 219.733 13.252 218.725 13.252C217.627 13.252 216.871 12.442 216.871 11.002C216.871 10.444 217.015 9.616 217.321 8.392C217.627 7.204 217.771 6.394 217.771 5.98C217.771 5.17 217.321 4.792 216.529 4.792C216.025 4.792 215.341 5.062 214.657 5.8C213.919 6.61 213.253 7.798 212.821 10.336L212.497 12.208C212.335 13.108 212.209 13.252 211.543 13.252C211.129 13.252 210.985 12.964 210.985 12.694C210.985 12.352 211.399 10.804 211.705 9.256C212.065 7.456 212.263 6.628 212.263 5.944C212.263 5.17 211.849 4.792 211.057 4.792C210.085 4.792 209.041 5.548 208.267 7.078C207.835 7.924 207.565 8.824 207.277 10.372C206.809 12.874 206.971 13.252 205.999 13.252C205.693 13.252 205.441 13.09 205.441 12.712C205.441 12.568 205.963 10.354 206.197 9.148L206.629 6.916C206.791 6.106 206.863 5.656 206.863 5.458C206.863 5.008 206.557 4.936 206.251 4.936C206.089 4.936 205.801 4.972 205.657 4.972C205.351 4.972 205.063 4.828 205.063 4.54C205.063 4.18 205.333 3.838 205.855 3.838C206.017 3.838 206.395 3.928 206.773 3.928C207.331 3.928 207.835 3.838 207.979 3.838C208.141 3.838 208.393 3.892 208.393 4.09C208.393 4.432 208.303 4.468 208.033 5.512C208.969 4.162 210.085 3.496 211.417 3.496ZM227.218 3.496C229.108 3.496 230.17 4.324 230.17 5.71C230.17 7.906 227.38 9.238 224.446 9.238C223.834 9.238 223.816 9.256 223.816 9.904C223.816 11.11 224.698 12.082 226.156 12.082C227.29 12.082 228.442 11.2 229.126 10.174C229.558 9.526 229.684 9.508 229.882 9.508C230.206 9.508 230.548 9.688 230.548 10.066C230.548 10.372 230.296 10.804 229.828 11.38C228.892 12.496 227.434 13.306 225.922 13.306C223.78 13.306 222.322 11.776 222.322 9.4C222.322 6.016 224.878 3.496 227.218 3.496ZM224.104 7.798C224.104 8.014 224.158 8.014 224.428 8.014C226.678 8.014 228.676 7.114 228.676 5.782C228.676 5.152 228.226 4.72 227.272 4.72C226.768 4.72 226.264 4.882 225.796 5.224C224.914 5.854 224.104 7.15 224.104 7.798ZM239.204 0.688C239.762 0.688 240.176 1.102 240.176 1.624C240.176 2.272 239.69 2.776 238.988 2.776C238.43 2.776 238.07 2.398 238.07 1.84C238.07 1.264 238.574 0.688 239.204 0.688ZM236.72 3.838C236.864 3.838 237.278 3.91 237.98 3.91C238.34 3.91 238.862 3.838 239.024 3.838C239.24 3.838 239.456 3.874 239.456 4.09C239.456 4.234 239.294 5.008 238.934 6.79L238.322 9.85C238.25 10.246 238.178 10.84 238.178 11.182C238.178 11.614 238.394 11.956 238.808 11.956C239.294 11.956 239.834 11.146 240.104 10.192C240.356 9.274 240.482 8.86 240.968 8.86C241.31 8.86 241.58 9.076 241.58 9.364C241.58 9.706 241.436 10.264 241.166 10.948C240.608 12.316 239.744 13.252 238.682 13.252C237.53 13.252 236.792 12.352 236.792 10.966C236.792 9.976 237.746 6.376 237.746 5.458C237.746 5.098 237.53 4.954 237.152 4.954C236.936 4.954 236.648 4.99 236.504 4.99C236.198 4.99 235.982 4.828 235.982 4.54C235.982 4.162 236.288 3.838 236.72 3.838ZM248.843 3.496C250.373 3.496 251.255 4.288 251.255 5.656C251.255 6.106 251.093 6.988 250.751 8.284C250.409 9.58 250.247 10.462 250.247 10.948C250.247 11.596 250.409 11.956 250.895 11.956C251.381 11.956 251.885 11.254 252.137 10.228C252.389 9.202 252.533 8.86 252.983 8.86C253.397 8.86 253.595 9.058 253.595 9.436C253.595 9.814 253.451 10.354 253.181 11.038C252.623 12.406 251.723 13.252 250.679 13.252C249.617 13.252 248.843 12.424 248.843 10.966C248.843 10.516 249.005 9.634 249.311 8.428C249.617 7.186 249.761 6.34 249.761 5.89C249.761 5.098 249.275 4.792 248.411 4.792C247.943 4.792 247.439 5.008 246.881 5.44C245.747 6.322 244.991 7.978 244.469 11.524C244.253 13.018 244.181 13.252 243.335 13.252C242.993 13.252 242.795 13 242.795 12.694C242.795 12.478 243.263 10.552 243.839 7.636L244.163 5.98C244.199 5.782 244.217 5.584 244.217 5.458C244.217 5.098 244.037 4.936 243.605 4.936C243.407 4.936 243.173 4.972 243.011 4.972C242.669 4.972 242.399 4.828 242.399 4.54C242.399 4.162 242.705 3.838 243.209 3.838C243.407 3.838 243.731 3.928 244.181 3.928C244.685 3.928 245.171 3.838 245.369 3.838C245.567 3.838 245.729 3.892 245.729 4.09C245.729 4.288 245.657 4.522 245.567 4.864L245.405 5.512C246.359 4.198 247.439 3.496 248.843 3.496ZM260.344 0.0939999C261.55 0.0939999 262.288 0.688 262.288 1.624C262.288 2.2 261.748 2.776 261.244 2.776C260.794 2.776 260.524 2.56 260.524 2.128C260.524 1.858 260.704 1.75 260.704 1.606C260.704 1.408 260.47 1.318 260.128 1.318C258.904 1.318 258.148 2.362 258.148 3.64C258.148 3.874 258.238 3.892 258.598 3.892C258.976 3.892 259.336 3.838 259.678 3.838C260.092 3.838 260.362 3.982 260.362 4.27C260.362 4.702 260.074 4.972 259.642 4.972C259.372 4.972 258.814 4.918 258.4 4.918C257.914 4.918 257.878 5.134 257.77 5.818L256.978 10.642C256.762 11.974 256.564 12.928 256.402 13.468C255.862 15.34 254.8 16.942 252.748 16.942C251.632 16.942 250.948 16.366 250.948 15.502C250.948 14.764 251.434 14.152 252.01 14.152C252.532 14.152 252.802 14.458 252.802 14.764C252.802 15.214 252.442 15.268 252.442 15.466C252.442 15.682 252.694 15.808 253.054 15.808C254.35 15.808 255.214 13.846 255.7 10.642L256.402 5.998C256.456 5.584 256.51 5.314 256.51 5.224C256.51 5.098 256.474 4.954 256.168 4.954C256.114 4.954 255.736 4.99 255.376 4.99C254.944 4.99 254.728 4.774 254.728 4.54C254.728 4.054 255.034 3.82 255.61 3.82C255.898 3.82 256.168 3.874 256.474 3.874C256.78 3.874 256.852 3.298 256.906 2.902C257.122 1.336 258.706 0.0939999 260.344 0.0939999ZM264.326 3.496C266.738 3.496 268.07 4.954 268.07 7.42C268.07 10.786 265.712 13.306 263.174 13.306C260.87 13.306 259.376 11.668 259.376 9.382C259.376 6.16 261.464 3.496 264.326 3.496ZM260.96 9.346C260.96 11.146 261.788 12.082 263.156 12.082C264.92 12.082 266.486 9.814 266.486 7.276C266.486 5.692 265.676 4.72 264.236 4.72C262.508 4.72 260.96 6.754 260.96 9.346ZM273.867 3.496C275.847 3.496 277.071 4.432 277.071 5.656C277.071 6.304 276.711 6.79 276.081 6.79C275.577 6.79 275.253 6.448 275.253 5.998C275.253 5.8 275.433 5.53 275.433 5.386C275.433 5.026 274.749 4.648 273.741 4.648C272.607 4.648 271.617 5.296 271.617 5.98C271.617 6.7 272.013 6.988 272.589 7.168L274.371 7.708C276.351 8.302 276.693 8.986 276.693 10.156C276.693 11.92 275.019 13.306 272.463 13.306C270.267 13.306 268.863 12.262 268.863 10.894C268.863 10.12 269.403 9.472 270.033 9.472C270.537 9.472 270.897 9.742 270.897 10.282C270.897 10.732 270.483 10.75 270.447 11.074C270.447 11.596 271.347 12.082 272.589 12.082C274.245 12.082 275.289 11.236 275.289 10.282C275.289 9.634 274.839 9.31 273.561 8.914C271.545 8.302 270.231 7.942 270.231 6.25C270.231 4.774 271.707 3.496 273.867 3.496ZM279.303 11.11C279.933 11.11 280.329 11.488 280.329 12.082C280.329 12.748 279.717 13.306 279.051 13.306C278.457 13.306 278.043 12.838 278.043 12.316C278.043 11.686 278.691 11.11 279.303 11.11ZM283.979 11.11C284.609 11.11 285.005 11.488 285.005 12.082C285.005 12.748 284.393 13.306 283.727 13.306C283.133 13.306 282.719 12.838 282.719 12.316C282.719 11.686 283.367 11.11 283.979 11.11ZM288.655 11.11C289.285 11.11 289.681 11.488 289.681 12.082C289.681 12.748 289.069 13.306 288.403 13.306C287.809 13.306 287.395 12.838 287.395 12.316C287.395 11.686 288.043 11.11 288.655 11.11Z" fill="black"/>
</svg>
