<svg width="267" height="184" viewBox="0 0 267 184" fill="none" xmlns="http://www.w3.org/2000/svg">
<path d="M0 180.613L3.79621 0H263.204L267 184L0 180.613Z" fill="#FFF59E"/>
<path d="M47.924 79.19C48.47 79.19 49.692 79.424 51.226 79.424C52.656 79.424 54.242 79.19 54.346 79.19C54.866 79.19 55.23 79.424 55.23 79.944C55.23 80.464 54.762 80.958 53.956 80.958C53.514 80.958 53.098 80.776 52.656 80.776C52.318 80.776 52.058 80.906 52.058 81.114C52.058 81.244 52.162 81.608 52.37 82.102L54.97 88.654L60.04 82.258C60.846 81.244 60.898 81.166 60.898 81.01C60.898 80.854 60.794 80.776 60.508 80.776C60.118 80.776 59.364 80.932 58.454 80.932C57.804 80.932 57.492 80.698 57.492 80.178C57.492 79.684 58.012 79.19 58.766 79.19C58.922 79.19 60.794 79.45 62.25 79.45C63.576 79.45 64.642 79.19 65.37 79.19C65.916 79.19 66.28 79.528 66.28 79.97C66.28 80.49 65.682 81.01 64.954 81.01C64.46 81.01 64.2 80.906 63.992 80.906C63.498 80.906 62.952 81.738 61.782 83.168L55.802 90.37L55.152 93.75C55.1 94.036 55.074 94.296 55.074 94.53C55.074 95.154 55.438 95.414 56.27 95.414C56.712 95.414 57.258 95.31 57.648 95.31C58.194 95.31 58.558 95.492 58.558 96.012C58.558 96.636 58.064 97.078 57.232 97.078C56.53 97.078 55.334 96.87 53.774 96.87C52.032 96.87 50.446 97.13 50.056 97.13C49.458 97.13 49.094 96.844 49.094 96.35C49.094 95.752 49.64 95.284 50.368 95.284C50.446 95.284 51.07 95.414 51.46 95.414C52.136 95.414 52.526 94.998 52.734 94.166L53.592 90.578L50.004 82.18C49.614 81.244 49.328 80.906 48.678 80.906C48.392 80.906 47.976 80.984 47.768 80.984C46.702 80.984 46.52 80.646 46.52 80.282C46.52 79.736 47.17 79.19 47.924 79.19ZM68.9606 83.272C72.4446 83.272 74.3686 85.378 74.3686 88.94C74.3686 93.802 70.9626 97.442 67.2966 97.442C63.9686 97.442 61.8106 95.076 61.8106 91.774C61.8106 87.12 64.8266 83.272 68.9606 83.272ZM64.0986 91.722C64.0986 94.322 65.2946 95.674 67.2706 95.674C69.8186 95.674 72.0806 92.398 72.0806 88.732C72.0806 86.444 70.9106 85.04 68.8306 85.04C66.3346 85.04 64.0986 87.978 64.0986 91.722ZM88.2029 83.558C88.7489 83.558 89.0349 83.818 89.0349 84.208C89.0349 84.806 88.7229 86.288 88.1249 88.706C87.5269 91.124 87.2149 92.944 87.2149 94.114C87.2149 95.102 87.5529 95.492 88.2549 95.492C89.4769 95.492 90.0489 93.126 90.5689 91.592C90.6989 91.202 90.9849 91.02 91.4529 91.02C91.9469 91.02 92.2329 91.306 92.2329 91.8C92.2329 92.346 92.0249 93.152 91.6349 94.166C90.8809 96.116 89.5549 97.364 87.9689 97.364C86.4869 97.364 85.4729 96.116 85.4729 94.556L85.4989 94.088C84.1209 96.402 82.4309 97.442 80.3249 97.442C78.6089 97.442 77.1269 96.22 77.1269 94.348C77.1269 94.01 77.1529 93.62 77.3609 92.502L78.3229 87.64C78.4529 87.016 78.5309 86.522 78.5309 86.132C78.5309 85.508 78.0889 85.378 77.6469 85.378C77.3349 85.378 76.9189 85.43 76.7109 85.43C76.2689 85.43 75.9569 85.196 75.9569 84.78C75.9569 84.234 76.3989 83.766 77.0229 83.766C77.2309 83.766 77.8289 83.87 78.8429 83.87C79.3629 83.87 80.1689 83.766 80.4029 83.766C80.6889 83.766 81.0009 83.818 81.0009 84.13C81.0009 84.364 80.8969 84.754 80.8449 85.04L79.4929 92.034C79.3369 92.866 79.2849 93.282 79.2849 93.568C79.2849 94.842 79.7529 95.596 80.8969 95.596C83.1329 95.596 85.7589 92.268 86.5129 86.86C86.9289 83.896 86.9549 83.584 88.2029 83.558ZM102.94 79.164C103.59 79.164 104.812 79.424 106.372 79.424C107.1 79.424 107.776 79.19 108.4 79.19C108.816 79.19 108.92 79.372 109.024 79.736C109.18 80.334 109.154 80.906 109.336 82.206L110.948 93.516L116.876 82.57C117.396 81.634 117.708 80.906 118.176 80.022C118.41 79.554 118.852 79.19 119.502 79.19C120.022 79.19 120.646 79.424 121.4 79.424C122.882 79.424 123.922 79.164 124.338 79.164C124.988 79.164 125.404 79.45 125.404 79.97C125.404 80.386 124.988 80.932 124.052 80.932C123.922 80.932 123.584 80.906 123.376 80.906C122.128 80.906 121.92 81.92 121.66 83.09C121.426 84.182 120.256 90.188 119.814 92.554C119.606 93.672 119.528 94.244 119.528 94.53C119.528 95.076 119.736 95.388 120.646 95.388C120.932 95.388 121.348 95.336 121.738 95.336C122.362 95.336 122.726 95.596 122.726 96.09C122.726 96.636 122.154 97.13 121.478 97.13C120.88 97.13 119.32 96.87 117.89 96.87C116.46 96.87 115.394 97.104 114.666 97.104C113.938 97.104 113.6 96.896 113.6 96.272C113.6 95.778 114.224 95.284 114.874 95.284C115.212 95.284 115.654 95.414 116.096 95.414C116.902 95.414 117.162 94.296 117.422 93.126L120.152 80.334C117.526 85.118 113.366 92.71 112.092 95.102C111.26 96.688 110.896 97.234 110.35 97.234C109.674 97.234 109.466 97.104 109.362 96.246C109.284 95.622 109.232 94.608 109.128 93.854L107.126 80.334L105.28 90.318C104.812 92.84 104.656 94.14 104.656 94.426C104.656 95.05 104.916 95.388 105.566 95.388C105.956 95.388 106.32 95.284 106.554 95.284C107.152 95.284 107.438 95.544 107.438 96.038C107.438 96.558 107.074 97.104 106.346 97.104C105.54 97.104 104.526 96.87 102.888 96.87C101.406 96.87 100.054 97.078 99.7684 97.078C99.1704 97.078 98.8324 96.87 98.8324 96.272C98.8324 95.752 99.2224 95.388 100.34 95.388C100.548 95.388 100.782 95.414 100.99 95.414C101.952 95.414 102.29 94.608 102.602 93.1C103.044 90.916 103.746 87.354 104.396 83.818C104.578 82.83 104.656 82.154 104.656 81.816C104.656 81.244 104.37 80.906 103.694 80.906C103.356 80.906 103.018 80.932 102.68 80.932C101.77 80.932 101.536 80.672 101.536 80.204C101.536 79.71 102.108 79.164 102.94 79.164ZM131.77 83.272C133.642 83.272 134.864 84 135.592 85.456L135.722 84.494C135.826 83.636 136.164 83.272 136.97 83.272C137.386 83.272 137.854 83.558 137.854 84C137.854 84.546 137.23 86.236 136.58 89.538C136.034 92.268 135.93 92.944 135.93 93.854C135.93 94.998 136.294 95.492 136.918 95.492C137.542 95.492 138.192 94.998 138.764 93.074C139.154 91.774 139.388 91.02 139.986 91.02C140.532 91.02 140.896 91.332 140.896 91.93C140.896 92.45 140.688 93.204 140.272 94.192C139.44 96.168 138.166 97.364 136.736 97.364C135.202 97.364 134.37 96.454 134.188 94.842C132.914 96.61 131.276 97.442 129.638 97.442C126.804 97.442 124.958 95.596 124.958 92.476C124.958 87.198 128.104 83.272 131.77 83.272ZM127.116 92.476C127.116 94.426 128.13 95.674 129.82 95.674C132.446 95.674 134.682 91.982 134.682 88.108C134.682 86.262 133.616 85.04 131.926 85.04C129.56 85.04 127.116 88.212 127.116 92.476ZM146.528 79.45C147.438 79.45 147.594 79.606 147.594 80.178C147.594 80.516 147.49 81.088 147.256 81.946C146.892 83.246 146.866 83.506 146.866 83.61C146.866 83.792 146.944 83.87 147.282 83.87C147.672 83.87 148.556 83.766 149.466 83.766C150.116 83.766 150.376 83.974 150.376 84.416C150.376 85.092 150.064 85.43 149.05 85.43C148.556 85.43 147.88 85.352 147.256 85.352C146.944 85.352 146.684 85.378 146.554 85.534C146.398 85.742 146.346 86.184 146.19 87.068L145.28 91.826C145.124 92.58 144.916 93.75 144.916 94.296C144.916 95.102 145.358 95.596 146.268 95.596C147.204 95.596 148.01 94.764 148.582 92.554C148.894 91.306 149.18 91.02 149.804 91.02C150.402 91.02 150.584 91.254 150.584 91.774C150.584 92.424 150.376 93.23 149.96 94.244C149.154 96.22 147.698 97.442 145.904 97.442C144.136 97.442 142.862 96.454 142.862 94.686C142.862 94.452 142.966 93.438 143.382 91.202L144.266 86.548C144.344 86.158 144.396 85.82 144.396 85.69C144.396 85.508 144.396 85.378 144.162 85.378C143.928 85.378 143.304 85.456 142.862 85.456C142.446 85.456 142.134 85.17 142.134 84.78C142.134 84.13 142.498 83.74 143.33 83.74C143.668 83.74 144.084 83.818 144.318 83.818C144.76 83.818 144.994 83.636 145.176 82.362C145.41 80.646 145.566 79.45 146.528 79.45ZM158.739 83.272C161.469 83.272 163.133 84.962 163.133 87.068C163.133 88.316 162.249 89.434 160.897 89.434C160.169 89.434 159.571 88.914 159.571 88.082C159.571 87.354 160.221 86.782 160.975 86.782C161.105 86.782 161.261 86.756 161.261 86.626C161.261 86.028 160.585 85.04 158.791 85.04C156.139 85.04 154.007 88.16 154.007 91.774C154.007 94.192 155.255 95.674 157.413 95.674C159.077 95.674 160.377 94.504 161.131 92.84C161.417 92.19 161.651 92.086 162.015 92.086C162.535 92.086 162.899 92.32 162.899 92.866C162.899 94.634 160.195 97.442 157.283 97.442C153.903 97.442 151.719 95.258 151.719 91.67C151.719 87.64 154.423 83.272 158.739 83.272ZM165.796 78.93C166.03 78.93 166.706 79.086 167.226 79.086C168.266 79.086 168.838 78.956 169.176 78.956C169.488 78.956 169.8 79.008 169.8 79.32C169.8 79.606 169.67 79.944 169.566 80.49L168.526 85.768C170.06 84.026 171.438 83.272 173.18 83.272C175.546 83.272 176.846 84.39 176.846 86.392C176.846 87.042 176.586 88.29 176.092 90.188C175.572 92.086 175.312 93.412 175.312 94.166C175.312 95.076 175.65 95.492 176.274 95.492C177.106 95.492 177.73 94.218 178.198 92.658C178.406 91.982 178.536 91.02 179.42 91.02C179.81 91.02 180.174 91.254 180.174 91.774C180.174 92.32 179.966 93.1 179.602 94.062C178.848 95.96 177.652 97.364 176.092 97.364C174.324 97.364 173.31 96.22 173.31 94.322C173.31 93.412 173.544 92.06 174.012 90.292C174.454 88.55 174.688 87.354 174.688 86.704C174.688 85.69 173.934 85.144 172.66 85.144C171.646 85.144 170.58 85.768 169.592 86.886C168.89 87.692 168.318 88.654 167.902 89.876C167.122 92.19 166.81 94.738 166.706 95.388C166.446 97.026 166.264 97.364 165.25 97.364C164.756 97.364 164.392 97.078 164.392 96.636C164.392 96.09 165.042 94.062 165.77 89.85C166.134 87.744 166.758 84.572 167.122 82.752C167.226 82.206 167.304 81.764 167.304 81.322C167.304 80.724 166.914 80.594 166.472 80.594C166.082 80.594 165.692 80.698 165.458 80.698C165.068 80.698 164.704 80.438 164.704 79.996C164.704 79.45 165.146 78.93 165.796 78.93ZM188.297 83.272C191.027 83.272 192.561 84.468 192.561 86.47C192.561 89.642 188.531 91.566 184.293 91.566C183.409 91.566 183.383 91.592 183.383 92.528C183.383 94.27 184.657 95.674 186.763 95.674C188.401 95.674 190.065 94.4 191.053 92.918C191.677 91.982 191.859 91.956 192.145 91.956C192.613 91.956 193.107 92.216 193.107 92.762C193.107 93.204 192.743 93.828 192.067 94.66C190.715 96.272 188.609 97.442 186.425 97.442C183.331 97.442 181.225 95.232 181.225 91.8C181.225 86.912 184.917 83.272 188.297 83.272ZM183.799 89.486C183.799 89.798 183.877 89.798 184.267 89.798C187.517 89.798 190.403 88.498 190.403 86.574C190.403 85.664 189.753 85.04 188.375 85.04C187.647 85.04 186.919 85.274 186.243 85.768C184.969 86.678 183.799 88.55 183.799 89.486ZM203.818 78.93C204.052 78.93 204.676 79.086 205.196 79.086C206.236 79.086 206.86 78.956 207.172 78.956C207.484 78.956 207.77 79.008 207.77 79.32C207.77 79.658 207.64 80.074 207.562 80.464L207.224 82.31C206.574 85.898 205.118 91.514 205.118 93.854C205.118 94.842 205.404 95.492 206.028 95.492C206.288 95.492 206.912 95.414 207.51 94.14C207.718 93.724 207.978 92.97 208.108 92.502C208.368 91.566 208.576 91.02 209.174 91.02C209.694 91.02 210.058 91.332 210.058 91.852C210.058 92.346 209.85 93.152 209.408 94.166C208.576 96.142 207.302 97.364 205.742 97.364C204.312 97.364 203.532 96.48 203.428 94.686C202.05 96.792 200.256 97.442 198.748 97.442C197.682 97.442 196.564 97.104 195.758 96.428C194.718 95.57 194.172 94.27 194.172 92.034C194.172 87.354 197.318 83.272 200.802 83.272C202.544 83.272 203.896 83.896 204.65 85.144L205.118 82.674C205.248 82.024 205.3 81.582 205.3 81.322C205.3 80.776 204.988 80.594 204.494 80.594C204.156 80.594 203.792 80.698 203.506 80.698C203.116 80.698 202.726 80.438 202.726 79.996C202.726 79.45 203.168 78.93 203.818 78.93ZM196.33 92.398C196.33 94.634 197.344 95.674 198.878 95.674C201.894 95.674 203.896 91.462 203.896 88.264C203.896 86.262 202.804 85.04 201.166 85.04C199.944 85.04 198.592 85.872 197.734 87.302C196.85 88.758 196.33 90.058 196.33 92.398ZM218.128 78.774C218.83 78.774 219.272 78.982 219.272 79.528C219.272 79.71 219.22 80.074 219.09 80.672L216.698 91.566C216.49 92.528 216.074 92.762 215.528 92.762C215.008 92.762 214.774 92.502 214.774 92.112C214.774 91.93 215.086 90.344 215.216 89.616L216.958 79.866C217.088 79.164 217.478 78.774 218.128 78.774ZM215.034 94.27C215.944 94.27 216.516 94.816 216.516 95.674C216.516 96.61 215.606 97.442 214.67 97.442C213.786 97.442 213.214 96.766 213.214 96.012C213.214 95.154 214.124 94.27 215.034 94.27Z" fill="black"/>
</svg>
