<svg width="66" height="66" viewBox="0 0 66 66" fill="none" xmlns="http://www.w3.org/2000/svg">
<rect width="66" height="66" rx="33" fill="#E3B039"/>
<path d="M41.7915 21H23.5709C21.0462 21 19 23.0462 19 25.5709V39.1764C19 41.7011 21.0462 43.7473 23.5709 43.7473H27.0504L32.6822 51L38.314 43.7473H41.7935C44.3181 43.7473 46.3644 41.7011 46.3644 39.1764V25.5709C46.3644 23.0462 44.3181 21 41.7935 21H41.7915Z" fill="#F8F8F0"/>
<path d="M35.9486 26.1133C33.7247 26.0745 32.6572 28.697 32.522 29.0225C32.3974 28.6936 31.4225 26.0373 29.1985 26.0011C26.81 25.9605 25.0549 27.0474 25.0006 30.1387C24.9312 34.2348 30.5952 37.1198 32.3761 39C34.133 37.1354 39.9277 34.4878 39.9988 30.389C40.0513 27.2977 38.3362 26.1539 35.9477 26.1142L35.9486 26.1133Z" fill="#E3B039"/>
</svg>
