<svg width="106" height="107" viewBox="0 0 106 107" fill="none" xmlns="http://www.w3.org/2000/svg">
<path d="M24.6215 1.896C26.2055 1.896 27.2935 2.536 27.6135 3.928C27.8215 2.6 27.7575 1.96 28.1575 1.96C28.3015 1.96 28.3335 2.104 28.3335 2.232C28.3335 2.472 28.0455 3.144 27.7735 4.728C27.6295 5.544 27.5655 5.992 27.5495 6.136C27.5175 6.44 27.4215 6.52 27.2455 6.52C27.0695 6.52 27.0695 6.376 27.0695 6.248C27.0695 6.12 27.2935 5.416 27.2935 4.872C27.2935 4.008 27.1815 3.752 27.0215 3.448C26.6695 2.76 25.7575 2.28 24.5895 2.28C22.5735 2.28 21.3415 3.656 21.3415 4.952C21.3415 5.656 21.5655 5.944 21.9015 6.248C22.4935 6.792 24.4295 7.208 25.5655 7.448C26.7175 7.688 27.3255 8.536 27.3255 9.624C27.3255 11.656 25.5655 13.272 23.2295 13.272C21.4375 13.272 19.9815 12.488 19.7255 11.08C19.6935 11.256 19.6775 11.416 19.6615 11.56C19.4695 12.872 19.4375 13.096 19.1335 13.096C19.0215 13.096 18.9575 12.984 18.9575 12.872C18.9735 12.36 19.4215 11.32 19.6295 9.752C19.8215 8.344 19.8535 8.2 20.1255 8.2C20.2375 8.2 20.3175 8.248 20.3175 8.408C20.3175 8.6 19.9495 9.416 19.9495 10.216C19.9495 11.848 21.3095 12.888 23.2455 12.888C25.2775 12.888 26.8775 11.496 26.8775 9.624C26.8775 8.712 26.3015 8.04 25.3735 7.832C22.4455 7.176 20.8935 6.824 20.8935 4.952C20.8935 3.48 22.2375 1.896 24.6215 1.896ZM35.4318 13.16C34.6478 13.16 34.1838 12.584 34.1838 11.864C34.1838 11.176 34.3438 10.232 34.6798 9.048C35.0158 7.848 35.1758 7.048 35.1758 6.616C35.1758 5.688 34.5198 5.16 33.6238 5.16C31.6558 5.16 30.1038 6.888 29.4478 11.352C29.3038 12.36 29.2238 12.76 29.1438 12.952C29.0798 13.096 28.9838 13.112 28.8558 13.112C28.7438 13.112 28.6798 13.016 28.6798 12.92C28.6798 12.84 28.8398 12.232 29.3518 9.592L30.5358 3.544C30.5998 3.224 30.6638 2.792 30.6638 2.6C30.6638 2.28 30.4078 2.232 30.0718 2.232C29.7678 2.232 29.3838 2.296 29.1758 2.296C29.0478 2.296 28.9518 2.264 28.9518 2.152C28.9518 1.976 29.2078 1.912 29.4478 1.912C29.7678 1.912 30.1838 1.928 30.2638 1.928C30.5038 1.928 30.8238 1.896 31.0318 1.896C31.2078 1.896 31.2238 2.056 31.2238 2.12C31.2238 2.312 31.0798 2.792 30.9838 3.272L30.1518 7.56C31.0958 5.64 32.1838 4.824 33.6878 4.824C34.8078 4.824 35.6238 5.464 35.6238 6.584C35.6238 7.176 35.4158 7.976 35.1118 9.128C34.7758 10.376 34.6158 11.16 34.6158 11.656C34.6158 12.424 34.9198 12.84 35.4478 12.84C36.1198 12.84 36.5198 12.136 36.7918 11.448C36.9998 10.936 37.1918 10.168 37.1918 10.2C37.2398 10.04 37.2878 9.992 37.3678 9.992C37.4958 9.992 37.5438 10.072 37.5438 10.152C37.5438 10.424 37.4478 10.856 37.2238 11.4C36.7918 12.456 36.1358 13.16 35.4318 13.16ZM42.7003 4.824C44.2843 4.824 45.6123 5.96 45.6123 8.104C45.6123 10.984 43.6923 13.224 41.2923 13.224C39.5003 13.224 38.3803 11.944 38.3803 9.912C38.3803 7.224 40.3323 4.824 42.7003 4.824ZM38.8123 10.04C38.8123 11.992 40.0123 12.888 41.3243 12.888C43.8523 12.888 45.1803 10.056 45.1803 8.088C45.1803 6.216 44.1883 5.16 42.6523 5.16C40.4763 5.16 38.8123 7.496 38.8123 10.04ZM57.0805 4.648C57.3685 4.648 57.6885 4.76 58.0085 5C58.6485 5.464 58.8885 6.232 58.8885 7.624C58.8885 8.344 58.6805 9.224 58.2645 10.168C57.4485 12.04 56.1205 13.224 54.6485 13.224C53.2565 13.224 52.4565 12.552 52.4565 11.288C52.4565 11.016 52.4725 10.728 52.5205 10.456C51.8805 12.216 50.5685 13.224 49.2245 13.224C48.1365 13.224 47.4165 12.456 47.4165 11.592C47.4165 11.24 47.4485 10.904 47.5125 10.568L48.2965 6.552C48.3605 6.232 48.4085 5.912 48.4085 5.672C48.4085 5.4 48.1685 5.32 47.8645 5.32C47.5925 5.32 47.0485 5.4 46.9045 5.4C46.7605 5.4 46.6965 5.368 46.6965 5.256C46.6965 5.08 46.9685 5.016 47.2085 5.016C47.6885 5.016 47.8005 5.032 48.0085 5.032C48.2805 5.032 48.5845 5 48.7285 5C48.8565 5 48.9685 5.08 48.9685 5.224C48.9685 5.56 48.8245 5.896 48.6165 7L48.0085 10.152C47.9605 10.44 47.8645 10.904 47.8645 11.4C47.8645 12.312 48.4245 12.888 49.2405 12.888C50.2645 12.888 51.9925 12.296 52.7765 8.792C53.0325 7.672 53.2245 6.584 53.3205 5.928C53.4165 5.24 53.4965 4.936 53.7525 4.936C53.8805 4.936 53.9445 5.016 53.9445 5.144C53.9445 5.272 53.8485 5.736 53.5925 6.76C53.1445 8.52 52.8405 10.248 52.8405 11.288C52.8405 12.28 53.5445 12.888 54.6325 12.888C56.7605 12.888 58.4565 9.976 58.4565 7.288C58.4565 5.96 57.8485 5.112 57.1445 5.112C57.0005 5.112 56.8565 5.144 56.8565 5.256C56.8565 5.336 56.9525 5.464 56.9525 5.656C56.9525 5.864 56.7285 6.088 56.4245 6.088C56.0885 6.088 55.8965 5.896 55.8965 5.544C55.8965 5.192 56.3285 4.648 57.0805 4.648ZM76.5496 13.16C75.7816 13.16 75.3016 12.6 75.3016 11.592C75.3016 11.064 75.4616 10.2 75.7976 9.016C76.1176 7.848 76.2776 7.048 76.2776 6.584C76.2776 5.704 75.6056 5.16 74.7576 5.16C72.4216 5.16 71.1096 7.48 70.5496 11.624C70.3736 12.904 70.3416 13.112 70.0376 13.112C69.9096 13.112 69.8296 13.032 69.8296 12.904C69.8296 12.76 69.8936 12.568 69.9576 12.312C70.2136 11.304 71.0296 7.656 71.0296 6.824C71.0296 5.736 70.5176 5.16 69.4776 5.16C67.0936 5.16 65.9096 7.848 65.4296 11.08C65.3336 11.656 65.2376 12.296 65.1416 12.76C65.0936 13 64.9816 13.112 64.7736 13.112C64.6616 13.112 64.5816 13.032 64.5816 12.904C64.5816 12.664 64.8536 11.784 65.0936 10.552L65.8616 6.664C65.9416 6.264 65.9576 6.184 65.9576 5.976C65.9576 5.576 65.8616 5.336 65.5416 5.336C64.9816 5.336 64.5976 5.416 64.4536 5.416C64.3416 5.416 64.2296 5.4 64.2296 5.256C64.2296 5.08 64.4696 5 64.7576 5C64.9976 5 65.3336 5.032 65.6056 5.032C65.8616 5.032 66.1336 5 66.3096 5C66.4536 5 66.5016 5.08 66.5016 5.224C66.5016 5.352 66.2776 6.296 66.1176 7.08L65.9736 7.768C66.9336 5.704 67.9896 4.824 69.5096 4.824C70.6456 4.824 71.3976 5.48 71.3976 6.456C71.3976 6.952 71.2696 7.448 71.2056 7.752C72.1816 5.64 73.2216 4.824 74.7576 4.824C75.9096 4.824 76.7096 5.448 76.7096 6.552C76.7096 7.016 76.5496 7.832 76.2296 9.048C75.8936 10.28 75.7336 11.128 75.7336 11.592C75.7336 12.456 76.1016 12.84 76.5976 12.84C77.1576 12.84 77.6376 12.136 77.9096 11.448C78.1176 10.936 78.2936 10.168 78.2936 10.2C78.3416 10.04 78.3896 9.992 78.4696 9.992C78.5976 9.992 78.6456 10.072 78.6456 10.152C78.6456 10.424 78.5496 10.872 78.3256 11.416C77.8936 12.472 77.3016 13.16 76.5496 13.16ZM84.1468 4.824C85.4428 4.824 86.2908 5.496 86.2908 6.536C86.2908 7.992 84.3228 9.256 81.0268 9.256C80.6428 9.256 80.4348 9.224 80.2588 9.224C79.9548 9.224 79.9068 9.224 79.9068 10.008C79.9068 11.336 80.4188 12.888 82.4188 12.888C84.2908 12.888 85.4748 11.416 85.8268 10.232C85.8748 10.088 85.9228 10.024 86.0668 10.024C86.2108 10.024 86.2428 10.088 86.2428 10.2C86.2428 10.408 86.0668 10.872 85.6828 11.416C84.9148 12.504 83.7788 13.224 82.3868 13.224C80.5468 13.224 79.4588 12.088 79.4588 10.088C79.4588 7.384 81.5548 4.824 84.1468 4.824ZM80.0988 8.728C80.0988 8.888 80.0988 8.92 80.9628 8.92C84.2268 8.92 85.8428 7.752 85.8428 6.568C85.8428 5.72 85.2668 5.16 84.0988 5.16C82.8828 5.16 81.8428 5.8 81.1868 6.6C80.1948 7.8 80.0988 8.632 80.0988 8.728ZM10.9893 23.824C12.5733 23.824 13.9013 24.96 13.9013 27.104C13.9013 29.984 11.9813 32.224 9.58133 32.224C7.78933 32.224 6.66933 30.944 6.66933 28.912C6.66933 26.224 8.62133 23.824 10.9893 23.824ZM7.10133 29.04C7.10133 30.992 8.30133 31.888 9.61333 31.888C12.1413 31.888 13.4693 29.056 13.4693 27.088C13.4693 25.216 12.4773 24.16 10.9413 24.16C8.76533 24.16 7.10133 26.496 7.10133 29.04ZM17.9578 21.024C18.0858 21.024 18.1338 21.072 18.1338 21.2C18.1338 21.6 17.6378 23.184 17.6378 23.808C17.6378 24.016 17.7978 24.064 18.0698 24.064C18.3738 24.064 18.9018 23.984 19.4138 23.984C19.7978 23.984 19.9258 24.032 19.9258 24.144C19.9258 24.32 19.7978 24.368 19.4618 24.368L17.8298 24.352C17.5258 24.352 17.4938 24.48 17.4298 24.848L16.6138 29.168C16.5018 29.776 16.4538 30.416 16.4538 30.672C16.4538 31.488 16.8378 31.888 17.5258 31.888C18.1178 31.888 19.1738 31.568 19.5898 29.376C19.7658 28.416 19.8298 28.4 19.9738 28.4C20.0858 28.4 20.1338 28.48 20.1338 28.592C20.1338 28.8 20.0698 29.088 19.9578 29.456C19.7018 30.32 19.2058 32.224 17.5258 32.224C16.5978 32.224 16.0058 31.664 16.0058 30.752C16.0058 30.304 16.0538 29.808 16.1498 29.344C16.4858 27.6 17.0458 24.832 17.0458 24.544C17.0458 24.368 16.9818 24.32 16.8698 24.32C16.7258 24.32 16.0698 24.336 15.6378 24.336C15.4618 24.336 15.3818 24.288 15.3818 24.176C15.3818 24.032 15.5578 24 15.9258 24H16.5018C17.0298 24 17.2378 23.952 17.4778 22.56L17.6858 21.328C17.7178 21.104 17.8138 21.024 17.9578 21.024ZM28.0802 32.16C27.2962 32.16 26.8322 31.584 26.8322 30.864C26.8322 30.176 26.9922 29.232 27.3282 28.048C27.6642 26.848 27.8242 26.048 27.8242 25.616C27.8242 24.688 27.1682 24.16 26.2722 24.16C24.3042 24.16 22.7522 25.888 22.0962 30.352C21.9522 31.36 21.8722 31.76 21.7922 31.952C21.7282 32.096 21.6322 32.112 21.5042 32.112C21.3922 32.112 21.3282 32.016 21.3282 31.92C21.3282 31.84 21.4882 31.232 22.0002 28.592L23.1842 22.544C23.2482 22.224 23.3122 21.792 23.3122 21.6C23.3122 21.28 23.0562 21.232 22.7202 21.232C22.4162 21.232 22.0322 21.296 21.8242 21.296C21.6962 21.296 21.6002 21.264 21.6002 21.152C21.6002 20.976 21.8562 20.912 22.0962 20.912C22.4162 20.912 22.8322 20.928 22.9122 20.928C23.1522 20.928 23.4722 20.896 23.6802 20.896C23.8562 20.896 23.8722 21.056 23.8722 21.12C23.8722 21.312 23.7282 21.792 23.6322 22.272L22.8002 26.56C23.7442 24.64 24.8322 23.824 26.3362 23.824C27.4562 23.824 28.2722 24.464 28.2722 25.584C28.2722 26.176 28.0642 26.976 27.7602 28.128C27.4242 29.376 27.2642 30.16 27.2642 30.656C27.2642 31.424 27.5682 31.84 28.0962 31.84C28.7682 31.84 29.1682 31.136 29.4402 30.448C29.6482 29.936 29.8402 29.168 29.8402 29.2C29.8882 29.04 29.9362 28.992 30.0162 28.992C30.1442 28.992 30.1922 29.072 30.1922 29.152C30.1922 29.424 30.0962 29.856 29.8722 30.4C29.4402 31.456 28.7842 32.16 28.0802 32.16ZM35.7327 23.824C37.0287 23.824 37.8767 24.496 37.8767 25.536C37.8767 26.992 35.9087 28.256 32.6127 28.256C32.2287 28.256 32.0207 28.224 31.8447 28.224C31.5407 28.224 31.4927 28.224 31.4927 29.008C31.4927 30.336 32.0047 31.888 34.0047 31.888C35.8767 31.888 37.0607 30.416 37.4127 29.232C37.4607 29.088 37.5087 29.024 37.6527 29.024C37.7967 29.024 37.8287 29.088 37.8287 29.2C37.8287 29.408 37.6527 29.872 37.2687 30.416C36.5007 31.504 35.3647 32.224 33.9727 32.224C32.1327 32.224 31.0447 31.088 31.0447 29.088C31.0447 26.384 33.1407 23.824 35.7327 23.824ZM31.6847 27.728C31.6847 27.888 31.6847 27.92 32.5487 27.92C35.8127 27.92 37.4287 26.752 37.4287 25.568C37.4287 24.72 36.8527 24.16 35.6847 24.16C34.4687 24.16 33.4287 24.8 32.7727 25.6C31.7807 26.8 31.6847 27.632 31.6847 27.728ZM44.3403 23.824C45.0283 23.824 45.5083 24.192 45.5083 24.816C45.5083 25.264 45.1563 25.664 44.7563 25.664C44.5163 25.664 44.3243 25.44 44.3243 25.232C44.3243 24.928 44.5483 24.736 44.7563 24.704C44.8843 24.688 44.9483 24.672 44.9483 24.576C44.9483 24.368 44.6283 24.16 44.2443 24.16C43.3003 24.16 42.3563 24.704 41.7483 25.728C41.1083 26.816 40.6283 28.144 40.2763 30.944C40.1323 32.112 39.9723 32.112 39.7963 32.112C39.6843 32.112 39.5883 32.032 39.5883 31.92C39.5883 31.84 39.6363 31.664 39.7163 31.296C40.1803 29.12 40.6123 26.752 40.8843 25.408C40.9803 24.96 40.9963 24.816 40.9963 24.672C40.9963 24.4 40.7403 24.32 40.4363 24.32C40.1163 24.32 39.7003 24.4 39.4603 24.4C39.3163 24.4 39.2683 24.368 39.2683 24.256C39.2683 24.096 39.4763 24.016 39.8763 24.016H40.6923C40.7723 24.016 41.0123 24 41.3163 24C41.4603 24 41.5563 24.048 41.5563 24.176C41.5563 24.432 41.3803 24.72 41.0283 26.544C41.7963 24.704 42.9163 23.824 44.3403 23.824ZM51.3333 21.056C51.5093 21.056 52.0853 21.168 52.9653 21.168C53.8453 21.168 54.8213 21.056 55.7013 21.056C57.1413 21.056 57.7173 21.296 58.3253 21.728C59.2533 22.384 59.8293 23.68 59.8293 25.664C59.8293 26.4 59.7173 27.12 59.4453 27.952C58.6613 30.352 57.1413 32.048 54.1173 32.048C52.7573 32.048 51.5093 31.968 50.8533 31.968C50.0693 31.968 49.5253 32.048 49.3493 32.048C49.1573 32.048 48.9973 32.032 48.9973 31.84C48.9973 31.728 49.2053 31.616 49.3973 31.616C49.6213 31.616 49.8933 31.632 50.1173 31.632C50.7093 31.632 50.8533 30.864 51.0613 29.824L52.0853 24.56C52.3253 23.344 52.5333 22.304 52.5333 21.856C52.5333 21.648 52.3733 21.472 52.0693 21.472C51.7493 21.472 51.3333 21.504 51.2053 21.504C51.0133 21.504 50.8853 21.472 50.8853 21.296C50.8853 21.152 51.1253 21.056 51.3333 21.056ZM54.1333 31.664C55.4293 31.664 56.3093 31.36 57.0773 30.8C58.6133 29.68 59.3813 27.232 59.3813 25.44C59.3813 24.176 59.0293 23.072 58.4053 22.4C57.7973 21.744 57.0453 21.44 55.4133 21.44C54.6933 21.44 54.1013 21.44 53.6693 21.536C53.2693 21.632 53.0933 21.856 53.0133 22.272C52.6933 23.856 52.1653 26.528 51.8933 27.824C51.6053 29.232 51.3493 30.992 51.3493 31.184C51.3493 31.584 52.0853 31.664 54.1333 31.664ZM62.0457 21.056C62.2377 21.056 62.7977 21.152 63.7577 21.152C64.7337 21.152 65.3897 21.056 65.5337 21.056C65.7097 21.056 65.8537 21.104 65.8537 21.28C65.8537 21.392 65.6617 21.504 65.4697 21.504C65.3737 21.504 64.7657 21.488 64.6057 21.488C63.9977 21.488 63.7737 21.968 63.5017 23.344L62.5897 28.048C62.3817 29.12 62.3497 29.408 62.3497 29.728C62.3497 31.136 63.4217 31.888 65.2937 31.888C66.4457 31.888 67.6137 31.408 68.3497 30.64C68.7177 30.256 68.9737 29.696 69.1337 28.976C69.2937 28.288 69.5977 26.848 69.9977 24.752C70.0777 24.336 70.4617 22.512 70.4617 21.856C70.4617 21.6 70.2537 21.472 69.9177 21.472C69.4857 21.472 69.0537 21.504 68.9257 21.504C68.7497 21.504 68.6057 21.472 68.6057 21.28C68.6057 21.152 68.8457 21.056 69.0537 21.056C69.1977 21.056 69.8377 21.152 70.9097 21.152C71.7417 21.152 72.2697 21.056 72.4617 21.056C72.6377 21.056 72.8137 21.104 72.8137 21.28C72.8137 21.392 72.6057 21.504 72.4137 21.504C72.3177 21.504 71.8857 21.488 71.7097 21.488C71.2297 21.488 71.0057 21.792 70.7177 23.328L69.7737 28.288C69.5977 29.2 69.4377 29.76 69.2297 30.16C68.5577 31.456 67.0857 32.272 65.2457 32.272C63.1497 32.272 61.8537 31.312 61.8537 29.776C61.8537 29.6 61.8857 29.312 61.9657 28.896L62.7017 25.152C62.9257 23.984 63.2297 22.448 63.2297 21.856C63.2297 21.616 63.0697 21.472 62.7977 21.472C62.4617 21.472 62.0937 21.504 61.9177 21.504C61.7417 21.504 61.6137 21.472 61.6137 21.28C61.6137 21.152 61.8377 21.056 62.0457 21.056ZM77.9598 20.896C79.8958 20.896 81.0158 21.632 81.3198 23.312C81.5438 21.696 81.4798 21.072 81.8478 21.072C81.9758 21.072 82.0558 21.168 82.0558 21.296C82.0558 21.488 82.0238 21.712 81.9598 21.92C81.4798 23.472 81.3838 24.496 81.3198 25.152C81.2718 25.584 81.2558 25.792 80.9998 25.792C80.8558 25.792 80.7758 25.68 80.7758 25.552C80.7758 25.36 81.0478 24.512 81.0478 23.808C81.0478 22.432 80.0398 21.28 77.9278 21.28C76.7758 21.28 75.7198 21.872 74.9038 22.816C73.7678 24.128 73.0638 25.92 73.0638 28.16C73.0638 30.064 74.4558 31.888 76.5838 31.888C79.2718 31.888 80.1518 30.4 80.5998 28.928C80.7758 28.336 80.7758 28.144 81.0478 28.144C81.1598 28.144 81.2398 28.224 81.2398 28.336C81.2398 28.768 81.0478 29.392 80.6478 30.112C79.8638 31.536 78.5358 32.272 76.6638 32.272C74.1678 32.272 72.5518 30.544 72.5518 27.792C72.5518 25.696 73.3678 23.744 74.5998 22.464C75.5438 21.488 76.7438 20.896 77.9598 20.896ZM84.3021 21.056C84.4461 21.056 85.0701 21.152 85.9661 21.152C86.8621 21.152 87.4061 21.056 87.5821 21.056C87.7741 21.056 87.9341 21.104 87.9341 21.28C87.9341 21.392 87.7261 21.504 87.5501 21.504C87.3101 21.504 87.0061 21.488 86.7181 21.488C86.1101 21.488 85.9661 22.272 85.8221 22.992L85.0381 27.008L90.8461 22.592C91.8381 21.84 91.8541 21.76 91.8541 21.648C91.8541 21.504 91.8061 21.456 91.6141 21.456C91.4221 21.456 91.0701 21.504 90.5581 21.504C90.3661 21.504 90.2061 21.44 90.2061 21.328C90.2061 21.184 90.3501 21.056 90.5261 21.056C90.7021 21.056 91.4381 21.168 92.5101 21.168C93.1021 21.168 93.6141 21.056 93.9501 21.056C94.1261 21.056 94.2541 21.072 94.2541 21.248C94.2541 21.44 94.0141 21.504 93.7741 21.504C93.7101 21.504 93.4541 21.472 93.2781 21.472C93.0701 21.472 92.8461 21.568 92.6221 21.728L88.9581 24.496C88.6861 24.704 88.3821 24.944 88.3821 25.056C88.3821 25.152 88.4141 25.28 88.4781 25.424L90.4141 30.096C91.0221 31.584 91.2301 31.616 91.6941 31.632C91.8861 31.632 92.1101 31.616 92.3341 31.616C92.5421 31.616 92.7021 31.664 92.7021 31.84C92.7021 31.984 92.5421 32.048 92.3341 32.048C91.8221 32.048 91.1501 31.968 90.5261 31.968C89.9341 31.968 89.3421 32.048 88.9741 32.048C88.7661 32.048 88.6061 32.048 88.6061 31.856C88.6061 31.728 88.7981 31.616 88.9901 31.616C89.2461 31.616 89.5021 31.632 89.7581 31.632C90.1421 31.632 90.3821 31.52 90.3821 31.312C90.3821 31.168 90.2541 30.992 89.7421 29.712L88.1421 25.76C88.0941 25.648 87.9981 25.36 87.8861 25.36C87.8061 25.36 87.7581 25.408 87.5821 25.552L84.9261 27.584L84.4941 29.872C84.3821 30.48 84.3181 31.104 84.3181 31.264C84.3181 31.504 84.4941 31.648 84.8141 31.648C85.1181 31.648 85.5981 31.616 85.7421 31.616C85.9181 31.616 86.0461 31.648 86.0461 31.84C86.0461 31.968 85.8061 32.048 85.6141 32.048C85.4381 32.048 84.8141 31.968 83.8541 31.968C83.0381 31.968 82.5101 32.048 82.3181 32.048C82.1261 32.048 81.9661 32.032 81.9661 31.84C81.9661 31.728 82.1741 31.616 82.3661 31.616C82.5901 31.616 82.8621 31.632 83.0861 31.632C83.6781 31.632 83.8221 30.848 84.0141 29.904L85.0541 24.56C85.2941 23.344 85.5021 22.304 85.5021 21.856C85.5021 21.616 85.3261 21.472 85.0541 21.472C84.7341 21.472 84.3021 21.504 84.1741 21.504C83.9821 21.504 83.8701 21.472 83.8701 21.28C83.8701 21.152 84.0941 21.056 84.3021 21.056ZM97.8305 20.896C97.9745 20.896 98.0705 20.976 98.0705 21.12C98.0545 21.52 97.9425 21.728 97.4945 24.016L96.8865 27.104C96.4865 29.12 96.5185 29.952 96.1345 29.952C96.0545 29.952 95.9265 29.856 95.9265 29.728C95.9265 29.536 96.2465 27.776 96.4225 26.944L96.9665 24.304C97.4305 22.016 97.3665 20.896 97.8305 20.896ZM95.8785 30.816C96.3105 30.816 96.5665 31.024 96.5665 31.456C96.5665 31.856 96.1985 32.256 95.6705 32.256C95.3025 32.256 95.0465 32 95.0465 31.632C95.0465 31.168 95.4465 30.816 95.8785 30.816Z" fill="black"/>
<g clip-path="url(#clip0_16_805)">
<path d="M50.8065 81.6577L42.8283 73.6795C42.068 72.9193 42.0675 71.6821 42.8278 70.9218C43.1958 70.5533 43.6854 70.3506 44.2064 70.3506C44.7274 70.3506 45.2171 70.5533 45.5845 70.9218L53.5632 78.9005L61.5414 70.9218C61.9094 70.5533 62.399 70.3506 62.92 70.3506C63.4411 70.3506 63.9307 70.5533 64.2992 70.9218C65.0584 71.6821 65.0584 72.9188 64.2992 73.6785L56.3204 81.6577L64.2992 89.6364C64.6671 90.0044 64.8704 90.494 64.8704 91.015C64.8704 91.5361 64.6676 92.0252 64.2992 92.3931C63.9312 92.7611 63.4416 92.9644 62.921 92.9644C62.4005 92.9644 61.9114 92.7616 61.5419 92.3931L53.5637 84.4144L45.585 92.3931C45.2171 92.7611 44.7274 92.9644 44.2069 92.9644C43.6864 92.9644 43.1953 92.7616 42.8283 92.3931C42.4603 92.0252 42.2571 91.5356 42.2571 91.0145C42.2571 90.4935 42.4598 90.0044 42.8283 89.6364L50.807 81.6577H50.8065Z" fill="#CC2D28"/>
<path d="M53.5632 56.3157C67.5368 56.3157 78.9053 67.6841 78.9053 81.6578C78.9053 95.6314 67.5368 107 53.5632 107C39.5895 107 28.2211 95.6314 28.2211 81.6578C28.2211 67.6841 39.5895 56.3157 53.5632 56.3157ZM53.5632 103.101C65.3873 103.101 75.0066 93.4819 75.0066 81.6578C75.0066 69.8337 65.3873 60.2143 53.5632 60.2143C41.739 60.2143 32.1197 69.8337 32.1197 81.6578C32.1197 93.4819 41.739 103.101 53.5632 103.101Z" fill="#CC2D28"/>
</g>
<defs>
<clipPath id="clip0_16_805">
<rect width="50.6842" height="50.6842" fill="white" transform="matrix(-1 0 0 1 78.9053 56.3157)"/>
</clipPath>
</defs>
</svg>
