<svg width="103" height="95" viewBox="0 0 103 95" fill="none" xmlns="http://www.w3.org/2000/svg">
<path d="M23.1216 1.896C24.7056 1.896 25.7936 2.536 26.1136 3.928C26.3216 2.6 26.2576 1.96 26.6576 1.96C26.8016 1.96 26.8336 2.104 26.8336 2.232C26.8336 2.472 26.5456 3.144 26.2736 4.728C26.1296 5.544 26.0656 5.992 26.0496 6.136C26.0176 6.44 25.9216 6.52 25.7456 6.52C25.5696 6.52 25.5696 6.376 25.5696 6.248C25.5696 6.12 25.7936 5.416 25.7936 4.872C25.7936 4.008 25.6816 3.752 25.5216 3.448C25.1696 2.76 24.2576 2.28 23.0896 2.28C21.0736 2.28 19.8416 3.656 19.8416 4.952C19.8416 5.656 20.0656 5.944 20.4016 6.248C20.9936 6.792 22.9296 7.208 24.0656 7.448C25.2176 7.688 25.8256 8.536 25.8256 9.624C25.8256 11.656 24.0656 13.272 21.7296 13.272C19.9376 13.272 18.4816 12.488 18.2256 11.08C18.1936 11.256 18.1776 11.416 18.1616 11.56C17.9696 12.872 17.9376 13.096 17.6336 13.096C17.5216 13.096 17.4576 12.984 17.4576 12.872C17.4736 12.36 17.9216 11.32 18.1296 9.752C18.3216 8.344 18.3536 8.2 18.6256 8.2C18.7376 8.2 18.8176 8.248 18.8176 8.408C18.8176 8.6 18.4496 9.416 18.4496 10.216C18.4496 11.848 19.8096 12.888 21.7456 12.888C23.7776 12.888 25.3776 11.496 25.3776 9.624C25.3776 8.712 24.8016 8.04 23.8736 7.832C20.9456 7.176 19.3936 6.824 19.3936 4.952C19.3936 3.48 20.7376 1.896 23.1216 1.896ZM33.9318 13.16C33.1478 13.16 32.6838 12.584 32.6838 11.864C32.6838 11.176 32.8438 10.232 33.1798 9.048C33.5158 7.848 33.6758 7.048 33.6758 6.616C33.6758 5.688 33.0198 5.16 32.1238 5.16C30.1558 5.16 28.6038 6.888 27.9478 11.352C27.8038 12.36 27.7238 12.76 27.6438 12.952C27.5798 13.096 27.4838 13.112 27.3558 13.112C27.2438 13.112 27.1798 13.016 27.1798 12.92C27.1798 12.84 27.3398 12.232 27.8518 9.592L29.0358 3.544C29.0998 3.224 29.1638 2.792 29.1638 2.6C29.1638 2.28 28.9078 2.232 28.5718 2.232C28.2678 2.232 27.8838 2.296 27.6758 2.296C27.5478 2.296 27.4518 2.264 27.4518 2.152C27.4518 1.976 27.7078 1.912 27.9478 1.912C28.2678 1.912 28.6838 1.928 28.7638 1.928C29.0038 1.928 29.3238 1.896 29.5318 1.896C29.7078 1.896 29.7238 2.056 29.7238 2.12C29.7238 2.312 29.5798 2.792 29.4838 3.272L28.6518 7.56C29.5958 5.64 30.6838 4.824 32.1878 4.824C33.3078 4.824 34.1238 5.464 34.1238 6.584C34.1238 7.176 33.9158 7.976 33.6118 9.128C33.2758 10.376 33.1158 11.16 33.1158 11.656C33.1158 12.424 33.4198 12.84 33.9478 12.84C34.6198 12.84 35.0198 12.136 35.2918 11.448C35.4998 10.936 35.6918 10.168 35.6918 10.2C35.7398 10.04 35.7878 9.992 35.8678 9.992C35.9958 9.992 36.0438 10.072 36.0438 10.152C36.0438 10.424 35.9478 10.856 35.7238 11.4C35.2918 12.456 34.6358 13.16 33.9318 13.16ZM41.2003 4.824C42.7843 4.824 44.1123 5.96 44.1123 8.104C44.1123 10.984 42.1923 13.224 39.7923 13.224C38.0003 13.224 36.8803 11.944 36.8803 9.912C36.8803 7.224 38.8323 4.824 41.2003 4.824ZM37.3123 10.04C37.3123 11.992 38.5123 12.888 39.8243 12.888C42.3523 12.888 43.6803 10.056 43.6803 8.088C43.6803 6.216 42.6883 5.16 41.1523 5.16C38.9763 5.16 37.3123 7.496 37.3123 10.04ZM55.5806 4.648C55.8686 4.648 56.1886 4.76 56.5086 5C57.1486 5.464 57.3886 6.232 57.3886 7.624C57.3886 8.344 57.1806 9.224 56.7646 10.168C55.9486 12.04 54.6206 13.224 53.1486 13.224C51.7566 13.224 50.9566 12.552 50.9566 11.288C50.9566 11.016 50.9726 10.728 51.0206 10.456C50.3806 12.216 49.0686 13.224 47.7246 13.224C46.6366 13.224 45.9166 12.456 45.9166 11.592C45.9166 11.24 45.9486 10.904 46.0126 10.568L46.7966 6.552C46.8606 6.232 46.9086 5.912 46.9086 5.672C46.9086 5.4 46.6686 5.32 46.3646 5.32C46.0926 5.32 45.5486 5.4 45.4046 5.4C45.2606 5.4 45.1966 5.368 45.1966 5.256C45.1966 5.08 45.4686 5.016 45.7086 5.016C46.1886 5.016 46.3006 5.032 46.5086 5.032C46.7806 5.032 47.0846 5 47.2286 5C47.3566 5 47.4686 5.08 47.4686 5.224C47.4686 5.56 47.3246 5.896 47.1166 7L46.5086 10.152C46.4606 10.44 46.3646 10.904 46.3646 11.4C46.3646 12.312 46.9246 12.888 47.7406 12.888C48.7646 12.888 50.4926 12.296 51.2766 8.792C51.5326 7.672 51.7246 6.584 51.8206 5.928C51.9166 5.24 51.9966 4.936 52.2526 4.936C52.3806 4.936 52.4446 5.016 52.4446 5.144C52.4446 5.272 52.3486 5.736 52.0926 6.76C51.6446 8.52 51.3406 10.248 51.3406 11.288C51.3406 12.28 52.0446 12.888 53.1326 12.888C55.2606 12.888 56.9566 9.976 56.9566 7.288C56.9566 5.96 56.3486 5.112 55.6446 5.112C55.5006 5.112 55.3566 5.144 55.3566 5.256C55.3566 5.336 55.4526 5.464 55.4526 5.656C55.4526 5.864 55.2286 6.088 54.9246 6.088C54.5886 6.088 54.3966 5.896 54.3966 5.544C54.3966 5.192 54.8286 4.648 55.5806 4.648ZM75.0497 13.16C74.2817 13.16 73.8017 12.6 73.8017 11.592C73.8017 11.064 73.9617 10.2 74.2977 9.016C74.6177 7.848 74.7777 7.048 74.7777 6.584C74.7777 5.704 74.1057 5.16 73.2577 5.16C70.9217 5.16 69.6097 7.48 69.0497 11.624C68.8737 12.904 68.8417 13.112 68.5377 13.112C68.4097 13.112 68.3297 13.032 68.3297 12.904C68.3297 12.76 68.3937 12.568 68.4577 12.312C68.7137 11.304 69.5297 7.656 69.5297 6.824C69.5297 5.736 69.0177 5.16 67.9777 5.16C65.5937 5.16 64.4097 7.848 63.9297 11.08C63.8337 11.656 63.7377 12.296 63.6417 12.76C63.5937 13 63.4817 13.112 63.2737 13.112C63.1617 13.112 63.0817 13.032 63.0817 12.904C63.0817 12.664 63.3537 11.784 63.5937 10.552L64.3617 6.664C64.4417 6.264 64.4577 6.184 64.4577 5.976C64.4577 5.576 64.3617 5.336 64.0417 5.336C63.4817 5.336 63.0977 5.416 62.9537 5.416C62.8417 5.416 62.7297 5.4 62.7297 5.256C62.7297 5.08 62.9697 5 63.2577 5C63.4977 5 63.8337 5.032 64.1057 5.032C64.3617 5.032 64.6337 5 64.8097 5C64.9537 5 65.0017 5.08 65.0017 5.224C65.0017 5.352 64.7777 6.296 64.6177 7.08L64.4737 7.768C65.4337 5.704 66.4897 4.824 68.0097 4.824C69.1457 4.824 69.8977 5.48 69.8977 6.456C69.8977 6.952 69.7697 7.448 69.7057 7.752C70.6817 5.64 71.7217 4.824 73.2577 4.824C74.4097 4.824 75.2097 5.448 75.2097 6.552C75.2097 7.016 75.0497 7.832 74.7297 9.048C74.3937 10.28 74.2337 11.128 74.2337 11.592C74.2337 12.456 74.6017 12.84 75.0977 12.84C75.6577 12.84 76.1377 12.136 76.4097 11.448C76.6177 10.936 76.7937 10.168 76.7937 10.2C76.8417 10.04 76.8897 9.992 76.9697 9.992C77.0977 9.992 77.1457 10.072 77.1457 10.152C77.1457 10.424 77.0497 10.872 76.8257 11.416C76.3937 12.472 75.8017 13.16 75.0497 13.16ZM82.6468 4.824C83.9428 4.824 84.7908 5.496 84.7908 6.536C84.7908 7.992 82.8228 9.256 79.5268 9.256C79.1428 9.256 78.9348 9.224 78.7588 9.224C78.4548 9.224 78.4068 9.224 78.4068 10.008C78.4068 11.336 78.9188 12.888 80.9188 12.888C82.7908 12.888 83.9748 11.416 84.3268 10.232C84.3748 10.088 84.4228 10.024 84.5668 10.024C84.7108 10.024 84.7428 10.088 84.7428 10.2C84.7428 10.408 84.5668 10.872 84.1828 11.416C83.4148 12.504 82.2788 13.224 80.8868 13.224C79.0468 13.224 77.9588 12.088 77.9588 10.088C77.9588 7.384 80.0548 4.824 82.6468 4.824ZM78.5988 8.728C78.5988 8.888 78.5988 8.92 79.4628 8.92C82.7268 8.92 84.3428 7.752 84.3428 6.568C84.3428 5.72 83.7668 5.16 82.5988 5.16C81.3828 5.16 80.3428 5.8 79.6868 6.6C78.6948 7.8 78.5988 8.632 78.5988 8.728ZM5.32531 23.824C6.90931 23.824 8.23731 24.96 8.23731 27.104C8.23731 29.984 6.31731 32.224 3.91731 32.224C2.12531 32.224 1.00531 30.944 1.00531 28.912C1.00531 26.224 2.95731 23.824 5.32531 23.824ZM1.43731 29.04C1.43731 30.992 2.63731 31.888 3.94931 31.888C6.47731 31.888 7.80531 29.056 7.80531 27.088C7.80531 25.216 6.81331 24.16 5.27731 24.16C3.10131 24.16 1.43731 26.496 1.43731 29.04ZM12.2938 21.024C12.4218 21.024 12.4698 21.072 12.4698 21.2C12.4698 21.6 11.9738 23.184 11.9738 23.808C11.9738 24.016 12.1338 24.064 12.4058 24.064C12.7098 24.064 13.2378 23.984 13.7498 23.984C14.1338 23.984 14.2618 24.032 14.2618 24.144C14.2618 24.32 14.1338 24.368 13.7978 24.368L12.1658 24.352C11.8618 24.352 11.8298 24.48 11.7658 24.848L10.9498 29.168C10.8378 29.776 10.7898 30.416 10.7898 30.672C10.7898 31.488 11.1738 31.888 11.8618 31.888C12.4538 31.888 13.5098 31.568 13.9258 29.376C14.1018 28.416 14.1658 28.4 14.3098 28.4C14.4218 28.4 14.4698 28.48 14.4698 28.592C14.4698 28.8 14.4058 29.088 14.2938 29.456C14.0378 30.32 13.5418 32.224 11.8618 32.224C10.9338 32.224 10.3418 31.664 10.3418 30.752C10.3418 30.304 10.3898 29.808 10.4858 29.344C10.8218 27.6 11.3818 24.832 11.3818 24.544C11.3818 24.368 11.3178 24.32 11.2058 24.32C11.0618 24.32 10.4058 24.336 9.97381 24.336C9.79781 24.336 9.71781 24.288 9.71781 24.176C9.71781 24.032 9.89381 24 10.2618 24H10.8378C11.3658 24 11.5738 23.952 11.8138 22.56L12.0218 21.328C12.0538 21.104 12.1498 21.024 12.2938 21.024ZM22.4162 32.16C21.6322 32.16 21.1682 31.584 21.1682 30.864C21.1682 30.176 21.3282 29.232 21.6642 28.048C22.0002 26.848 22.1602 26.048 22.1602 25.616C22.1602 24.688 21.5042 24.16 20.6082 24.16C18.6402 24.16 17.0882 25.888 16.4322 30.352C16.2882 31.36 16.2082 31.76 16.1282 31.952C16.0642 32.096 15.9682 32.112 15.8402 32.112C15.7282 32.112 15.6642 32.016 15.6642 31.92C15.6642 31.84 15.8242 31.232 16.3362 28.592L17.5202 22.544C17.5842 22.224 17.6482 21.792 17.6482 21.6C17.6482 21.28 17.3922 21.232 17.0562 21.232C16.7522 21.232 16.3682 21.296 16.1602 21.296C16.0322 21.296 15.9362 21.264 15.9362 21.152C15.9362 20.976 16.1922 20.912 16.4322 20.912C16.7522 20.912 17.1682 20.928 17.2482 20.928C17.4882 20.928 17.8082 20.896 18.0162 20.896C18.1922 20.896 18.2082 21.056 18.2082 21.12C18.2082 21.312 18.0642 21.792 17.9682 22.272L17.1362 26.56C18.0802 24.64 19.1682 23.824 20.6722 23.824C21.7922 23.824 22.6082 24.464 22.6082 25.584C22.6082 26.176 22.4002 26.976 22.0962 28.128C21.7602 29.376 21.6002 30.16 21.6002 30.656C21.6002 31.424 21.9042 31.84 22.4322 31.84C23.1042 31.84 23.5042 31.136 23.7762 30.448C23.9842 29.936 24.1762 29.168 24.1762 29.2C24.2242 29.04 24.2722 28.992 24.3522 28.992C24.4802 28.992 24.5282 29.072 24.5282 29.152C24.5282 29.424 24.4322 29.856 24.2082 30.4C23.7762 31.456 23.1202 32.16 22.4162 32.16ZM30.0687 23.824C31.3647 23.824 32.2127 24.496 32.2127 25.536C32.2127 26.992 30.2447 28.256 26.9487 28.256C26.5647 28.256 26.3567 28.224 26.1807 28.224C25.8767 28.224 25.8287 28.224 25.8287 29.008C25.8287 30.336 26.3407 31.888 28.3407 31.888C30.2127 31.888 31.3967 30.416 31.7487 29.232C31.7967 29.088 31.8447 29.024 31.9887 29.024C32.1327 29.024 32.1647 29.088 32.1647 29.2C32.1647 29.408 31.9887 29.872 31.6047 30.416C30.8367 31.504 29.7007 32.224 28.3087 32.224C26.4687 32.224 25.3807 31.088 25.3807 29.088C25.3807 26.384 27.4767 23.824 30.0687 23.824ZM26.0207 27.728C26.0207 27.888 26.0207 27.92 26.8847 27.92C30.1487 27.92 31.7647 26.752 31.7647 25.568C31.7647 24.72 31.1887 24.16 30.0207 24.16C28.8047 24.16 27.7647 24.8 27.1087 25.6C26.1167 26.8 26.0207 27.632 26.0207 27.728ZM38.6763 23.824C39.3643 23.824 39.8443 24.192 39.8443 24.816C39.8443 25.264 39.4923 25.664 39.0923 25.664C38.8523 25.664 38.6603 25.44 38.6603 25.232C38.6603 24.928 38.8843 24.736 39.0923 24.704C39.2203 24.688 39.2843 24.672 39.2843 24.576C39.2843 24.368 38.9643 24.16 38.5803 24.16C37.6363 24.16 36.6923 24.704 36.0843 25.728C35.4443 26.816 34.9643 28.144 34.6123 30.944C34.4683 32.112 34.3083 32.112 34.1323 32.112C34.0203 32.112 33.9243 32.032 33.9243 31.92C33.9243 31.84 33.9723 31.664 34.0523 31.296C34.5163 29.12 34.9483 26.752 35.2203 25.408C35.3163 24.96 35.3323 24.816 35.3323 24.672C35.3323 24.4 35.0763 24.32 34.7723 24.32C34.4523 24.32 34.0363 24.4 33.7963 24.4C33.6523 24.4 33.6043 24.368 33.6043 24.256C33.6043 24.096 33.8123 24.016 34.2123 24.016H35.0283C35.1083 24.016 35.3483 24 35.6523 24C35.7963 24 35.8923 24.048 35.8923 24.176C35.8923 24.432 35.7163 24.72 35.3643 26.544C36.1323 24.704 37.2523 23.824 38.6763 23.824ZM49.7973 20.896C51.6853 20.896 52.7413 21.616 53.1413 23.216L53.1893 22.816C53.3493 21.456 53.3973 21.072 53.6693 21.072C53.7973 21.072 53.8453 21.232 53.8453 21.36C53.8453 21.6 53.5573 22.496 53.3653 23.44C53.2213 24.096 53.1893 24.688 53.1413 25.088C53.0773 25.568 52.9653 25.648 52.7893 25.648C52.6613 25.648 52.6293 25.52 52.6293 25.344C52.6293 25.152 52.8373 24.448 52.8373 24C52.8373 22.272 51.7973 21.28 49.8133 21.28C46.8693 21.28 44.7093 24.592 44.7093 27.632C44.7093 30.352 46.1173 31.888 48.4373 31.888C51.2693 31.888 52.2933 29.456 52.2933 27.984C52.2933 27.552 52.1173 27.44 51.6853 27.44C51.4453 27.44 51.1093 27.472 50.7733 27.472C50.5173 27.472 50.3573 27.456 50.3573 27.28C50.3573 27.104 50.5653 27.04 50.7413 27.04C50.9173 27.04 51.5253 27.136 52.6613 27.136C53.5733 27.136 54.1653 27.04 54.4053 27.04C54.6453 27.04 54.7573 27.088 54.7573 27.2C54.7573 27.392 54.5493 27.472 54.4213 27.472H53.6053C53.1253 27.472 52.8373 27.568 52.6133 28.784C52.5013 29.408 52.3413 30.416 52.2613 31.248C52.1973 31.92 52.1653 32.144 51.8933 32.144C51.7493 32.144 51.6693 32.032 51.6693 31.904C51.6693 31.776 51.9093 31.12 52.1013 30.096C51.2853 31.568 50.1333 32.272 48.4053 32.272C45.7973 32.272 44.2613 30.544 44.2613 27.712C44.2613 24.048 46.8053 20.896 49.7973 20.896ZM61.2634 20.896C63.7754 20.896 65.1834 22.544 65.1834 25.36C65.1834 27.184 64.5914 29.04 63.5834 30.32C62.5914 31.584 61.3914 32.272 59.6474 32.272C57.2954 32.272 55.8234 30.48 55.8234 27.856C55.8234 24.032 58.2714 20.896 61.2634 20.896ZM56.2554 27.92C56.2554 30.336 57.5674 31.888 59.6634 31.888C60.7514 31.888 61.6634 31.584 62.3834 30.976C63.8554 29.744 64.7514 27.408 64.7514 25.392C64.7514 22.768 63.5034 21.28 61.2794 21.28C58.4314 21.28 56.2554 24.464 56.2554 27.92ZM71.6697 20.896C74.1817 20.896 75.5897 22.544 75.5897 25.36C75.5897 27.184 74.9977 29.04 73.9897 30.32C72.9977 31.584 71.7977 32.272 70.0537 32.272C67.7017 32.272 66.2297 30.48 66.2297 27.856C66.2297 24.032 68.6777 20.896 71.6697 20.896ZM66.6617 27.92C66.6617 30.336 67.9737 31.888 70.0697 31.888C71.1577 31.888 72.0697 31.584 72.7897 30.976C74.2617 29.744 75.1577 27.408 75.1577 25.392C75.1577 22.768 73.9097 21.28 71.6857 21.28C68.8377 21.28 66.6617 24.464 66.6617 27.92ZM81.3559 20.896C82.9399 20.896 84.0279 21.536 84.3479 22.928C84.5559 21.6 84.4919 20.96 84.8919 20.96C85.0359 20.96 85.0679 21.104 85.0679 21.232C85.0679 21.472 84.7799 22.144 84.5079 23.728C84.3639 24.544 84.2999 24.992 84.2839 25.136C84.2519 25.44 84.1559 25.52 83.9799 25.52C83.8039 25.52 83.8039 25.376 83.8039 25.248C83.8039 25.12 84.0279 24.416 84.0279 23.872C84.0279 23.008 83.9159 22.752 83.7559 22.448C83.4039 21.76 82.4919 21.28 81.3239 21.28C79.3079 21.28 78.0759 22.656 78.0759 23.952C78.0759 24.656 78.2999 24.944 78.6359 25.248C79.2279 25.792 81.1639 26.208 82.2999 26.448C83.4519 26.688 84.0599 27.536 84.0599 28.624C84.0599 30.656 82.2999 32.272 79.9639 32.272C78.1719 32.272 76.7159 31.488 76.4599 30.08C76.4279 30.256 76.4119 30.416 76.3959 30.56C76.2039 31.872 76.1719 32.096 75.8679 32.096C75.7559 32.096 75.6919 31.984 75.6919 31.872C75.7079 31.36 76.1559 30.32 76.3639 28.752C76.5559 27.344 76.5879 27.2 76.8599 27.2C76.9719 27.2 77.0519 27.248 77.0519 27.408C77.0519 27.6 76.6839 28.416 76.6839 29.216C76.6839 30.848 78.0439 31.888 79.9799 31.888C82.0119 31.888 83.6119 30.496 83.6119 28.624C83.6119 27.712 83.0359 27.04 82.1079 26.832C79.1799 26.176 77.6279 25.824 77.6279 23.952C77.6279 22.48 78.9719 20.896 81.3559 20.896ZM86.9662 21.056C87.1102 21.056 87.6862 21.152 88.6942 21.152C90.5982 21.152 93.0622 21.056 94.7902 21.056C95.1902 21.056 95.3022 21.12 95.3022 21.36C95.3022 21.616 94.9982 22.544 94.8382 23.616C94.6782 24.656 94.6622 25.184 94.3582 25.184C94.2142 25.184 94.1822 25.008 94.1822 24.88C94.1822 24.48 94.7422 23.008 94.7422 21.984C94.7422 21.584 94.4062 21.488 93.3022 21.488H89.8302C88.8862 21.488 88.7582 21.584 88.5342 22.752L88.0542 25.216C88.0062 25.456 87.9582 25.712 87.9582 25.776C87.9582 26.064 88.1342 26.064 88.4382 26.064H90.5982C91.3662 26.064 91.7342 25.728 91.8462 24.72C91.9422 23.904 92.0222 23.648 92.2462 23.648C92.3902 23.648 92.4222 23.76 92.4222 23.888C92.4222 24.192 92.0862 24.864 91.9102 25.824C91.4622 28.24 91.7182 28.88 91.2382 28.88C91.0782 28.88 91.0782 28.736 91.0782 28.624C91.0782 28.352 91.3822 27.52 91.3822 27.072C91.3822 26.608 91.1902 26.432 90.3422 26.432H88.1822C87.9422 26.432 87.7982 26.576 87.7502 26.8C87.6222 27.408 87.2222 29.44 87.0942 30.176C86.9822 30.8 86.9182 31.136 86.9182 31.28C86.9182 31.536 87.0622 31.616 88.2942 31.616H91.5422C93.3182 31.616 93.4782 31.408 93.7982 29.36C94.0062 28.032 94.0862 27.968 94.2782 27.968C94.4222 27.968 94.4702 28.064 94.4702 28.192C94.4702 28.24 94.4382 28.368 94.3262 28.784C94.1982 29.264 93.7502 31.344 93.7342 31.536C93.7022 31.856 93.3822 32.048 92.9982 32.048C92.5342 32.048 90.2142 31.952 86.7102 31.952C85.5742 31.952 85.1902 32.048 84.9822 32.048C84.7902 32.048 84.6302 32.032 84.6302 31.84C84.6302 31.712 84.8222 31.616 85.0142 31.616C85.0942 31.616 85.4622 31.648 85.7342 31.648C86.2622 31.648 86.4382 31.136 86.6462 30.08L87.9582 23.312C88.1022 22.592 88.1662 22.112 88.1662 21.856C88.1662 21.616 87.9902 21.472 87.7182 21.472C87.3502 21.472 86.9182 21.504 86.8382 21.504C86.6622 21.504 86.5342 21.472 86.5342 21.28C86.5342 21.152 86.7582 21.056 86.9662 21.056ZM100.495 20.896C100.639 20.896 100.735 20.976 100.735 21.12C100.719 21.52 100.607 21.728 100.159 24.016L99.5506 27.104C99.1506 29.12 99.1826 29.952 98.7986 29.952C98.7186 29.952 98.5906 29.856 98.5906 29.728C98.5906 29.536 98.9106 27.776 99.0866 26.944L99.6306 24.304C100.095 22.016 100.031 20.896 100.495 20.896ZM98.5426 30.816C98.9746 30.816 99.2306 31.024 99.2306 31.456C99.2306 31.856 98.8626 32.256 98.3346 32.256C97.9666 32.256 97.7106 32 97.7106 31.632C97.7106 31.168 98.1106 30.816 98.5426 30.816Z" fill="black"/>
<g clip-path="url(#clip0_16_805)">
<path d="M49.0525 72.5L41.969 65.4165C41.294 64.7415 41.2936 63.6431 41.9686 62.9681C42.2953 62.6409 42.73 62.4609 43.1926 62.4609C43.6552 62.4609 44.0899 62.6409 44.4161 62.9681L51.5 70.052L58.5835 62.9681C58.9102 62.6409 59.3449 62.4609 59.8075 62.4609C60.2701 62.4609 60.7048 62.6409 61.0319 62.9681C61.706 63.6431 61.706 64.7411 61.0319 65.4156L53.948 72.5L61.0319 79.5839C61.3586 79.9106 61.5391 80.3453 61.5391 80.8079C61.5391 81.2705 61.3591 81.7047 61.0319 82.0314C60.7052 82.3581 60.2705 82.5386 59.8084 82.5386C59.3462 82.5386 58.912 82.3586 58.5839 82.0314L51.5005 74.9475L44.4166 82.0314C44.0899 82.3581 43.6552 82.5386 43.193 82.5386C42.7309 82.5386 42.2948 82.3586 41.969 82.0314C41.6423 81.7047 41.4619 81.27 41.4619 80.8074C41.4619 80.3448 41.6419 79.9106 41.969 79.5839L49.0529 72.5H49.0525Z" fill="#CC2D28"/>
<path d="M51.5 50C63.9065 50 74 60.0935 74 72.5C74 84.9065 63.9065 95 51.5 95C39.0935 95 29 84.9065 29 72.5C29 60.0935 39.0935 50 51.5 50ZM51.5 91.5386C61.998 91.5386 70.5386 82.9981 70.5386 72.5C70.5386 62.002 61.998 53.4614 51.5 53.4614C41.0019 53.4614 32.4614 62.002 32.4614 72.5C32.4614 82.9981 41.0019 91.5386 51.5 91.5386Z" fill="#CC2D28"/>
</g>
<defs>
<clipPath id="clip0_16_805">
<rect width="45" height="45" fill="white" transform="matrix(-1 0 0 1 74 50)"/>
</clipPath>
</defs>
</svg>
