<svg width="358" height="688" viewBox="0 0 358 688" fill="none" xmlns="http://www.w3.org/2000/svg">
<path d="M0 41C0 18.3563 18.3563 0 41 0H317C339.644 0 358 18.3563 358 41V968H0V41Z" fill="#F8F8F0"/>
<line x1="35" y1="50.5" x2="323" y2="50.5" stroke="#95CBE2"/>
<line x1="35" y1="85.5" x2="323" y2="85.5" stroke="#95CBE2"/>
<line x1="35" y1="120.5" x2="323" y2="120.5" stroke="#95CBE2"/>
<line x1="35" y1="155.5" x2="323" y2="155.5" stroke="#95CBE2"/>
<line x1="35" y1="190.5" x2="323" y2="190.5" stroke="#95CBE2"/>
<line x1="35" y1="225.5" x2="323" y2="225.5" stroke="#95CBE2"/>
<line x1="35" y1="260.5" x2="323" y2="260.5" stroke="#95CBE2"/>
<line x1="35" y1="295.5" x2="323" y2="295.5" stroke="#95CBE2"/>
<line x1="35" y1="330.5" x2="323" y2="330.5" stroke="#95CBE2"/>
<line x1="35" y1="365.5" x2="323" y2="365.5" stroke="#95CBE2"/>
<line x1="35" y1="400.5" x2="323" y2="400.5" stroke="#95CBE2"/>
<line x1="35" y1="435.5" x2="323" y2="435.5" stroke="#95CBE2"/>
<line x1="35" y1="470.5" x2="323" y2="470.5" stroke="#95CBE2"/>
<line x1="35" y1="505.5" x2="323" y2="505.5" stroke="#95CBE2"/>
<line x1="35" y1="540.5" x2="323" y2="540.5" stroke="#95CBE2"/>
<line x1="35" y1="575.5" x2="323" y2="575.5" stroke="#95CBE2"/>
<line x1="35" y1="610.5" x2="323" y2="610.5" stroke="#95CBE2"/>
<line x1="35" y1="645.5" x2="323" y2="645.5" stroke="#95CBE2"/>
<line x1="35" y1="680.5" x2="323" y2="680.5" stroke="#95CBE2"/>
</svg>
