<svg width="267" height="184" viewBox="0 0 267 184" fill="none" xmlns="http://www.w3.org/2000/svg">
<path d="M0 180.613L3.79621 0H263.204L267 184L0 180.613Z" fill="#FFF59E"/>
<path d="M67.874 79.164C68.576 79.164 69.72 79.424 71.358 79.424C73.048 79.424 74.14 79.19 74.66 79.19C75.206 79.19 75.648 79.424 75.648 79.944C75.648 80.542 75.102 80.958 74.374 80.958C74.27 80.958 73.802 80.906 73.386 80.906C72.242 80.906 71.956 81.322 71.124 85.742L70.136 90.916C69.746 92.918 69.564 94.322 69.564 94.608C69.564 95.206 69.798 95.414 71.436 95.414C72.372 95.414 74.348 95.414 74.92 95.388C76.948 95.258 77.728 94.972 77.988 92.268C78.17 90.37 78.534 89.642 79.47 89.642C79.964 89.642 80.25 89.954 80.25 90.448C80.25 91.072 79.808 92.112 79.47 93.438C78.872 95.804 79.73 97.13 77.234 97.13C76.896 97.13 72.684 96.87 68.888 96.87C66.574 96.87 65.222 97.078 64.702 97.078C64.156 97.078 63.74 96.87 63.74 96.272C63.74 95.726 64.182 95.388 65.222 95.388C65.456 95.388 65.664 95.414 65.898 95.414C66.808 95.414 67.198 94.66 67.536 92.944C68.186 89.694 68.992 85.664 69.408 83.168C69.512 82.518 69.564 82.05 69.564 81.816C69.564 81.192 69.226 80.906 68.628 80.906C68.316 80.906 67.9 80.958 67.51 80.958C66.782 80.958 66.47 80.698 66.47 80.204C66.47 79.71 67.068 79.164 67.874 79.164ZM88.3317 83.272C91.0617 83.272 92.5957 84.468 92.5957 86.47C92.5957 89.642 88.5657 91.566 84.3277 91.566C83.4437 91.566 83.4177 91.592 83.4177 92.528C83.4177 94.27 84.6917 95.674 86.7977 95.674C88.4357 95.674 90.0997 94.4 91.0877 92.918C91.7117 91.982 91.8937 91.956 92.1797 91.956C92.6477 91.956 93.1417 92.216 93.1417 92.762C93.1417 93.204 92.7777 93.828 92.1017 94.66C90.7497 96.272 88.6437 97.442 86.4597 97.442C83.3657 97.442 81.2597 95.232 81.2597 91.8C81.2597 86.912 84.9517 83.272 88.3317 83.272ZM83.8337 89.486C83.8337 89.798 83.9117 89.798 84.3017 89.798C87.5517 89.798 90.4377 88.498 90.4377 86.574C90.4377 85.664 89.7877 85.04 88.4097 85.04C87.6817 85.04 86.9537 85.274 86.2777 85.768C85.0037 86.678 83.8337 88.55 83.8337 89.486ZM99.1471 79.45C100.057 79.45 100.213 79.606 100.213 80.178C100.213 80.516 100.109 81.088 99.8751 81.946C99.5111 83.246 99.4851 83.506 99.4851 83.61C99.4851 83.792 99.5631 83.87 99.9011 83.87C100.291 83.87 101.175 83.766 102.085 83.766C102.735 83.766 102.995 83.974 102.995 84.416C102.995 85.092 102.683 85.43 101.669 85.43C101.175 85.43 100.499 85.352 99.8751 85.352C99.5631 85.352 99.3031 85.378 99.1731 85.534C99.0171 85.742 98.9651 86.184 98.8091 87.068L97.8991 91.826C97.7431 92.58 97.5351 93.75 97.5351 94.296C97.5351 95.102 97.9771 95.596 98.8871 95.596C99.8231 95.596 100.629 94.764 101.201 92.554C101.513 91.306 101.799 91.02 102.423 91.02C103.021 91.02 103.203 91.254 103.203 91.774C103.203 92.424 102.995 93.23 102.579 94.244C101.773 96.22 100.317 97.442 98.5231 97.442C96.7551 97.442 95.4811 96.454 95.4811 94.686C95.4811 94.452 95.5851 93.438 96.0011 91.202L96.8851 86.548C96.9631 86.158 97.0151 85.82 97.0151 85.69C97.0151 85.508 97.0151 85.378 96.7811 85.378C96.5471 85.378 95.9231 85.456 95.4811 85.456C95.0651 85.456 94.7531 85.17 94.7531 84.78C94.7531 84.13 95.1171 83.74 95.9491 83.74C96.2871 83.74 96.7031 83.818 96.9371 83.818C97.3791 83.818 97.6131 83.636 97.7951 82.362C98.0291 80.646 98.1851 79.45 99.1471 79.45ZM109.356 78.774C110.5 78.774 111.15 79.528 111.15 80.646C111.15 81.348 110.942 82.128 110.552 82.96C109.798 84.598 108.186 86.158 107.614 86.158C107.406 86.158 107.25 86.002 107.25 85.768C107.25 85.586 107.354 85.404 107.536 85.222C108.576 84.26 109.512 82.986 109.512 82.232C109.512 81.946 109.304 81.842 109.018 81.842C108.888 81.842 108.784 81.868 108.602 81.868C107.952 81.868 107.458 81.296 107.458 80.672C107.458 79.606 108.342 78.774 109.356 78.774ZM117.958 83.272C120.818 83.272 122.586 84.624 122.586 86.392C122.586 87.328 122.066 88.03 121.156 88.03C120.428 88.03 119.96 87.536 119.96 86.886C119.96 86.6 120.22 86.21 120.22 86.002C120.22 85.482 119.232 84.936 117.776 84.936C116.138 84.936 114.708 85.872 114.708 86.86C114.708 87.9 115.28 88.316 116.112 88.576L118.686 89.356C121.546 90.214 122.04 91.202 122.04 92.892C122.04 95.44 119.622 97.442 115.93 97.442C112.758 97.442 110.73 95.934 110.73 93.958C110.73 92.84 111.51 91.904 112.42 91.904C113.148 91.904 113.668 92.294 113.668 93.074C113.668 93.724 113.07 93.75 113.018 94.218C113.018 94.972 114.318 95.674 116.112 95.674C118.504 95.674 120.012 94.452 120.012 93.074C120.012 92.138 119.362 91.67 117.516 91.098C114.604 90.214 112.706 89.694 112.706 87.25C112.706 85.118 114.838 83.272 117.958 83.272ZM139.886 83.272C141.628 83.272 142.72 84.39 142.72 85.768C142.72 86.704 142.044 87.432 141.134 87.432C140.536 87.432 140.068 87.12 140.068 86.522C140.068 86.08 140.432 85.924 140.432 85.56C140.432 85.3 140.25 85.04 139.652 85.04C138.82 85.04 137.832 85.664 137 86.756C136.246 87.77 135.648 89.018 135.102 91.254C134.582 93.386 134.348 94.608 134.192 95.934C134.062 97 133.75 97.364 132.788 97.364C132.372 97.364 131.956 97.104 131.956 96.688C131.956 96.22 132.268 95.362 133.36 90.084C133.828 87.822 134.036 86.548 134.036 86.106C134.036 85.482 133.568 85.352 133.152 85.352C132.918 85.352 132.554 85.404 132.32 85.404C131.826 85.404 131.41 85.196 131.41 84.78C131.41 84.26 131.826 83.766 132.58 83.766C132.892 83.766 133.36 83.896 133.906 83.896C134.712 83.896 135.466 83.766 135.7 83.766C135.986 83.766 136.22 83.844 136.22 84.13C136.22 84.364 136.012 85.274 135.934 85.82C136.974 84.13 138.404 83.272 139.886 83.272ZM149.904 83.272C152.634 83.272 154.168 84.468 154.168 86.47C154.168 89.642 150.138 91.566 145.9 91.566C145.016 91.566 144.99 91.592 144.99 92.528C144.99 94.27 146.264 95.674 148.37 95.674C150.008 95.674 151.672 94.4 152.66 92.918C153.284 91.982 153.466 91.956 153.752 91.956C154.22 91.956 154.714 92.216 154.714 92.762C154.714 93.204 154.35 93.828 153.674 94.66C152.322 96.272 150.216 97.442 148.032 97.442C144.938 97.442 142.832 95.232 142.832 91.8C142.832 86.912 146.524 83.272 149.904 83.272ZM145.406 89.486C145.406 89.798 145.484 89.798 145.874 89.798C149.124 89.798 152.01 88.498 152.01 86.574C152.01 85.664 151.36 85.04 149.982 85.04C149.254 85.04 148.526 85.274 147.85 85.768C146.576 86.678 145.406 88.55 145.406 89.486ZM160.719 79.45C161.629 79.45 161.785 79.606 161.785 80.178C161.785 80.516 161.681 81.088 161.447 81.946C161.083 83.246 161.057 83.506 161.057 83.61C161.057 83.792 161.135 83.87 161.473 83.87C161.863 83.87 162.747 83.766 163.657 83.766C164.307 83.766 164.567 83.974 164.567 84.416C164.567 85.092 164.255 85.43 163.241 85.43C162.747 85.43 162.071 85.352 161.447 85.352C161.135 85.352 160.875 85.378 160.745 85.534C160.589 85.742 160.537 86.184 160.381 87.068L159.471 91.826C159.315 92.58 159.107 93.75 159.107 94.296C159.107 95.102 159.549 95.596 160.459 95.596C161.395 95.596 162.201 94.764 162.773 92.554C163.085 91.306 163.371 91.02 163.995 91.02C164.593 91.02 164.775 91.254 164.775 91.774C164.775 92.424 164.567 93.23 164.151 94.244C163.345 96.22 161.889 97.442 160.095 97.442C158.327 97.442 157.053 96.454 157.053 94.686C157.053 94.452 157.157 93.438 157.573 91.202L158.457 86.548C158.535 86.158 158.587 85.82 158.587 85.69C158.587 85.508 158.587 85.378 158.353 85.378C158.119 85.378 157.495 85.456 157.053 85.456C156.637 85.456 156.325 85.17 156.325 84.78C156.325 84.13 156.689 83.74 157.521 83.74C157.859 83.74 158.275 83.818 158.509 83.818C158.951 83.818 159.185 83.636 159.367 82.362C159.601 80.646 159.757 79.45 160.719 79.45ZM174.646 83.272C176.388 83.272 177.48 84.39 177.48 85.768C177.48 86.704 176.804 87.432 175.894 87.432C175.296 87.432 174.828 87.12 174.828 86.522C174.828 86.08 175.192 85.924 175.192 85.56C175.192 85.3 175.01 85.04 174.412 85.04C173.58 85.04 172.592 85.664 171.76 86.756C171.006 87.77 170.408 89.018 169.862 91.254C169.342 93.386 169.108 94.608 168.952 95.934C168.822 97 168.51 97.364 167.548 97.364C167.132 97.364 166.716 97.104 166.716 96.688C166.716 96.22 167.028 95.362 168.12 90.084C168.588 87.822 168.796 86.548 168.796 86.106C168.796 85.482 168.328 85.352 167.912 85.352C167.678 85.352 167.314 85.404 167.08 85.404C166.586 85.404 166.17 85.196 166.17 84.78C166.17 84.26 166.586 83.766 167.34 83.766C167.652 83.766 168.12 83.896 168.666 83.896C169.472 83.896 170.226 83.766 170.46 83.766C170.746 83.766 170.98 83.844 170.98 84.13C170.98 84.364 170.772 85.274 170.694 85.82C171.734 84.13 173.164 83.272 174.646 83.272ZM189.714 83.558C190.208 83.558 190.676 83.792 190.676 84.208C190.676 84.494 189.844 87.952 189.48 89.694C188.648 93.646 188.674 94.634 188.258 97.26C187.66 101.056 184.774 102.824 181.654 102.824C178.82 102.824 176.922 101.446 176.922 99.652C176.922 98.716 177.676 97.858 178.508 97.858C179.418 97.858 179.808 98.43 179.808 98.976C179.808 99.574 179.392 99.964 179.392 100.094C179.392 100.51 180.198 101.056 181.472 101.056C183.422 101.056 184.904 100.198 185.632 99.132C186.36 98.066 186.49 96.558 186.698 94.66C185.45 96.428 183.708 97.442 182.148 97.442C180.042 97.442 178.56 96.22 178.56 94.348C178.56 93.828 178.794 92.528 179.262 90.24C179.73 88.004 179.99 86.626 179.99 86.132C179.99 85.508 179.548 85.378 179.106 85.378C178.794 85.378 178.378 85.43 178.17 85.43C177.728 85.43 177.416 85.196 177.416 84.78C177.416 84.234 177.858 83.766 178.482 83.766C178.69 83.766 179.288 83.87 180.302 83.87C180.822 83.87 181.628 83.766 181.862 83.766C182.148 83.766 182.46 83.844 182.46 84.13C182.46 84.338 182.382 84.572 182.278 85.092L180.952 91.904C180.796 92.71 180.718 93.282 180.718 93.672C180.718 94.894 181.238 95.596 182.46 95.596C183.838 95.596 185.372 94.452 186.646 91.852C187.27 90.578 187.842 88.472 188.284 85.56C188.544 83.818 188.726 83.558 189.714 83.558ZM199.286 78.774C199.988 78.774 200.43 78.982 200.43 79.528C200.43 79.71 200.378 80.074 200.248 80.672L197.856 91.566C197.648 92.528 197.232 92.762 196.686 92.762C196.166 92.762 195.932 92.502 195.932 92.112C195.932 91.93 196.244 90.344 196.374 89.616L198.116 79.866C198.246 79.164 198.636 78.774 199.286 78.774ZM196.192 94.27C197.102 94.27 197.674 94.816 197.674 95.674C197.674 96.61 196.764 97.442 195.828 97.442C194.944 97.442 194.372 96.766 194.372 96.012C194.372 95.154 195.282 94.27 196.192 94.27Z" fill="black"/>
</svg>
