<svg width="371" height="486" viewBox="0 0 371 486" fill="none" xmlns="http://www.w3.org/2000/svg">
<path d="M41.021 449L49.9237 463.482L22.1439 480.559C18.1447 483.018 12.9097 481.769 10.4513 477.769V477.769C7.99291 473.77 9.24199 468.535 13.2412 466.077L41.021 449Z" fill="#131313"/>
<path d="M320 463.515L328.903 449.033L356.682 466.11C360.682 468.568 361.931 473.803 359.472 477.802V477.802C357.014 481.801 351.779 483.05 347.78 480.592L320 463.515Z" fill="#131313"/>
<rect x="349" y="232" width="36" height="321" rx="4" transform="rotate(90 349 232)" fill="#131313"/>
<path d="M36 253H335V485H36V253Z" fill="#F8F8F0"/>
<path d="M36 0H335V238H36V0Z" fill="#F8F8F0"/>
<rect x="335" y="208" width="36" height="119" rx="4" fill="#131313"/>
<path d="M344 327H361V473.5C361 478.194 357.194 482 352.5 482V482C347.806 482 344 478.194 344 473.5V327Z" fill="#131313"/>
<path d="M9 327H26V473.5C26 478.194 22.1944 482 17.5 482V482C12.8056 482 9 478.194 9 473.5V327Z" fill="#131313"/>
<rect y="208" width="36" height="119" rx="4" fill="#131313"/>
<rect x="154" y="222" width="11" height="46" rx="4" fill="#7F7F7F"/>
<rect x="206" y="222" width="11" height="46" rx="4" fill="#7F7F7F"/>
<path d="M92.9 28.46L93.34 28.64C92.44 30.36 91.6 31.04 90.64 31.04C89.6 31.04 87.08 29.3 86.02 29.3C85.3 29.3 84.72 29.78 83.84 31.28L83.42 31.06C84.3 29.58 85.1 28.9 86.06 28.9C87.26 28.9 89.6 30.62 90.76 30.62C91.42 30.62 92.32 29.74 92.9 28.46ZM103.115 28.46L103.555 28.64C102.655 30.36 101.815 31.04 100.855 31.04C99.8148 31.04 97.2948 29.3 96.2348 29.3C95.5148 29.3 94.9348 29.78 94.0548 31.28L93.6348 31.06C94.5148 29.58 95.3148 28.9 96.2748 28.9C97.4748 28.9 99.8148 30.62 100.975 30.62C101.635 30.62 102.535 29.74 103.115 28.46ZM110.307 23.4C110.567 23.4 112.167 23.46 115.347 23.46C118.207 23.46 119.767 23.4 120.227 23.4C120.567 23.4 120.787 23.46 120.787 23.72C120.787 23.9 120.687 24.28 120.567 24.82C120.187 26.46 120.027 27.48 119.947 28.2C119.907 28.6 119.807 28.8 119.607 28.8C119.367 28.8 119.347 28.62 119.347 28.46C119.347 28.14 120.147 25.54 120.147 24.52C120.147 24.02 119.867 23.88 118.807 23.88H116.207C115.587 23.88 115.547 23.98 115.147 26L113.467 34.62C113.327 35.38 113.287 35.78 113.287 36.08C113.287 36.4 113.527 36.56 114.027 36.56C114.527 36.56 115.107 36.52 115.267 36.52C115.487 36.52 115.647 36.56 115.647 36.8C115.647 36.96 115.347 37.06 115.107 37.06C114.927 37.06 114.127 36.96 112.747 36.96C111.487 36.96 110.707 37.06 110.527 37.06C110.287 37.06 110.087 37.04 110.087 36.8C110.087 36.66 110.347 36.52 110.567 36.52C110.867 36.52 111.267 36.54 111.567 36.54C112.407 36.54 112.567 36.12 112.867 34.64C113.487 31.52 114.067 28.5 114.647 25.42C114.787 24.72 114.827 24.34 114.827 24.3C114.827 23.9 114.547 23.88 114.167 23.88H111.447C110.407 23.88 110.067 24.2 109.727 26.74C109.467 28.68 109.427 28.86 109.087 28.86C108.907 28.86 108.887 28.68 108.887 28.54C108.887 28.44 108.927 28.24 109.007 27.92C109.807 24.84 109.407 23.4 110.307 23.4ZM128.901 37.2C127.921 37.2 127.341 36.48 127.341 35.58C127.341 34.72 127.541 33.54 127.961 32.06C128.381 30.56 128.581 29.56 128.581 29.02C128.581 27.86 127.761 27.2 126.641 27.2C124.181 27.2 122.241 29.36 121.421 34.94C121.241 36.2 121.141 36.7 121.041 36.94C120.961 37.12 120.841 37.14 120.681 37.14C120.541 37.14 120.461 37.02 120.461 36.9C120.461 36.8 120.661 36.04 121.301 32.74L122.781 25.18C122.861 24.78 122.941 24.24 122.941 24C122.941 23.6 122.621 23.54 122.201 23.54C121.821 23.54 121.341 23.62 121.081 23.62C120.921 23.62 120.801 23.58 120.801 23.44C120.801 23.22 121.121 23.14 121.421 23.14C121.821 23.14 122.341 23.16 122.441 23.16C122.741 23.16 123.141 23.12 123.401 23.12C123.621 23.12 123.641 23.32 123.641 23.4C123.641 23.64 123.461 24.24 123.341 24.84L122.301 30.2C123.481 27.8 124.841 26.78 126.721 26.78C128.121 26.78 129.141 27.58 129.141 28.98C129.141 29.72 128.881 30.72 128.501 32.16C128.081 33.72 127.881 34.7 127.881 35.32C127.881 36.28 128.261 36.8 128.921 36.8C129.761 36.8 130.261 35.92 130.601 35.06C130.861 34.42 131.101 33.46 131.101 33.5C131.161 33.3 131.221 33.24 131.321 33.24C131.481 33.24 131.541 33.34 131.541 33.44C131.541 33.78 131.421 34.32 131.141 35C130.601 36.32 129.781 37.2 128.901 37.2ZM138.467 26.78C140.087 26.78 141.147 27.62 141.147 28.92C141.147 30.74 138.687 32.32 134.567 32.32C134.087 32.32 133.827 32.28 133.607 32.28C133.227 32.28 133.167 32.28 133.167 33.26C133.167 34.92 133.807 36.86 136.307 36.86C138.647 36.86 140.127 35.02 140.567 33.54C140.627 33.36 140.687 33.28 140.867 33.28C141.047 33.28 141.087 33.36 141.087 33.5C141.087 33.76 140.867 34.34 140.387 35.02C139.427 36.38 138.007 37.28 136.267 37.28C133.967 37.28 132.607 35.86 132.607 33.36C132.607 29.98 135.227 26.78 138.467 26.78ZM133.407 31.66C133.407 31.86 133.407 31.9 134.487 31.9C138.567 31.9 140.587 30.44 140.587 28.96C140.587 27.9 139.867 27.2 138.407 27.2C136.887 27.2 135.587 28 134.767 29C133.527 30.5 133.407 31.54 133.407 31.66ZM153.144 26.78C153.984 26.78 154.464 26.94 154.904 27.28C155.424 27.66 155.804 28.3 155.964 29.22C156.424 27.18 156.204 26.92 156.684 26.92C156.904 26.92 156.944 27.1 156.944 27.2C156.944 27.3 156.904 27.54 156.704 28.2C156.504 28.86 155.704 32.84 155.384 34.86C155.084 36.8 154.684 38.24 154.004 39.24C153.164 40.48 151.844 41.02 149.944 41.02C147.924 41.02 146.664 40.22 146.664 39.08C146.664 38.64 147.044 38.2 147.464 38.2C147.784 38.2 148.064 38.42 148.064 38.76C148.064 39.38 147.344 39.26 147.344 39.5C147.344 40.1 148.664 40.6 150.024 40.6C151.644 40.6 152.924 40.16 153.764 38.68C154.364 37.64 154.744 36.08 155.064 33.84C154.124 36.1 152.664 37.28 150.884 37.28C148.904 37.28 147.704 35.9 147.704 33.66C147.704 32.52 147.944 31.04 148.844 29.54C149.864 27.86 151.324 26.78 153.144 26.78ZM148.244 33.62C148.244 35.62 149.264 36.86 150.864 36.86C153.724 36.86 155.644 33.02 155.644 29.94C155.644 28.2 154.724 27.2 153.244 27.2C152.064 27.2 151.364 27.52 150.564 28.18C149.364 29.18 148.244 31.22 148.244 33.62ZM164.932 26.78C166.552 26.78 167.612 27.62 167.612 28.92C167.612 30.74 165.152 32.32 161.032 32.32C160.552 32.32 160.292 32.28 160.072 32.28C159.692 32.28 159.632 32.28 159.632 33.26C159.632 34.92 160.272 36.86 162.772 36.86C165.112 36.86 166.592 35.02 167.032 33.54C167.092 33.36 167.152 33.28 167.332 33.28C167.512 33.28 167.552 33.36 167.552 33.5C167.552 33.76 167.332 34.34 166.852 35.02C165.892 36.38 164.472 37.28 162.732 37.28C160.432 37.28 159.072 35.86 159.072 33.36C159.072 29.98 161.692 26.78 164.932 26.78ZM159.872 31.66C159.872 31.86 159.872 31.9 160.952 31.9C165.032 31.9 167.052 30.44 167.052 28.96C167.052 27.9 166.332 27.2 164.872 27.2C163.352 27.2 162.052 28 161.232 29C159.992 30.5 159.872 31.54 159.872 31.66ZM176.171 26.78C177.571 26.78 178.651 27.6 178.651 28.98C178.651 29.72 178.391 30.72 178.011 32.16C177.591 33.72 177.431 34.78 177.431 35.16C177.431 36.16 177.791 36.8 178.451 36.8C179.291 36.8 179.791 35.94 180.131 35.08C180.391 34.44 180.611 33.5 180.611 33.54C180.671 33.34 180.731 33.24 180.831 33.24C180.991 33.24 181.051 33.34 181.051 33.44C181.051 33.74 180.931 34.32 180.651 35C180.111 36.32 179.371 37.2 178.331 37.2C177.351 37.2 176.871 36.3 176.871 35.4C176.871 34.54 177.051 33.54 177.471 32.06C177.891 30.56 178.091 29.56 178.091 29.02C178.091 27.86 177.111 27.2 176.111 27.2C174.391 27.2 172.711 28.34 171.791 30.9C171.491 31.72 171.251 32.82 171.071 33.64C170.491 36.42 170.691 37.14 170.111 37.14C169.951 37.14 169.831 37.02 169.831 36.86C169.831 36.58 170.031 36.12 170.431 34.08L171.451 28.88C171.491 28.66 171.531 28.4 171.531 28.26C171.531 27.7 171.411 27.42 171.011 27.42C170.311 27.42 169.831 27.52 169.651 27.52C169.511 27.52 169.351 27.5 169.351 27.32C169.351 27.1 169.651 27 170.031 27C170.331 27 170.751 27.04 171.091 27.04C171.391 27.04 171.771 27 171.951 27C172.131 27 172.191 27.16 172.191 27.3C172.191 27.6 171.931 28.6 171.711 29.72L171.551 30.52C172.591 28.02 174.031 26.78 176.171 26.78ZM185.799 23.28C185.959 23.28 186.019 23.34 186.019 23.5C186.019 24 185.399 25.98 185.399 26.76C185.399 27.02 185.599 27.08 185.939 27.08C186.319 27.08 186.979 26.98 187.619 26.98C188.099 26.98 188.259 27.04 188.259 27.18C188.259 27.4 188.099 27.46 187.679 27.46L185.639 27.44C185.259 27.44 185.219 27.6 185.139 28.06L184.119 33.46C183.979 34.22 183.919 35.02 183.919 35.34C183.919 36.36 184.399 36.86 185.259 36.86C185.999 36.86 187.319 36.46 187.839 33.72C188.059 32.52 188.139 32.5 188.319 32.5C188.459 32.5 188.519 32.6 188.519 32.74C188.519 33 188.439 33.36 188.299 33.82C187.979 34.9 187.359 37.28 185.259 37.28C184.099 37.28 183.359 36.58 183.359 35.44C183.359 34.88 183.419 34.26 183.539 33.68C183.959 31.5 184.659 28.04 184.659 27.68C184.659 27.46 184.579 27.4 184.439 27.4C184.259 27.4 183.439 27.42 182.899 27.42C182.679 27.42 182.579 27.36 182.579 27.22C182.579 27.04 182.799 27 183.259 27H183.979C184.639 27 184.899 26.94 185.199 25.2L185.459 23.66C185.499 23.38 185.619 23.28 185.799 23.28ZM190.992 23.12C191.332 23.12 191.872 23.16 191.972 23.16C192.272 23.16 192.652 23.12 192.912 23.12C193.152 23.12 193.192 23.22 193.192 23.38C193.192 23.6 193.032 24.22 192.892 24.92L191.212 33.52C191.112 34 191.012 34.78 191.012 35.2C191.012 36.24 191.412 36.8 192.112 36.8C192.912 36.8 193.832 35.62 194.192 33.78C194.252 33.44 194.372 33.24 194.552 33.24C194.652 33.24 194.692 33.3 194.692 33.4C194.692 33.68 194.552 34.24 194.292 34.94C193.772 36.34 192.952 37.2 192.032 37.2C191.092 37.2 190.472 36.5 190.472 35.12C190.472 34.66 190.612 33.9 191.032 31.76L192.392 24.9C192.432 24.68 192.492 24.3 192.492 24C192.492 23.68 192.312 23.54 191.912 23.54C191.252 23.54 190.752 23.64 190.572 23.64C190.432 23.64 190.352 23.58 190.352 23.44C190.352 23.22 190.652 23.12 190.992 23.12ZM201.689 26.78C203.309 26.78 204.369 27.62 204.369 28.92C204.369 30.74 201.909 32.32 197.789 32.32C197.309 32.32 197.049 32.28 196.829 32.28C196.449 32.28 196.389 32.28 196.389 33.26C196.389 34.92 197.029 36.86 199.529 36.86C201.869 36.86 203.349 35.02 203.789 33.54C203.849 33.36 203.909 33.28 204.089 33.28C204.269 33.28 204.309 33.36 204.309 33.5C204.309 33.76 204.089 34.34 203.609 35.02C202.649 36.38 201.229 37.28 199.489 37.28C197.189 37.28 195.829 35.86 195.829 33.36C195.829 29.98 198.449 26.78 201.689 26.78ZM196.629 31.66C196.629 31.86 196.629 31.9 197.709 31.9C201.789 31.9 203.809 30.44 203.809 28.96C203.809 27.9 203.089 27.2 201.629 27.2C200.109 27.2 198.809 28 197.989 29C196.749 30.5 196.629 31.54 196.629 31.66ZM216.367 26.78C217.207 26.78 217.687 26.94 218.127 27.28C218.647 27.66 219.027 28.3 219.187 29.22C219.647 27.18 219.427 26.92 219.907 26.92C220.127 26.92 220.167 27.1 220.167 27.2C220.167 27.3 220.127 27.54 219.927 28.2C219.727 28.86 218.927 32.84 218.607 34.86C218.307 36.8 217.907 38.24 217.227 39.24C216.387 40.48 215.067 41.02 213.167 41.02C211.147 41.02 209.887 40.22 209.887 39.08C209.887 38.64 210.267 38.2 210.687 38.2C211.007 38.2 211.287 38.42 211.287 38.76C211.287 39.38 210.567 39.26 210.567 39.5C210.567 40.1 211.887 40.6 213.247 40.6C214.867 40.6 216.147 40.16 216.987 38.68C217.587 37.64 217.967 36.08 218.287 33.84C217.347 36.1 215.887 37.28 214.107 37.28C212.127 37.28 210.927 35.9 210.927 33.66C210.927 32.52 211.167 31.04 212.067 29.54C213.087 27.86 214.547 26.78 216.367 26.78ZM211.467 33.62C211.467 35.62 212.487 36.86 214.087 36.86C216.947 36.86 218.867 33.02 218.867 29.94C218.867 28.2 217.947 27.2 216.467 27.2C215.287 27.2 214.587 27.52 213.787 28.18C212.587 29.18 211.467 31.22 211.467 33.62ZM227.674 26.78C229.654 26.78 231.314 28.2 231.314 30.88C231.314 34.48 228.914 37.28 225.914 37.28C223.674 37.28 222.274 35.68 222.274 33.14C222.274 29.78 224.714 26.78 227.674 26.78ZM222.814 33.3C222.814 35.74 224.314 36.86 225.954 36.86C229.114 36.86 230.774 33.32 230.774 30.86C230.774 28.52 229.534 27.2 227.614 27.2C224.894 27.2 222.814 30.12 222.814 33.3ZM238.065 26.78C240.045 26.78 241.705 28.2 241.705 30.88C241.705 34.48 239.305 37.28 236.305 37.28C234.065 37.28 232.665 35.68 232.665 33.14C232.665 29.78 235.105 26.78 238.065 26.78ZM233.205 33.3C233.205 35.74 234.705 36.86 236.345 36.86C239.505 36.86 241.165 33.32 241.165 30.86C241.165 28.52 239.925 27.2 238.005 27.2C235.285 27.2 233.205 30.12 233.205 33.3ZM247.955 26.78C250.075 26.78 251.435 27.7 251.435 28.84C251.435 29.38 250.995 29.84 250.595 29.84C250.115 29.84 249.915 29.56 249.915 29.26C249.915 28.96 250.115 28.7 250.555 28.7C250.795 28.7 250.815 28.66 250.815 28.56C250.815 28.06 249.895 27.2 247.915 27.2C246.255 27.2 244.795 28.32 244.795 29.74C244.795 30.58 245.475 31.08 246.795 31.4L248.755 31.88C250.115 32.22 250.935 32.78 250.935 33.98C250.935 35.86 248.995 37.28 246.515 37.28C244.195 37.28 242.615 36.38 242.615 35.02C242.615 34.46 243.195 33.84 243.735 33.84C244.235 33.84 244.495 34.1 244.495 34.48C244.495 34.92 244.235 35.04 243.975 35.04C243.855 35.04 243.715 35.02 243.575 34.98C243.435 34.94 243.375 34.9 243.355 34.9C243.255 34.9 243.155 35.06 243.155 35.22C243.155 36.1 244.455 36.86 246.515 36.86C248.735 36.86 250.375 35.64 250.375 33.98C250.375 33.04 249.655 32.52 248.295 32.2L246.535 31.78C244.955 31.4 244.255 30.82 244.255 29.8C244.255 28.06 245.935 26.78 247.955 26.78ZM258.603 26.78C260.223 26.78 261.283 27.62 261.283 28.92C261.283 30.74 258.823 32.32 254.703 32.32C254.223 32.32 253.963 32.28 253.743 32.28C253.363 32.28 253.303 32.28 253.303 33.26C253.303 34.92 253.943 36.86 256.443 36.86C258.783 36.86 260.263 35.02 260.703 33.54C260.763 33.36 260.823 33.28 261.003 33.28C261.183 33.28 261.223 33.36 261.223 33.5C261.223 33.76 261.003 34.34 260.523 35.02C259.563 36.38 258.143 37.28 256.403 37.28C254.103 37.28 252.743 35.86 252.743 33.36C252.743 29.98 255.363 26.78 258.603 26.78ZM253.543 31.66C253.543 31.86 253.543 31.9 254.623 31.9C258.703 31.9 260.723 30.44 260.723 28.96C260.723 27.9 260.003 27.2 258.543 27.2C257.023 27.2 255.723 28 254.903 29C253.663 30.5 253.543 31.54 253.543 31.66ZM277.041 28.46L277.481 28.64C276.581 30.36 275.741 31.04 274.781 31.04C273.741 31.04 271.221 29.3 270.161 29.3C269.441 29.3 268.861 29.78 267.981 31.28L267.561 31.06C268.441 29.58 269.241 28.9 270.201 28.9C271.401 28.9 273.741 30.62 274.901 30.62C275.561 30.62 276.461 29.74 277.041 28.46ZM287.255 28.46L287.695 28.64C286.795 30.36 285.955 31.04 284.995 31.04C283.955 31.04 281.435 29.3 280.375 29.3C279.655 29.3 279.075 29.78 278.195 31.28L277.775 31.06C278.655 29.58 279.455 28.9 280.415 28.9C281.615 28.9 283.955 30.62 285.115 30.62C285.775 30.62 286.675 29.74 287.255 28.46Z" fill="black"/>
<path d="M92.8086 323.056C93.0486 323.056 93.4966 323.152 94.3126 323.152C95.0166 323.152 95.5926 323.056 95.8326 323.056C96.0406 323.056 96.2646 323.056 96.2646 323.232C96.2646 323.408 96.0406 323.504 95.8486 323.504C95.7526 323.504 95.3686 323.488 95.0966 323.488C94.5686 323.488 94.3766 323.68 94.3766 324.336C94.3766 326.48 94.6006 330.992 94.6966 333.52L98.6006 324.432C99.0806 323.312 99.2406 323.056 99.5446 323.056C99.9446 323.056 99.9446 323.392 99.9766 324.384L100.297 333.52C102.297 328.768 103.481 326.032 103.833 325.136C104.137 324.368 104.313 323.92 104.313 323.76C104.313 323.552 104.121 323.472 103.721 323.472C103.513 323.472 103.161 323.504 102.889 323.504C102.649 323.504 102.473 323.488 102.473 323.312C102.473 323.136 102.697 323.056 102.937 323.056C103.081 323.056 104.393 323.168 104.809 323.168C105.497 323.168 105.945 323.056 106.217 323.056C106.393 323.056 106.585 323.072 106.585 323.248C106.585 323.392 106.425 323.504 106.281 323.504C106.169 323.504 105.817 323.44 105.497 323.44C105.017 323.44 104.937 323.664 104.409 324.944L101.161 332.816C100.761 333.792 100.505 334.224 100.233 334.224C99.8966 334.224 99.8486 333.904 99.8006 332.48L99.4966 323.488L95.5766 332.576C94.9526 334 94.8406 334.224 94.5526 334.224C94.2166 334.224 94.1526 333.92 94.1366 333.024L93.8966 324.16C93.8806 323.776 93.8006 323.472 93.3686 323.472C93.1126 323.472 92.8086 323.504 92.7286 323.504C92.5846 323.504 92.3766 323.456 92.3766 323.312C92.3766 323.136 92.6006 323.056 92.8086 323.056ZM109.514 325.824C110.81 325.824 111.658 326.496 111.658 327.536C111.658 328.992 109.69 330.256 106.394 330.256C106.01 330.256 105.802 330.224 105.626 330.224C105.322 330.224 105.274 330.224 105.274 331.008C105.274 332.336 105.786 333.888 107.786 333.888C109.658 333.888 110.842 332.416 111.194 331.232C111.242 331.088 111.29 331.024 111.434 331.024C111.578 331.024 111.61 331.088 111.61 331.2C111.61 331.408 111.434 331.872 111.05 332.416C110.282 333.504 109.146 334.224 107.754 334.224C105.914 334.224 104.826 333.088 104.826 331.088C104.826 328.384 106.922 325.824 109.514 325.824ZM105.466 329.728C105.466 329.888 105.466 329.92 106.33 329.92C109.594 329.92 111.21 328.752 111.21 327.568C111.21 326.72 110.634 326.16 109.466 326.16C108.25 326.16 107.21 326.8 106.554 327.6C105.562 328.8 105.466 329.632 105.466 329.728ZM113.722 322.896C113.994 322.896 114.426 322.928 114.506 322.928C114.746 322.928 115.05 322.896 115.258 322.896C115.45 322.896 115.482 322.976 115.482 323.104C115.482 323.28 115.354 323.776 115.242 324.336L113.898 331.216C113.818 331.6 113.738 332.224 113.738 332.56C113.738 333.392 114.058 333.84 114.618 333.84C115.258 333.84 115.994 332.896 116.282 331.424C116.33 331.152 116.426 330.992 116.57 330.992C116.65 330.992 116.682 331.04 116.682 331.12C116.682 331.344 116.57 331.792 116.362 332.352C115.946 333.472 115.29 334.16 114.554 334.16C113.802 334.16 113.306 333.6 113.306 332.496C113.306 332.128 113.418 331.52 113.754 329.808L114.842 324.32C114.874 324.144 114.922 323.84 114.922 323.6C114.922 323.344 114.778 323.232 114.458 323.232C113.93 323.232 113.53 323.312 113.386 323.312C113.274 323.312 113.21 323.264 113.21 323.152C113.21 322.976 113.45 322.896 113.722 322.896ZM118.472 322.896C118.744 322.896 119.176 322.928 119.256 322.928C119.496 322.928 119.8 322.896 120.008 322.896C120.2 322.896 120.232 322.976 120.232 323.104C120.232 323.28 120.104 323.776 119.992 324.336L118.648 331.216C118.568 331.6 118.488 332.224 118.488 332.56C118.488 333.392 118.808 333.84 119.368 333.84C120.008 333.84 120.744 332.896 121.032 331.424C121.08 331.152 121.176 330.992 121.32 330.992C121.4 330.992 121.432 331.04 121.432 331.12C121.432 331.344 121.32 331.792 121.112 332.352C120.696 333.472 120.04 334.16 119.304 334.16C118.552 334.16 118.056 333.6 118.056 332.496C118.056 332.128 118.168 331.52 118.504 329.808L119.592 324.32C119.624 324.144 119.672 323.84 119.672 323.6C119.672 323.344 119.528 323.232 119.208 323.232C118.68 323.232 118.28 323.312 118.136 323.312C118.024 323.312 117.96 323.264 117.96 323.152C117.96 322.976 118.2 322.896 118.472 322.896ZM123.19 332.8C123.718 332.8 123.958 333.12 123.958 333.76C123.958 335.44 122.422 337.376 121.974 337.376C121.862 337.376 121.814 337.264 121.814 337.184C121.814 337.12 121.878 337.04 122.038 336.912C122.63 336.464 123.398 335.2 123.398 334.48C123.398 334.336 123.398 334.16 123.206 334.16C123.142 334.16 122.95 334.24 122.758 334.24C122.454 334.24 122.246 333.984 122.246 333.664C122.246 333.2 122.694 332.8 123.19 332.8ZM68.8544 341.896C69.1264 341.896 69.5584 341.928 69.6384 341.928C69.8784 341.928 70.1824 341.896 70.3904 341.896C70.5824 341.896 70.6144 341.976 70.6144 342.104C70.6144 342.28 70.4864 342.776 70.3744 343.336L69.0304 350.216C68.9504 350.6 68.8704 351.224 68.8704 351.56C68.8704 352.392 69.1904 352.84 69.7504 352.84C70.3904 352.84 71.1264 351.896 71.4144 350.424C71.4624 350.152 71.5584 349.992 71.7024 349.992C71.7824 349.992 71.8144 350.04 71.8144 350.12C71.8144 350.344 71.7024 350.792 71.4944 351.352C71.0784 352.472 70.4224 353.16 69.6864 353.16C68.9344 353.16 68.4384 352.6 68.4384 351.496C68.4384 351.128 68.5504 350.52 68.8864 348.808L69.9744 343.32C70.0064 343.144 70.0544 342.84 70.0544 342.6C70.0544 342.344 69.9104 342.232 69.5904 342.232C69.0624 342.232 68.6624 342.312 68.5184 342.312C68.4064 342.312 68.3424 342.264 68.3424 342.152C68.3424 341.976 68.5824 341.896 68.8544 341.896ZM77.0284 344.824C78.6124 344.824 79.9404 345.96 79.9404 348.104C79.9404 350.984 78.0204 353.224 75.6204 353.224C73.8284 353.224 72.7084 351.944 72.7084 349.912C72.7084 347.224 74.6604 344.824 77.0284 344.824ZM73.1404 350.04C73.1404 351.992 74.3404 352.888 75.6524 352.888C78.1804 352.888 79.5084 350.056 79.5084 348.088C79.5084 346.216 78.5164 345.16 76.9804 345.16C74.8044 345.16 73.1404 347.496 73.1404 350.04ZM85.3409 344.824C86.9249 344.824 88.2529 345.96 88.2529 348.104C88.2529 350.984 86.3329 353.224 83.9329 353.224C82.1409 353.224 81.0209 351.944 81.0209 349.912C81.0209 347.224 82.9729 344.824 85.3409 344.824ZM81.4529 350.04C81.4529 351.992 82.6529 352.888 83.9649 352.888C86.4929 352.888 87.8209 350.056 87.8209 348.088C87.8209 346.216 86.8289 345.16 85.2929 345.16C83.1169 345.16 81.4529 347.496 81.4529 350.04ZM91.7334 341.896C91.9094 341.896 91.9414 342.008 91.9414 342.136C91.9414 342.248 91.9094 342.472 91.8454 342.808L90.9014 347.64C90.8854 347.752 90.8534 347.928 90.8534 347.992C90.8534 348.136 90.9014 348.2 91.2054 348.2C92.5654 348.2 93.3814 348.088 93.8934 347.112L94.4694 346.024C94.9014 345.208 95.3494 344.888 96.1174 344.888C96.8374 344.888 97.3654 345.448 97.3654 346.088C97.3654 346.488 97.0614 346.92 96.6294 346.92C96.3094 346.92 96.0854 346.68 96.0854 346.36C96.0854 346.088 96.3734 345.976 96.5814 345.976C96.6934 345.976 96.8054 345.976 96.8054 345.832C96.8054 345.528 96.4214 345.224 96.0374 345.224C95.4454 345.224 95.0934 345.56 94.6614 346.408C94.3254 347.064 94.1014 347.464 93.9894 347.624C93.6694 348.056 93.2374 348.328 92.3254 348.376C93.7334 348.552 94.3414 348.824 94.3414 350.408C94.3414 350.808 94.2934 351.336 94.2934 351.656C94.2934 352.36 94.6294 352.84 95.2054 352.84C95.9414 352.84 96.6774 351.528 96.8374 350.072C96.8534 349.96 96.9174 349.88 97.0294 349.88C97.1414 349.88 97.1894 349.944 97.1894 350.024C97.1894 350.392 97.0934 350.872 96.8854 351.416C96.4854 352.456 95.8774 353.16 95.1734 353.16C94.4214 353.16 93.8934 352.792 93.8934 351.256V350.008C93.8934 348.952 92.9494 348.52 91.2054 348.52C90.6134 348.52 90.7094 348.6 90.3254 350.552C90.0694 351.848 89.9894 352.328 89.9094 352.68C89.8294 353.048 89.7174 353.112 89.5734 353.112C89.3974 353.112 89.3654 353.032 89.3654 352.888C89.3654 352.728 89.7494 351.496 89.9574 350.376C91.1414 344.104 91.4294 342.952 91.4294 342.6C91.4294 342.28 91.1734 342.232 90.8374 342.232C90.5334 342.232 90.1174 342.296 89.9094 342.296C89.7814 342.296 89.7174 342.264 89.7174 342.152C89.7174 341.976 89.9574 341.912 90.1974 341.912C90.5654 341.912 90.8054 341.928 91.0134 341.928C91.2534 341.928 91.5414 341.896 91.7334 341.896ZM102.472 344.824C104.168 344.824 105.256 345.56 105.256 346.472C105.256 346.904 104.904 347.272 104.584 347.272C104.2 347.272 104.04 347.048 104.04 346.808C104.04 346.568 104.2 346.36 104.552 346.36C104.744 346.36 104.76 346.328 104.76 346.248C104.76 345.848 104.024 345.16 102.44 345.16C101.112 345.16 99.9442 346.056 99.9442 347.192C99.9442 347.864 100.488 348.264 101.544 348.52L103.112 348.904C104.2 349.176 104.856 349.624 104.856 350.584C104.856 352.088 103.304 353.224 101.32 353.224C99.4642 353.224 98.2002 352.504 98.2002 351.416C98.2002 350.968 98.6642 350.472 99.0962 350.472C99.4962 350.472 99.7042 350.68 99.7042 350.984C99.7042 351.336 99.4962 351.432 99.2882 351.432C99.1922 351.432 99.0802 351.416 98.9682 351.384C98.8562 351.352 98.8082 351.32 98.7922 351.32C98.7122 351.32 98.6322 351.448 98.6322 351.576C98.6322 352.28 99.6722 352.888 101.32 352.888C103.096 352.888 104.408 351.912 104.408 350.584C104.408 349.832 103.832 349.416 102.744 349.16L101.336 348.824C100.072 348.52 99.5122 348.056 99.5122 347.24C99.5122 345.848 100.856 344.824 102.472 344.824ZM116.045 344.824C117.165 344.824 118.029 345.48 118.029 346.584C118.029 347.176 117.821 347.976 117.517 349.128C117.181 350.376 117.053 351.224 117.053 351.528C117.053 352.328 117.341 352.84 117.869 352.84C118.541 352.84 118.941 352.152 119.213 351.464C119.421 350.952 119.597 350.2 119.597 350.232C119.645 350.072 119.693 349.992 119.773 349.992C119.901 349.992 119.949 350.072 119.949 350.152C119.949 350.392 119.853 350.856 119.629 351.4C119.197 352.456 118.605 353.16 117.773 353.16C116.989 353.16 116.605 352.44 116.605 351.72C116.605 351.032 116.749 350.232 117.085 349.048C117.421 347.848 117.581 347.048 117.581 346.616C117.581 345.688 116.797 345.16 115.997 345.16C114.621 345.16 113.277 346.072 112.541 348.12C112.301 348.776 112.109 349.656 111.965 350.312C111.501 352.536 111.661 353.112 111.197 353.112C111.069 353.112 110.973 353.016 110.973 352.888C110.973 352.664 111.133 352.296 111.453 350.664L112.269 346.504C112.301 346.328 112.333 346.12 112.333 346.008C112.333 345.56 112.237 345.336 111.917 345.336C111.357 345.336 110.973 345.416 110.829 345.416C110.717 345.416 110.589 345.4 110.589 345.256C110.589 345.08 110.829 345 111.133 345C111.373 345 111.709 345.032 111.981 345.032C112.221 345.032 112.525 345 112.669 345C112.813 345 112.861 345.128 112.861 345.24C112.861 345.48 112.653 346.28 112.477 347.176L112.349 347.816C113.181 345.816 114.333 344.824 116.045 344.824ZM123.619 342.92C123.619 343.288 123.283 343.544 122.963 343.544C122.643 343.544 122.467 343.336 122.467 343.016C122.467 342.68 122.771 342.408 123.107 342.408C123.427 342.408 123.619 342.648 123.619 342.92ZM123.011 345C123.155 345 123.203 345.064 123.203 345.208C123.203 345.384 123.059 345.944 122.835 347.096C122.371 349.512 122.083 350.76 122.083 351.56C122.083 352.392 122.387 352.84 122.947 352.84C123.747 352.84 124.467 351.416 124.611 350.488C124.659 350.152 124.755 349.992 124.883 349.992C124.995 349.992 125.011 350.024 125.011 350.136C125.011 350.36 124.899 350.84 124.675 351.4C124.243 352.504 123.619 353.16 122.883 353.16C122.131 353.16 121.635 352.6 121.635 351.496C121.635 351 121.731 350.744 122.435 347.064C122.483 346.792 122.643 346.072 122.643 345.672C122.643 345.4 122.403 345.32 122.099 345.32C121.827 345.32 121.283 345.4 121.139 345.4C120.995 345.4 120.931 345.368 120.931 345.256C120.931 345.08 121.187 345.016 121.427 345.016C121.635 345.016 122.163 345.032 122.243 345.032C122.515 345.032 122.819 345 123.011 345ZM130.122 344.824C131.658 344.824 132.634 345.672 132.634 347C132.634 347.592 132.138 348.216 131.562 348.216C131.194 348.216 130.97 348.008 130.97 347.704C130.97 347.384 131.226 347.128 131.498 347.128C131.77 347.128 131.866 347.4 131.946 347.4C132.09 347.4 132.186 347.144 132.186 346.76C132.186 345.976 131.418 345.16 130.058 345.16C127.93 345.16 126.298 347.704 126.298 349.976C126.298 351.784 127.322 352.888 129.034 352.888C130.602 352.888 131.61 351.8 132.09 350.696C132.266 350.296 132.298 350.248 132.426 350.248C132.538 350.248 132.602 350.328 132.602 350.408C132.602 350.648 132.426 351.032 132.09 351.528C131.418 352.536 130.298 353.224 129.034 353.224C126.986 353.224 125.786 351.928 125.786 349.992C125.786 347.24 127.77 344.824 130.122 344.824ZM138.537 344.824C139.833 344.824 140.681 345.496 140.681 346.536C140.681 347.992 138.713 349.256 135.417 349.256C135.033 349.256 134.825 349.224 134.649 349.224C134.345 349.224 134.297 349.224 134.297 350.008C134.297 351.336 134.809 352.888 136.809 352.888C138.681 352.888 139.865 351.416 140.217 350.232C140.265 350.088 140.313 350.024 140.457 350.024C140.601 350.024 140.633 350.088 140.633 350.2C140.633 350.408 140.457 350.872 140.073 351.416C139.305 352.504 138.169 353.224 136.777 353.224C134.937 353.224 133.849 352.088 133.849 350.088C133.849 347.384 135.945 344.824 138.537 344.824ZM134.489 348.728C134.489 348.888 134.489 348.92 135.353 348.92C138.617 348.92 140.233 347.752 140.233 346.568C140.233 345.72 139.657 345.16 138.489 345.16C137.273 345.16 136.233 345.8 135.577 346.6C134.585 347.8 134.489 348.632 134.489 348.728ZM142.589 351.816C143.053 351.816 143.293 352.04 143.293 352.472C143.293 352.872 142.925 353.256 142.413 353.256C142.045 353.256 141.757 353 141.757 352.632C141.757 352.184 142.157 351.816 142.589 351.816ZM146.745 351.816C147.209 351.816 147.449 352.04 147.449 352.472C147.449 352.872 147.081 353.256 146.569 353.256C146.201 353.256 145.913 353 145.913 352.632C145.913 352.184 146.313 351.816 146.745 351.816ZM150.901 351.816C151.365 351.816 151.605 352.04 151.605 352.472C151.605 352.872 151.237 353.256 150.725 353.256C150.357 353.256 150.069 353 150.069 352.632C150.069 352.184 150.469 351.816 150.901 351.816Z" fill="black"/>
<path d="M231.122 322.896C232.706 322.896 233.794 323.536 234.114 324.928C234.322 323.6 234.258 322.96 234.658 322.96C234.802 322.96 234.834 323.104 234.834 323.232C234.834 323.472 234.546 324.144 234.274 325.728C234.13 326.544 234.066 326.992 234.05 327.136C234.018 327.44 233.922 327.52 233.746 327.52C233.57 327.52 233.57 327.376 233.57 327.248C233.57 327.12 233.794 326.416 233.794 325.872C233.794 325.008 233.682 324.752 233.522 324.448C233.17 323.76 232.258 323.28 231.09 323.28C229.074 323.28 227.842 324.656 227.842 325.952C227.842 326.656 228.066 326.944 228.402 327.248C228.994 327.792 230.93 328.208 232.066 328.448C233.218 328.688 233.826 329.536 233.826 330.624C233.826 332.656 232.066 334.272 229.73 334.272C227.938 334.272 226.482 333.488 226.226 332.08C226.194 332.256 226.178 332.416 226.162 332.56C225.97 333.872 225.938 334.096 225.634 334.096C225.522 334.096 225.458 333.984 225.458 333.872C225.474 333.36 225.922 332.32 226.13 330.752C226.322 329.344 226.354 329.2 226.626 329.2C226.738 329.2 226.818 329.248 226.818 329.408C226.818 329.6 226.45 330.416 226.45 331.216C226.45 332.848 227.81 333.888 229.746 333.888C231.778 333.888 233.378 332.496 233.378 330.624C233.378 329.712 232.802 329.04 231.874 328.832C228.946 328.176 227.394 327.824 227.394 325.952C227.394 324.48 228.738 322.896 231.122 322.896ZM241.932 334.16C241.148 334.16 240.684 333.584 240.684 332.864C240.684 332.176 240.844 331.232 241.18 330.048C241.516 328.848 241.676 328.048 241.676 327.616C241.676 326.688 241.02 326.16 240.124 326.16C238.156 326.16 236.604 327.888 235.948 332.352C235.804 333.36 235.724 333.76 235.644 333.952C235.58 334.096 235.484 334.112 235.356 334.112C235.244 334.112 235.18 334.016 235.18 333.92C235.18 333.84 235.34 333.232 235.852 330.592L237.036 324.544C237.1 324.224 237.164 323.792 237.164 323.6C237.164 323.28 236.908 323.232 236.572 323.232C236.268 323.232 235.884 323.296 235.676 323.296C235.548 323.296 235.452 323.264 235.452 323.152C235.452 322.976 235.708 322.912 235.948 322.912C236.268 322.912 236.684 322.928 236.764 322.928C237.004 322.928 237.324 322.896 237.532 322.896C237.708 322.896 237.724 323.056 237.724 323.12C237.724 323.312 237.58 323.792 237.484 324.272L236.652 328.56C237.596 326.64 238.684 325.824 240.188 325.824C241.308 325.824 242.124 326.464 242.124 327.584C242.124 328.176 241.916 328.976 241.612 330.128C241.276 331.376 241.116 332.16 241.116 332.656C241.116 333.424 241.42 333.84 241.948 333.84C242.62 333.84 243.02 333.136 243.292 332.448C243.5 331.936 243.692 331.168 243.692 331.2C243.74 331.04 243.788 330.992 243.868 330.992C243.996 330.992 244.044 331.072 244.044 331.152C244.044 331.424 243.948 331.856 243.724 332.4C243.292 333.456 242.636 334.16 241.932 334.16ZM249.2 325.824C250.784 325.824 252.112 326.96 252.112 329.104C252.112 331.984 250.192 334.224 247.792 334.224C246 334.224 244.88 332.944 244.88 330.912C244.88 328.224 246.832 325.824 249.2 325.824ZM245.312 331.04C245.312 332.992 246.512 333.888 247.824 333.888C250.352 333.888 251.68 331.056 251.68 329.088C251.68 327.216 250.688 326.16 249.152 326.16C246.976 326.16 245.312 328.496 245.312 331.04ZM263.581 325.648C263.869 325.648 264.189 325.76 264.509 326C265.149 326.464 265.389 327.232 265.389 328.624C265.389 329.344 265.181 330.224 264.765 331.168C263.949 333.04 262.621 334.224 261.149 334.224C259.757 334.224 258.957 333.552 258.957 332.288C258.957 332.016 258.973 331.728 259.021 331.456C258.381 333.216 257.069 334.224 255.725 334.224C254.637 334.224 253.917 333.456 253.917 332.592C253.917 332.24 253.949 331.904 254.013 331.568L254.797 327.552C254.861 327.232 254.909 326.912 254.909 326.672C254.909 326.4 254.669 326.32 254.365 326.32C254.093 326.32 253.549 326.4 253.405 326.4C253.261 326.4 253.197 326.368 253.197 326.256C253.197 326.08 253.469 326.016 253.709 326.016C254.189 326.016 254.301 326.032 254.509 326.032C254.781 326.032 255.085 326 255.229 326C255.357 326 255.469 326.08 255.469 326.224C255.469 326.56 255.325 326.896 255.117 328L254.509 331.152C254.461 331.44 254.365 331.904 254.365 332.4C254.365 333.312 254.925 333.888 255.741 333.888C256.765 333.888 258.493 333.296 259.277 329.792C259.533 328.672 259.725 327.584 259.821 326.928C259.917 326.24 259.997 325.936 260.253 325.936C260.381 325.936 260.445 326.016 260.445 326.144C260.445 326.272 260.349 326.736 260.093 327.76C259.645 329.52 259.341 331.248 259.341 332.288C259.341 333.28 260.045 333.888 261.133 333.888C263.261 333.888 264.957 330.976 264.957 328.288C264.957 326.96 264.349 326.112 263.645 326.112C263.501 326.112 263.357 326.144 263.357 326.256C263.357 326.336 263.453 326.464 263.453 326.656C263.453 326.864 263.229 327.088 262.925 327.088C262.589 327.088 262.397 326.896 262.397 326.544C262.397 326.192 262.829 325.648 263.581 325.648ZM283.05 334.16C282.282 334.16 281.802 333.6 281.802 332.592C281.802 332.064 281.962 331.2 282.298 330.016C282.618 328.848 282.778 328.048 282.778 327.584C282.778 326.704 282.106 326.16 281.258 326.16C278.922 326.16 277.61 328.48 277.05 332.624C276.874 333.904 276.842 334.112 276.538 334.112C276.41 334.112 276.33 334.032 276.33 333.904C276.33 333.76 276.394 333.568 276.458 333.312C276.714 332.304 277.53 328.656 277.53 327.824C277.53 326.736 277.018 326.16 275.978 326.16C273.594 326.16 272.41 328.848 271.93 332.08C271.834 332.656 271.738 333.296 271.642 333.76C271.594 334 271.482 334.112 271.274 334.112C271.162 334.112 271.082 334.032 271.082 333.904C271.082 333.664 271.354 332.784 271.594 331.552L272.362 327.664C272.442 327.264 272.458 327.184 272.458 326.976C272.458 326.576 272.362 326.336 272.042 326.336C271.482 326.336 271.098 326.416 270.954 326.416C270.842 326.416 270.73 326.4 270.73 326.256C270.73 326.08 270.97 326 271.258 326C271.498 326 271.834 326.032 272.106 326.032C272.362 326.032 272.634 326 272.81 326C272.954 326 273.002 326.08 273.002 326.224C273.002 326.352 272.778 327.296 272.618 328.08L272.474 328.768C273.434 326.704 274.49 325.824 276.01 325.824C277.146 325.824 277.898 326.48 277.898 327.456C277.898 327.952 277.77 328.448 277.706 328.752C278.682 326.64 279.722 325.824 281.258 325.824C282.41 325.824 283.21 326.448 283.21 327.552C283.21 328.016 283.05 328.832 282.73 330.048C282.394 331.28 282.234 332.128 282.234 332.592C282.234 333.456 282.602 333.84 283.098 333.84C283.658 333.84 284.138 333.136 284.41 332.448C284.618 331.936 284.794 331.168 284.794 331.2C284.842 331.04 284.89 330.992 284.97 330.992C285.098 330.992 285.146 331.072 285.146 331.152C285.146 331.424 285.05 331.872 284.826 332.416C284.394 333.472 283.802 334.16 283.05 334.16ZM290.647 325.824C291.943 325.824 292.791 326.496 292.791 327.536C292.791 328.992 290.823 330.256 287.527 330.256C287.143 330.256 286.935 330.224 286.759 330.224C286.455 330.224 286.407 330.224 286.407 331.008C286.407 332.336 286.919 333.888 288.919 333.888C290.791 333.888 291.975 332.416 292.327 331.232C292.375 331.088 292.423 331.024 292.567 331.024C292.711 331.024 292.743 331.088 292.743 331.2C292.743 331.408 292.567 331.872 292.183 332.416C291.415 333.504 290.279 334.224 288.887 334.224C287.047 334.224 285.959 333.088 285.959 331.088C285.959 328.384 288.055 325.824 290.647 325.824ZM286.599 329.728C286.599 329.888 286.599 329.92 287.463 329.92C290.727 329.92 292.343 328.752 292.343 327.568C292.343 326.72 291.767 326.16 290.599 326.16C289.383 326.16 288.343 326.8 287.687 327.6C286.695 328.8 286.599 329.632 286.599 329.728ZM213.325 344.824C214.909 344.824 216.237 345.96 216.237 348.104C216.237 350.984 214.317 353.224 211.917 353.224C210.125 353.224 209.005 351.944 209.005 349.912C209.005 347.224 210.957 344.824 213.325 344.824ZM209.437 350.04C209.437 351.992 210.637 352.888 211.949 352.888C214.477 352.888 215.805 350.056 215.805 348.088C215.805 346.216 214.813 345.16 213.277 345.16C211.101 345.16 209.437 347.496 209.437 350.04ZM220.294 342.024C220.422 342.024 220.47 342.072 220.47 342.2C220.47 342.6 219.974 344.184 219.974 344.808C219.974 345.016 220.134 345.064 220.406 345.064C220.71 345.064 221.238 344.984 221.75 344.984C222.134 344.984 222.262 345.032 222.262 345.144C222.262 345.32 222.134 345.368 221.798 345.368L220.166 345.352C219.862 345.352 219.83 345.48 219.766 345.848L218.95 350.168C218.838 350.776 218.79 351.416 218.79 351.672C218.79 352.488 219.174 352.888 219.862 352.888C220.454 352.888 221.51 352.568 221.926 350.376C222.102 349.416 222.166 349.4 222.31 349.4C222.422 349.4 222.47 349.48 222.47 349.592C222.47 349.8 222.406 350.088 222.294 350.456C222.038 351.32 221.542 353.224 219.862 353.224C218.934 353.224 218.342 352.664 218.342 351.752C218.342 351.304 218.39 350.808 218.486 350.344C218.822 348.6 219.382 345.832 219.382 345.544C219.382 345.368 219.318 345.32 219.206 345.32C219.062 345.32 218.406 345.336 217.974 345.336C217.798 345.336 217.718 345.288 217.718 345.176C217.718 345.032 217.894 345 218.262 345H218.838C219.366 345 219.574 344.952 219.814 343.56L220.022 342.328C220.054 342.104 220.15 342.024 220.294 342.024ZM230.416 353.16C229.632 353.16 229.168 352.584 229.168 351.864C229.168 351.176 229.328 350.232 229.664 349.048C230 347.848 230.16 347.048 230.16 346.616C230.16 345.688 229.504 345.16 228.608 345.16C226.64 345.16 225.088 346.888 224.432 351.352C224.288 352.36 224.208 352.76 224.128 352.952C224.064 353.096 223.968 353.112 223.84 353.112C223.728 353.112 223.664 353.016 223.664 352.92C223.664 352.84 223.824 352.232 224.336 349.592L225.52 343.544C225.584 343.224 225.648 342.792 225.648 342.6C225.648 342.28 225.392 342.232 225.056 342.232C224.752 342.232 224.368 342.296 224.16 342.296C224.032 342.296 223.936 342.264 223.936 342.152C223.936 341.976 224.192 341.912 224.432 341.912C224.752 341.912 225.168 341.928 225.248 341.928C225.488 341.928 225.808 341.896 226.016 341.896C226.192 341.896 226.208 342.056 226.208 342.12C226.208 342.312 226.064 342.792 225.968 343.272L225.136 347.56C226.08 345.64 227.168 344.824 228.672 344.824C229.792 344.824 230.608 345.464 230.608 346.584C230.608 347.176 230.4 347.976 230.096 349.128C229.76 350.376 229.6 351.16 229.6 351.656C229.6 352.424 229.904 352.84 230.432 352.84C231.104 352.84 231.504 352.136 231.776 351.448C231.984 350.936 232.176 350.168 232.176 350.2C232.224 350.04 232.272 349.992 232.352 349.992C232.48 349.992 232.528 350.072 232.528 350.152C232.528 350.424 232.432 350.856 232.208 351.4C231.776 352.456 231.12 353.16 230.416 353.16ZM238.069 344.824C239.365 344.824 240.213 345.496 240.213 346.536C240.213 347.992 238.245 349.256 234.949 349.256C234.565 349.256 234.357 349.224 234.181 349.224C233.877 349.224 233.829 349.224 233.829 350.008C233.829 351.336 234.341 352.888 236.341 352.888C238.213 352.888 239.397 351.416 239.749 350.232C239.797 350.088 239.845 350.024 239.989 350.024C240.133 350.024 240.165 350.088 240.165 350.2C240.165 350.408 239.989 350.872 239.605 351.416C238.837 352.504 237.701 353.224 236.309 353.224C234.469 353.224 233.381 352.088 233.381 350.088C233.381 347.384 235.477 344.824 238.069 344.824ZM234.021 348.728C234.021 348.888 234.021 348.92 234.885 348.92C238.149 348.92 239.765 347.752 239.765 346.568C239.765 345.72 239.189 345.16 238.021 345.16C236.805 345.16 235.765 345.8 235.109 346.6C234.117 347.8 234.021 348.632 234.021 348.728ZM246.676 344.824C247.364 344.824 247.844 345.192 247.844 345.816C247.844 346.264 247.492 346.664 247.092 346.664C246.852 346.664 246.66 346.44 246.66 346.232C246.66 345.928 246.884 345.736 247.092 345.704C247.22 345.688 247.284 345.672 247.284 345.576C247.284 345.368 246.964 345.16 246.58 345.16C245.636 345.16 244.692 345.704 244.084 346.728C243.444 347.816 242.964 349.144 242.612 351.944C242.468 353.112 242.308 353.112 242.132 353.112C242.02 353.112 241.924 353.032 241.924 352.92C241.924 352.84 241.972 352.664 242.052 352.296C242.516 350.12 242.948 347.752 243.22 346.408C243.316 345.96 243.332 345.816 243.332 345.672C243.332 345.4 243.076 345.32 242.772 345.32C242.452 345.32 242.036 345.4 241.796 345.4C241.652 345.4 241.604 345.368 241.604 345.256C241.604 345.096 241.812 345.016 242.212 345.016H243.028C243.108 345.016 243.348 345 243.652 345C243.796 345 243.892 345.048 243.892 345.176C243.892 345.432 243.716 345.72 243.364 347.544C244.132 345.704 245.252 344.824 246.676 344.824ZM257.797 341.896C259.685 341.896 260.741 342.616 261.141 344.216L261.189 343.816C261.349 342.456 261.397 342.072 261.669 342.072C261.797 342.072 261.845 342.232 261.845 342.36C261.845 342.6 261.557 343.496 261.365 344.44C261.221 345.096 261.189 345.688 261.141 346.088C261.077 346.568 260.965 346.648 260.789 346.648C260.661 346.648 260.629 346.52 260.629 346.344C260.629 346.152 260.837 345.448 260.837 345C260.837 343.272 259.797 342.28 257.813 342.28C254.869 342.28 252.709 345.592 252.709 348.632C252.709 351.352 254.117 352.888 256.437 352.888C259.269 352.888 260.293 350.456 260.293 348.984C260.293 348.552 260.117 348.44 259.685 348.44C259.445 348.44 259.109 348.472 258.773 348.472C258.517 348.472 258.357 348.456 258.357 348.28C258.357 348.104 258.565 348.04 258.741 348.04C258.917 348.04 259.525 348.136 260.661 348.136C261.573 348.136 262.165 348.04 262.405 348.04C262.645 348.04 262.757 348.088 262.757 348.2C262.757 348.392 262.549 348.472 262.421 348.472H261.605C261.125 348.472 260.837 348.568 260.613 349.784C260.501 350.408 260.341 351.416 260.261 352.248C260.197 352.92 260.165 353.144 259.893 353.144C259.749 353.144 259.669 353.032 259.669 352.904C259.669 352.776 259.909 352.12 260.101 351.096C259.285 352.568 258.133 353.272 256.405 353.272C253.797 353.272 252.261 351.544 252.261 348.712C252.261 345.048 254.805 341.896 257.797 341.896ZM269.263 341.896C271.775 341.896 273.183 343.544 273.183 346.36C273.183 348.184 272.591 350.04 271.583 351.32C270.591 352.584 269.391 353.272 267.647 353.272C265.295 353.272 263.823 351.48 263.823 348.856C263.823 345.032 266.271 341.896 269.263 341.896ZM264.255 348.92C264.255 351.336 265.567 352.888 267.663 352.888C268.751 352.888 269.663 352.584 270.383 351.976C271.855 350.744 272.751 348.408 272.751 346.392C272.751 343.768 271.503 342.28 269.279 342.28C266.431 342.28 264.255 345.464 264.255 348.92ZM279.67 341.896C282.182 341.896 283.59 343.544 283.59 346.36C283.59 348.184 282.998 350.04 281.99 351.32C280.998 352.584 279.798 353.272 278.054 353.272C275.702 353.272 274.23 351.48 274.23 348.856C274.23 345.032 276.678 341.896 279.67 341.896ZM274.662 348.92C274.662 351.336 275.974 352.888 278.07 352.888C279.158 352.888 280.07 352.584 280.79 351.976C282.262 350.744 283.158 348.408 283.158 346.392C283.158 343.768 281.91 342.28 279.686 342.28C276.838 342.28 274.662 345.464 274.662 348.92ZM289.356 341.896C290.94 341.896 292.028 342.536 292.348 343.928C292.556 342.6 292.492 341.96 292.892 341.96C293.036 341.96 293.068 342.104 293.068 342.232C293.068 342.472 292.78 343.144 292.508 344.728C292.364 345.544 292.3 345.992 292.284 346.136C292.252 346.44 292.156 346.52 291.98 346.52C291.804 346.52 291.804 346.376 291.804 346.248C291.804 346.12 292.028 345.416 292.028 344.872C292.028 344.008 291.916 343.752 291.756 343.448C291.404 342.76 290.492 342.28 289.324 342.28C287.308 342.28 286.076 343.656 286.076 344.952C286.076 345.656 286.3 345.944 286.636 346.248C287.228 346.792 289.164 347.208 290.3 347.448C291.452 347.688 292.06 348.536 292.06 349.624C292.06 351.656 290.3 353.272 287.964 353.272C286.172 353.272 284.716 352.488 284.46 351.08C284.428 351.256 284.412 351.416 284.396 351.56C284.204 352.872 284.172 353.096 283.868 353.096C283.756 353.096 283.692 352.984 283.692 352.872C283.708 352.36 284.156 351.32 284.364 349.752C284.556 348.344 284.588 348.2 284.86 348.2C284.972 348.2 285.052 348.248 285.052 348.408C285.052 348.6 284.684 349.416 284.684 350.216C284.684 351.848 286.044 352.888 287.98 352.888C290.012 352.888 291.612 351.496 291.612 349.624C291.612 348.712 291.036 348.04 290.108 347.832C287.18 347.176 285.628 346.824 285.628 344.952C285.628 343.48 286.972 341.896 289.356 341.896ZM294.966 342.056C295.11 342.056 295.686 342.152 296.694 342.152C298.598 342.152 301.062 342.056 302.79 342.056C303.19 342.056 303.302 342.12 303.302 342.36C303.302 342.616 302.998 343.544 302.838 344.616C302.678 345.656 302.662 346.184 302.358 346.184C302.214 346.184 302.182 346.008 302.182 345.88C302.182 345.48 302.742 344.008 302.742 342.984C302.742 342.584 302.406 342.488 301.302 342.488H297.83C296.886 342.488 296.758 342.584 296.534 343.752L296.054 346.216C296.006 346.456 295.958 346.712 295.958 346.776C295.958 347.064 296.134 347.064 296.438 347.064H298.598C299.366 347.064 299.734 346.728 299.846 345.72C299.942 344.904 300.022 344.648 300.246 344.648C300.39 344.648 300.422 344.76 300.422 344.888C300.422 345.192 300.086 345.864 299.91 346.824C299.462 349.24 299.718 349.88 299.238 349.88C299.078 349.88 299.078 349.736 299.078 349.624C299.078 349.352 299.382 348.52 299.382 348.072C299.382 347.608 299.19 347.432 298.342 347.432H296.182C295.942 347.432 295.798 347.576 295.75 347.8C295.622 348.408 295.222 350.44 295.094 351.176C294.982 351.8 294.918 352.136 294.918 352.28C294.918 352.536 295.062 352.616 296.294 352.616H299.542C301.318 352.616 301.478 352.408 301.798 350.36C302.006 349.032 302.086 348.968 302.278 348.968C302.422 348.968 302.47 349.064 302.47 349.192C302.47 349.24 302.438 349.368 302.326 349.784C302.198 350.264 301.75 352.344 301.734 352.536C301.702 352.856 301.382 353.048 300.998 353.048C300.534 353.048 298.214 352.952 294.71 352.952C293.574 352.952 293.19 353.048 292.982 353.048C292.79 353.048 292.63 353.032 292.63 352.84C292.63 352.712 292.822 352.616 293.014 352.616C293.094 352.616 293.462 352.648 293.734 352.648C294.262 352.648 294.438 352.136 294.646 351.08L295.958 344.312C296.102 343.592 296.166 343.112 296.166 342.856C296.166 342.616 295.99 342.472 295.718 342.472C295.35 342.472 294.918 342.504 294.838 342.504C294.662 342.504 294.534 342.472 294.534 342.28C294.534 342.152 294.758 342.056 294.966 342.056ZM308.495 341.896C308.639 341.896 308.735 341.976 308.735 342.12C308.719 342.52 308.607 342.728 308.159 345.016L307.551 348.104C307.151 350.12 307.183 350.952 306.799 350.952C306.719 350.952 306.591 350.856 306.591 350.728C306.591 350.536 306.911 348.776 307.087 347.944L307.631 345.304C308.095 343.016 308.031 341.896 308.495 341.896ZM306.543 351.816C306.975 351.816 307.231 352.024 307.231 352.456C307.231 352.856 306.863 353.256 306.335 353.256C305.967 353.256 305.711 353 305.711 352.632C305.711 352.168 306.111 351.816 306.543 351.816Z" fill="black"/>
<mask id="mask0_11_653" style="mask-type:alpha" maskUnits="userSpaceOnUse" x="119" y="60" width="134" height="134">
<rect x="119" y="60" width="134" height="134" fill="#D9D9D9"/>
</mask>
<g mask="url(#mask0_11_653)">
<rect x="74.5721" y="5.54028" width="238.62" height="250.802" fill="#95CBE2"/>
<path d="M189.629 225.053C187.177 227.015 184.779 229.054 182.842 231.509C179.798 235.356 178.369 237.11 173.412 236.518C169.377 236.033 165.28 235.24 161.283 234.171C156.533 232.901 151.553 232.794 146.703 231.955C135.474 230.016 130.263 221.821 124.668 212.765C120.741 206.401 116.014 205.593 108.689 205.432C109.527 204.578 110.365 203.716 111.203 202.862C108.835 202.538 99.0666 203.608 103.793 199.368C108.197 195.413 113.055 191.974 118.25 189.127C122.816 186.618 127.696 184.541 131.639 181.14C134.106 179.008 136.128 176.423 138.38 174.068C150.838 161.034 169.915 155.786 187.976 156.71C189.767 137.596 182.742 118.483 184.402 99.3541C184.886 93.7678 186.662 84.1726 191.735 80.8024C196.823 77.4245 205.923 80.8255 209.727 84.7344C212.24 87.3197 212.233 92.9676 212.156 96.2762C212.11 98.2383 212.125 101.285 211.08 103.032C209.181 106.218 204.862 104.709 202.541 107.095C200.804 108.88 201.088 111.904 201.388 114.143C202.095 119.437 204.347 124.408 206.299 129.332C209.765 138.089 211.818 147.753 217.175 155.648C222.409 163.373 226.897 170.013 226.536 179.839C226.198 189.142 221.002 198.999 214.438 205.485C211.126 208.756 206.914 210.649 203.409 213.572C199.251 217.035 195.155 220.69 190.866 224.083C190.451 224.414 190.044 224.737 189.629 225.068V225.053Z" fill="white"/>
<path d="M211.203 106.218C210.58 105.625 209.927 105.063 209.181 104.679C207.367 103.74 205.223 104.363 203.486 103.44C198.951 101.031 202.74 95.4991 202.848 92.1519C202.91 90.3283 203.286 88.9818 205.062 88.1123C207.075 87.1274 210.257 87.3659 211.717 89.2203C212.878 90.69 212.34 92.6136 212.44 94.3141C212.655 97.9229 216.99 101.17 218.481 104.332C219.611 106.725 219.203 108.857 216.329 109.011C214.016 109.134 212.671 107.587 211.21 106.202L211.203 106.218Z" fill="#E99A4F"/>
<path d="M208.467 99.654C208.951 99.6771 209.589 100 209.858 100.162C210.426 100.5 210.957 101.062 210.795 101.77C210.726 102.07 210.403 102.27 210.081 102.201C209.496 102.07 207.083 100.462 208.052 99.754C208.159 99.6771 208.305 99.6463 208.467 99.654Z" fill="#B28356"/>
<path d="M161.983 197.976C160.699 198.453 159.431 198.891 158.17 199.299C156.541 199.822 154.712 200.269 153.175 199.522C151.637 198.776 150.984 196.298 152.437 195.398C149.355 197.637 145.566 198.899 141.753 198.968C140.324 198.991 138.764 198.799 137.749 197.799C136.735 196.798 136.712 194.767 138.01 194.175C134.191 195.737 130.002 196.391 125.882 196.067C123.646 195.89 120.817 194.636 121.179 192.428C121.448 190.797 125.698 187.834 126.874 186.726C129.564 184.187 132.169 181.694 135.182 179.47C140.608 175.461 145.289 170.468 151.038 166.897C156.003 163.812 161.591 161.534 167.439 161.172C174.088 160.765 186.001 166.035 186.093 173.961C186.17 180.671 185.409 186.165 179.645 189.558C174.257 192.736 168.054 195.713 161.983 197.968V197.976Z" fill="#DFDFDD"/>
<path d="M198.936 91.5213C198.828 90.7287 198.014 89.8054 197.099 89.613C196.415 89.4668 195.623 89.8285 195.431 90.5672C195.27 91.175 195.562 91.8675 196.015 92.26C196.477 92.6524 197.068 92.7755 197.637 92.7447C198.682 92.6832 199.021 92.1445 198.936 91.5213Z" fill="#1D1D1B"/>
<path d="M203.355 101.355C205.4 102.155 207.567 102.501 209.327 103.878C210.296 104.64 211.072 105.579 211.963 106.418C213.708 108.08 216.598 109.018 218.397 106.772C218.589 106.533 218.842 106.533 219.05 106.656C219.034 107.456 218.719 108.126 218.051 108.541C217.859 108.649 217.666 108.734 217.467 108.811C217.136 108.918 216.759 108.995 216.321 109.018C214.008 109.142 212.663 107.595 211.203 106.21C210.58 105.617 209.927 105.056 209.181 104.671C209.097 104.625 209.004 104.602 208.912 104.563C207.175 103.217 205.008 102.824 203.317 101.424C203.286 101.393 203.317 101.332 203.363 101.347L203.355 101.355Z" fill="#B28356"/>
<path d="M185.563 67.2293C185.186 66.306 184.763 65.398 184.264 64.5285C183.488 63.1897 194.317 60.2503 195.208 60.158C199.22 59.7579 203.724 60.1272 207.629 61.1583C207.383 62.7511 207.206 64.3054 207.052 65.9597C206.906 67.5294 206.653 69.1068 206.53 70.6842C206.376 72.6155 205.892 74.6777 206.13 76.6244C207.959 76.6706 210.011 76.5628 211.856 76.3243C213.178 76.1473 214.631 75.7857 215.899 76.4551C218.304 77.7247 215.338 81.0719 214.192 82.0106C210.004 85.4501 205.085 87.1737 199.82 87.9585C195.439 88.6126 190.889 88.8896 186.562 87.7662C184.817 87.3122 176.201 84.2267 179.737 81.1334C180.774 80.2255 188.86 79.8792 188.96 79.0559C188.314 76.1935 187.815 73.3157 186.816 70.538C186.416 69.43 186.032 68.3143 185.586 67.2216L185.563 67.2293Z" fill="#1D1D1B"/>
<path d="M189.636 79.0867C189.636 79.0867 189.867 79.179 190.236 79.3252C190.628 79.4791 191.204 79.6561 191.942 79.81C193.402 80.1332 195.524 80.2871 197.783 79.9023C200.043 79.5176 201.957 78.7481 203.294 78.1172C204.631 77.4785 205.408 76.9861 205.408 76.9861C205.408 76.9861 204.485 77.0938 203.04 77.3246C201.211 77.6324 199.297 77.9633 197.499 78.2634C195.37 78.625 193.433 78.8866 191.996 78.979C191.281 79.0328 190.682 79.0636 190.274 79.0636C189.882 79.079 189.629 79.0867 189.629 79.0867H189.636Z" fill="white"/>
<path d="M191.012 136.812C191.996 134.318 197.422 138.281 199.436 138.812C200.181 139.012 203.878 140.859 204.439 140.289C207.129 137.55 209.812 134.88 212.471 132.118C213.578 130.971 214.147 129.786 215.384 131.548C216.36 132.949 216.598 135.165 216.96 136.819C217.482 139.181 218.343 141.513 218.835 143.898C219.481 147.022 219.457 147.784 217.29 147.361C213.347 146.591 209.304 144.999 205.362 143.829C204.631 143.614 202.257 147.538 201.726 148.146C200.289 149.785 198.552 152.101 196.561 152.593C194.824 153.016 193.925 150.362 193.41 148.423C192.68 145.668 192.081 143.013 191.304 140.289C190.812 138.566 190.759 137.466 191.02 136.804L191.012 136.812Z" fill="#1D1D1B"/>
</g>
<line x1="184.5" y1="485" x2="184.5" y2="253" stroke="#D8D8D8"/>
<path d="M120.99 384.421C120.494 384.421 120.02 384.625 119.689 384.979L107.105 398.457L101.244 392.845C100.914 392.529 100.476 392.355 100.011 392.355C99.545 392.355 99.1023 392.531 98.7718 392.85C98.0918 393.507 98.0941 394.573 98.7768 395.228L105.942 402.089C106.272 402.405 106.71 402.579 107.176 402.579C107.197 402.579 107.22 402.578 107.224 402.577C107.701 402.565 108.157 402.361 108.477 402.02L122.291 387.225C122.935 386.535 122.874 385.47 122.157 384.852C121.836 384.574 121.421 384.421 120.99 384.421L120.99 384.421Z" fill="#379923"/>
<path d="M110.5 371C98.0935 371 88 381.093 88 393.5C88 405.907 98.0935 416 110.5 416C122.907 416 133 405.907 133 393.5C133 381.093 122.907 371 110.5 371ZM110.5 412.539C100.002 412.539 91.4614 403.998 91.4614 393.5C91.4614 383.002 100.002 374.461 110.5 374.461C120.998 374.461 129.539 383.002 129.539 393.5C129.539 403.998 120.998 412.539 110.5 412.539Z" fill="#379923"/>
<g clip-path="url(#clip0_11_653)">
<path d="M257.052 393.5L249.969 386.417C249.294 385.742 249.294 384.643 249.969 383.968C250.295 383.641 250.73 383.461 251.193 383.461C251.655 383.461 252.09 383.641 252.416 383.968L259.5 391.052L266.583 383.968C266.91 383.641 267.345 383.461 267.807 383.461C268.27 383.461 268.705 383.641 269.032 383.968C269.706 384.643 269.706 385.741 269.032 386.416L261.948 393.5L269.032 400.584C269.359 400.911 269.539 401.345 269.539 401.808C269.539 402.27 269.359 402.705 269.032 403.031C268.705 403.358 268.271 403.539 267.808 403.539C267.346 403.539 266.912 403.359 266.584 403.031L259.5 395.948L252.417 403.031C252.09 403.358 251.655 403.539 251.193 403.539C250.731 403.539 250.295 403.359 249.969 403.031C249.642 402.705 249.462 402.27 249.462 401.807C249.462 401.345 249.642 400.911 249.969 400.584L257.053 393.5H257.052Z" fill="#CC2D28"/>
<path d="M259.5 371C271.907 371 282 381.093 282 393.5C282 405.907 271.907 416 259.5 416C247.093 416 237 405.907 237 393.5C237 381.093 247.093 371 259.5 371ZM259.5 412.539C269.998 412.539 278.539 403.998 278.539 393.5C278.539 383.002 269.998 374.461 259.5 374.461C249.002 374.461 240.461 383.002 240.461 393.5C240.461 403.998 249.002 412.539 259.5 412.539Z" fill="#CC2D28"/>
</g>
<defs>
<clipPath id="clip0_11_653">
<rect width="45" height="45" fill="white" transform="matrix(-1 0 0 1 282 371)"/>
</clipPath>
</defs>
</svg>
