<svg width="371" height="278" viewBox="0 0 371 278" fill="none" xmlns="http://www.w3.org/2000/svg">
<path d="M41.021 241L49.9237 255.482L22.1439 272.559C18.1447 275.018 12.9097 273.769 10.4513 269.769V269.769C7.99291 265.77 9.24199 260.535 13.2412 258.077L41.021 241Z" fill="#131313"/>
<path d="M320 255.515L328.903 241.033L356.682 258.11C360.682 260.568 361.931 265.803 359.472 269.802V269.802C357.014 273.801 351.779 275.05 347.78 272.592L320 255.515Z" fill="#131313"/>
<rect x="335" width="36" height="119" rx="4" fill="#131313"/>
<path d="M9 119H26V265.5C26 270.194 22.1944 274 17.5 274V274C12.8056 274 9 270.194 9 265.5V119Z" fill="#131313"/>
<rect width="36" height="119" rx="4" fill="#131313"/>
<rect x="349" y="30" width="15" height="321" rx="4" transform="rotate(90 349 30)" fill="#131313"/>
<path d="M344 119H361V265.5C361 270.194 357.194 274 352.5 274V274C347.806 274 344 270.194 344 265.5V119Z" fill="#131313"/>
</svg>
