<svg width="332" height="24" viewBox="0 0 332 24" fill="none" xmlns="http://www.w3.org/2000/svg">
<path d="M0.699219 9.39844C0.699219 8.64844 0.941406 8.03125 1.42578 7.54688C1.91797 7.0625 2.53906 6.82031 3.28906 6.82031C4.03906 6.82031 4.65625 7.0625 5.14062 7.54688C5.63281 8.03125 5.87891 8.64844 5.87891 9.39844C5.87891 10.1484 5.63281 10.7695 5.14062 11.2617C4.65625 11.7539 4.03906 12 3.28906 12C2.53906 12 1.91797 11.7539 1.42578 11.2617C0.941406 10.7695 0.699219 10.1484 0.699219 9.39844ZM27.1494 16.7109C25.8603 17.8906 24.2119 18.4805 22.2041 18.4805C19.7197 18.4805 17.7666 17.6836 16.3447 16.0898C14.9228 14.4883 14.2119 12.293 14.2119 9.50391C14.2119 6.48828 15.0205 4.16406 16.6377 2.53125C18.0439 1.10938 19.833 0.398438 22.0048 0.398438C24.9111 0.398438 27.0361 1.35156 28.3798 3.25781C29.122 4.32812 29.5205 5.40234 29.5752 6.48047H25.9658C25.7314 5.65234 25.4306 5.02734 25.0634 4.60547C24.4072 3.85547 23.4345 3.48047 22.1455 3.48047C20.833 3.48047 19.7978 4.01172 19.04 5.07422C18.2822 6.12891 17.9033 7.625 17.9033 9.5625C17.9033 11.5 18.3017 12.9531 19.0986 13.9219C19.9033 14.8828 20.9228 15.3633 22.1572 15.3633C23.4228 15.3633 24.3877 14.9492 25.0517 14.1211C25.4189 13.6758 25.7236 13.0078 25.9658 12.1172H29.54C29.2275 14 28.4306 15.5312 27.1494 16.7109ZM43.0991 10.5V18H39.6889V10.2305C39.6889 9.54297 39.5717 8.98828 39.3373 8.56641C39.0327 7.97266 38.4545 7.67578 37.603 7.67578C36.7202 7.67578 36.0483 7.97266 35.5873 8.56641C35.1342 9.15234 34.9077 9.99219 34.9077 11.0859V18H31.5795V0.785156H34.9077V6.89062C35.392 6.14844 35.9506 5.63281 36.5834 5.34375C37.2241 5.04688 37.8959 4.89844 38.5991 4.89844C39.3881 4.89844 40.103 5.03516 40.7436 5.30859C41.392 5.58203 41.9233 6 42.3373 6.5625C42.6889 7.03906 42.9037 7.53125 42.9819 8.03906C43.06 8.53906 43.0991 9.35938 43.0991 10.5ZM56.4003 6.84375C57.4784 8.19531 58.0175 9.79297 58.0175 11.6367C58.0175 13.5117 57.4784 15.1172 56.4003 16.4531C55.3222 17.7812 53.6855 18.4453 51.4902 18.4453C49.2948 18.4453 47.6581 17.7812 46.58 16.4531C45.5019 15.1172 44.9628 13.5117 44.9628 11.6367C44.9628 9.79297 45.5019 8.19531 46.58 6.84375C47.6581 5.49219 49.2948 4.81641 51.4902 4.81641C53.6855 4.81641 55.3222 5.49219 56.4003 6.84375ZM51.4784 7.64062C50.5019 7.64062 49.748 7.98828 49.2167 8.68359C48.6933 9.37109 48.4316 10.3555 48.4316 11.6367C48.4316 12.918 48.6933 13.9062 49.2167 14.6016C49.748 15.2969 50.5019 15.6445 51.4784 15.6445C52.455 15.6445 53.205 15.2969 53.7284 14.6016C54.2519 13.9062 54.5136 12.918 54.5136 11.6367C54.5136 10.3555 54.2519 9.37109 53.7284 8.68359C53.205 7.98828 52.455 7.64062 51.4784 7.64062ZM70.5922 6.84375C71.6703 8.19531 72.2094 9.79297 72.2094 11.6367C72.2094 13.5117 71.6703 15.1172 70.5922 16.4531C69.5141 17.7812 67.8773 18.4453 65.682 18.4453C63.4867 18.4453 61.85 17.7812 60.7719 16.4531C59.6937 15.1172 59.1547 13.5117 59.1547 11.6367C59.1547 9.79297 59.6937 8.19531 60.7719 6.84375C61.85 5.49219 63.4867 4.81641 65.682 4.81641C67.8773 4.81641 69.5141 5.49219 70.5922 6.84375ZM65.6703 7.64062C64.6937 7.64062 63.9398 7.98828 63.4086 8.68359C62.8852 9.37109 62.6234 10.3555 62.6234 11.6367C62.6234 12.918 62.8852 13.9062 63.4086 14.6016C63.9398 15.2969 64.6937 15.6445 65.6703 15.6445C66.6469 15.6445 67.3969 15.2969 67.9203 14.6016C68.4437 13.9062 68.7055 12.918 68.7055 11.6367C68.7055 10.3555 68.4437 9.37109 67.9203 8.68359C67.3969 7.98828 66.6469 7.64062 65.6703 7.64062ZM82.9325 5.8125C83.9325 6.45312 84.5067 7.55469 84.6552 9.11719H81.3153C81.2684 8.6875 81.1473 8.34766 80.952 8.09766C80.5848 7.64453 79.9598 7.41797 79.077 7.41797C78.3505 7.41797 77.8309 7.53125 77.5184 7.75781C77.2138 7.98438 77.0614 8.25 77.0614 8.55469C77.0614 8.9375 77.2255 9.21484 77.5536 9.38672C77.8817 9.56641 79.0419 9.875 81.0341 10.3125C82.3622 10.625 83.3583 11.0977 84.0223 11.7305C84.6786 12.3711 85.0067 13.1719 85.0067 14.1328C85.0067 15.3984 84.5341 16.4336 83.5888 17.2383C82.6513 18.0352 81.1981 18.4336 79.2294 18.4336C77.2216 18.4336 75.7372 18.0117 74.7763 17.168C73.8231 16.3164 73.3466 15.2344 73.3466 13.9219H76.7333C76.8036 14.5156 76.9559 14.9375 77.1903 15.1875C77.6044 15.6328 78.37 15.8555 79.4872 15.8555C80.1434 15.8555 80.663 15.7578 81.0458 15.5625C81.4364 15.3672 81.6317 15.0742 81.6317 14.6836C81.6317 14.3086 81.4755 14.0234 81.163 13.8281C80.8505 13.6328 79.6903 13.2969 77.6825 12.8203C76.2372 12.4609 75.2177 12.0117 74.6239 11.4727C74.0302 10.9414 73.7333 10.1758 73.7333 9.17578C73.7333 7.99609 74.1942 6.98438 75.1161 6.14062C76.0458 5.28906 77.3505 4.86328 79.0302 4.86328C80.6239 4.86328 81.9247 5.17969 82.9325 5.8125ZM97.9447 14.25C97.8587 15.0078 97.4642 15.7773 96.7611 16.5586C95.6673 17.8008 94.1361 18.4219 92.1673 18.4219C90.5423 18.4219 89.1087 17.8984 87.8666 16.8516C86.6244 15.8047 86.0033 14.1016 86.0033 11.7422C86.0033 9.53125 86.5619 7.83594 87.6791 6.65625C88.8041 5.47656 90.2611 4.88672 92.0502 4.88672C93.1127 4.88672 94.0697 5.08594 94.9212 5.48438C95.7728 5.88281 96.4759 6.51172 97.0306 7.37109C97.5306 8.12891 97.8548 9.00781 98.0033 10.0078C98.0892 10.5938 98.1244 11.4375 98.1087 12.5391H89.3666C89.4134 13.8203 89.8158 14.7188 90.5736 15.2344C91.0345 15.5547 91.5892 15.7148 92.2377 15.7148C92.9252 15.7148 93.4837 15.5195 93.9134 15.1289C94.1478 14.918 94.3548 14.625 94.5345 14.25H97.9447ZM94.64 10.3359C94.5853 9.45312 94.3158 8.78516 93.8314 8.33203C93.3548 7.87109 92.7611 7.64062 92.0502 7.64062C91.2767 7.64062 90.6752 7.88281 90.2455 8.36719C89.8236 8.85156 89.558 9.50781 89.4486 10.3359H94.64ZM111.282 14.6484L113.918 5.22656H117.469L113.086 17.7891C112.243 20.2109 111.575 21.7109 111.082 22.2891C110.59 22.875 109.606 23.168 108.129 23.168C107.832 23.168 107.594 23.1641 107.414 23.1562C107.235 23.1562 106.965 23.1445 106.606 23.1211V20.4492L107.028 20.4727C107.356 20.4883 107.668 20.4766 107.965 20.4375C108.262 20.3984 108.512 20.3086 108.715 20.168C108.91 20.0352 109.09 19.7578 109.254 19.3359C109.426 18.9141 109.496 18.6562 109.465 18.5625L104.778 5.22656H108.493L111.282 14.6484ZM129.622 6.84375C130.7 8.19531 131.239 9.79297 131.239 11.6367C131.239 13.5117 130.7 15.1172 129.622 16.4531C128.544 17.7812 126.907 18.4453 124.712 18.4453C122.516 18.4453 120.88 17.7812 119.802 16.4531C118.723 15.1172 118.184 13.5117 118.184 11.6367C118.184 9.79297 118.723 8.19531 119.802 6.84375C120.88 5.49219 122.516 4.81641 124.712 4.81641C126.907 4.81641 128.544 5.49219 129.622 6.84375ZM124.7 7.64062C123.723 7.64062 122.97 7.98828 122.438 8.68359C121.915 9.37109 121.653 10.3555 121.653 11.6367C121.653 12.918 121.915 13.9062 122.438 14.6016C122.97 15.2969 123.723 15.6445 124.7 15.6445C125.677 15.6445 126.427 15.2969 126.95 14.6016C127.473 13.9062 127.735 12.918 127.735 11.6367C127.735 10.3555 127.473 9.37109 126.95 8.68359C126.427 7.98828 125.677 7.64062 124.7 7.64062ZM141.353 16.1953C141.322 16.2344 141.243 16.3516 141.118 16.5469C140.993 16.7422 140.845 16.9141 140.673 17.0625C140.15 17.5312 139.642 17.8516 139.15 18.0234C138.665 18.1953 138.095 18.2812 137.439 18.2812C135.548 18.2812 134.275 17.6016 133.618 16.2422C133.251 15.4922 133.068 14.3867 133.068 12.9258V5.22656H136.49V12.9258C136.49 13.6523 136.575 14.1992 136.747 14.5664C137.052 15.2148 137.65 15.5391 138.54 15.5391C139.681 15.5391 140.462 15.0781 140.884 14.1562C141.103 13.6562 141.212 12.9961 141.212 12.1758V5.22656H144.599V18H141.353V16.1953ZM153.775 8.30859C152.431 8.30859 151.529 8.74609 151.068 9.62109C150.81 10.1133 150.681 10.8711 150.681 11.8945V18H147.318V5.22656H150.506V7.45312C151.021 6.60156 151.47 6.01953 151.853 5.70703C152.478 5.18359 153.291 4.92188 154.291 4.92188C154.353 4.92188 154.404 4.92578 154.443 4.93359C154.49 4.93359 154.588 4.9375 154.736 4.94531V8.36719C154.525 8.34375 154.338 8.32812 154.174 8.32031C154.01 8.3125 153.877 8.30859 153.775 8.30859ZM168.413 0.621094V3.33984C168.225 3.31641 167.909 3.30078 167.464 3.29297C167.026 3.27734 166.721 3.375 166.55 3.58594C166.385 3.78906 166.303 4.01562 166.303 4.26562V5.34375H168.495V7.69922H166.303V18H162.975V7.69922H161.112V5.34375H162.94V4.52344C162.94 3.15625 163.171 2.21484 163.632 1.69922C164.116 0.933594 165.284 0.550781 167.135 0.550781C167.346 0.550781 167.538 0.558594 167.71 0.574219C167.882 0.582031 168.116 0.597656 168.413 0.621094ZM170.417 6.60938C171.3 5.48438 172.816 4.92188 174.964 4.92188C176.363 4.92188 177.605 5.19922 178.691 5.75391C179.777 6.30859 180.32 7.35547 180.32 8.89453V14.7539C180.32 15.1602 180.327 15.6523 180.343 16.2305C180.366 16.668 180.433 16.9648 180.542 17.1211C180.652 17.2773 180.816 17.4062 181.034 17.5078V18H177.402C177.3 17.7422 177.23 17.5 177.191 17.2734C177.152 17.0469 177.12 16.7891 177.097 16.5C176.636 17 176.105 17.4258 175.503 17.7773C174.784 18.1914 173.972 18.3984 173.066 18.3984C171.909 18.3984 170.952 18.0703 170.195 17.4141C169.445 16.75 169.07 15.8125 169.07 14.6016C169.07 13.0312 169.675 11.8945 170.886 11.1914C171.55 10.8086 172.527 10.5352 173.816 10.3711L174.952 10.2305C175.57 10.1523 176.011 10.0547 176.277 9.9375C176.753 9.73438 176.991 9.41797 176.991 8.98828C176.991 8.46484 176.808 8.10547 176.441 7.91016C176.081 7.70703 175.55 7.60547 174.847 7.60547C174.058 7.60547 173.499 7.80078 173.171 8.19141C172.937 8.48047 172.78 8.87109 172.702 9.36328H169.48C169.55 8.24609 169.863 7.32812 170.417 6.60938ZM172.902 15.5859C173.214 15.8438 173.597 15.9727 174.05 15.9727C174.769 15.9727 175.429 15.7617 176.03 15.3398C176.64 14.918 176.956 14.1484 176.98 13.0312V11.7891C176.769 11.9219 176.554 12.0312 176.335 12.1172C176.124 12.1953 175.831 12.2695 175.456 12.3398L174.706 12.4805C174.003 12.6055 173.499 12.7578 173.195 12.9375C172.679 13.2422 172.421 13.7148 172.421 14.3555C172.421 14.9258 172.581 15.3359 172.902 15.5859ZM181.562 5.22656H185.312L187.972 14.6484L190.691 5.22656H194.277L189.672 18H186.144L181.562 5.22656ZM206.348 6.84375C207.426 8.19531 207.965 9.79297 207.965 11.6367C207.965 13.5117 207.426 15.1172 206.348 16.4531C205.27 17.7812 203.633 18.4453 201.438 18.4453C199.242 18.4453 197.606 17.7812 196.527 16.4531C195.449 15.1172 194.91 13.5117 194.91 11.6367C194.91 9.79297 195.449 8.19531 196.527 6.84375C197.606 5.49219 199.242 4.81641 201.438 4.81641C203.633 4.81641 205.27 5.49219 206.348 6.84375ZM201.426 7.64062C200.449 7.64062 199.695 7.98828 199.164 8.68359C198.641 9.37109 198.379 10.3555 198.379 11.6367C198.379 12.918 198.641 13.9062 199.164 14.6016C199.695 15.2969 200.449 15.6445 201.426 15.6445C202.402 15.6445 203.152 15.2969 203.676 14.6016C204.199 13.9062 204.461 12.918 204.461 11.6367C204.461 10.3555 204.199 9.37109 203.676 8.68359C203.152 7.98828 202.402 7.64062 201.426 7.64062ZM216.309 8.30859C214.965 8.30859 214.063 8.74609 213.602 9.62109C213.344 10.1133 213.215 10.8711 213.215 11.8945V18H209.852V5.22656H213.04V7.45312C213.555 6.60156 214.005 6.01953 214.387 5.70703C215.012 5.18359 215.825 4.92188 216.825 4.92188C216.887 4.92188 216.938 4.92578 216.977 4.93359C217.024 4.93359 217.122 4.9375 217.27 4.94531V8.36719C217.059 8.34375 216.872 8.32812 216.708 8.32031C216.544 8.3125 216.411 8.30859 216.309 8.30859ZM222.193 5.22656V18H218.806V5.22656H222.193ZM222.193 0.621094V3.70312H218.806V0.621094H222.193ZM230.806 15.6211V18.1172L229.224 18.1758C227.646 18.2305 226.568 17.957 225.99 17.3555C225.615 16.9727 225.427 16.3828 225.427 15.5859V7.72266H223.646V5.34375H225.427V1.78125H228.732V5.34375H230.806V7.72266H228.732V14.4727C228.732 14.9961 228.798 15.3242 228.931 15.457C229.064 15.582 229.47 15.6445 230.15 15.6445C230.252 15.6445 230.357 15.6445 230.466 15.6445C230.584 15.6367 230.697 15.6289 230.806 15.6211ZM243.404 14.25C243.318 15.0078 242.924 15.7773 242.221 16.5586C241.127 17.8008 239.596 18.4219 237.627 18.4219C236.002 18.4219 234.568 17.8984 233.326 16.8516C232.084 15.8047 231.463 14.1016 231.463 11.7422C231.463 9.53125 232.022 7.83594 233.139 6.65625C234.264 5.47656 235.721 4.88672 237.51 4.88672C238.572 4.88672 239.529 5.08594 240.381 5.48438C241.232 5.88281 241.936 6.51172 242.49 7.37109C242.99 8.12891 243.315 9.00781 243.463 10.0078C243.549 10.5938 243.584 11.4375 243.568 12.5391H234.826C234.873 13.8203 235.275 14.7188 236.033 15.2344C236.494 15.5547 237.049 15.7148 237.697 15.7148C238.385 15.7148 238.943 15.5195 239.373 15.1289C239.607 14.918 239.815 14.625 239.994 14.25H243.404ZM240.1 10.3359C240.045 9.45312 239.775 8.78516 239.291 8.33203C238.815 7.87109 238.221 7.64062 237.51 7.64062C236.736 7.64062 236.135 7.88281 235.705 8.36719C235.283 8.85156 235.018 9.50781 234.908 10.3359H240.1ZM255.159 20.2383C255.519 20.543 256.124 20.6953 256.976 20.6953C258.179 20.6953 258.983 20.293 259.39 19.4883C259.655 18.9727 259.788 18.1055 259.788 16.8867V16.0664C259.468 16.6133 259.124 17.0234 258.757 17.2969C258.093 17.8047 257.23 18.0586 256.167 18.0586C254.526 18.0586 253.214 17.4844 252.23 16.3359C251.253 15.1797 250.765 13.6172 250.765 11.6484C250.765 9.75 251.237 8.15625 252.183 6.86719C253.128 5.57031 254.468 4.92188 256.202 4.92188C256.843 4.92188 257.401 5.01953 257.878 5.21484C258.69 5.55078 259.347 6.16797 259.847 7.06641V5.22656H263.093V17.3438C263.093 18.9922 262.815 20.2344 262.261 21.0703C261.308 22.5078 259.48 23.2266 256.776 23.2266C255.144 23.2266 253.812 22.9062 252.78 22.2656C251.749 21.625 251.179 20.668 251.069 19.3945H254.702C254.796 19.7852 254.948 20.0664 255.159 20.2383ZM254.597 13.6406C255.05 14.7188 255.862 15.2578 257.034 15.2578C257.815 15.2578 258.476 14.9648 259.015 14.3789C259.554 13.7852 259.823 12.8438 259.823 11.5547C259.823 10.3438 259.565 9.42188 259.05 8.78906C258.542 8.15625 257.858 7.83984 256.999 7.83984C255.827 7.83984 255.019 8.39062 254.573 9.49219C254.339 10.0781 254.222 10.8008 254.222 11.6602C254.222 12.4023 254.347 13.0625 254.597 13.6406ZM276.394 6.84375C277.472 8.19531 278.011 9.79297 278.011 11.6367C278.011 13.5117 277.472 15.1172 276.394 16.4531C275.316 17.7812 273.679 18.4453 271.484 18.4453C269.289 18.4453 267.652 17.7812 266.574 16.4531C265.496 15.1172 264.957 13.5117 264.957 11.6367C264.957 9.79297 265.496 8.19531 266.574 6.84375C267.652 5.49219 269.289 4.81641 271.484 4.81641C273.679 4.81641 275.316 5.49219 276.394 6.84375ZM271.472 7.64062C270.496 7.64062 269.742 7.98828 269.21 8.68359C268.687 9.37109 268.425 10.3555 268.425 11.6367C268.425 12.918 268.687 13.9062 269.21 14.6016C269.742 15.2969 270.496 15.6445 271.472 15.6445C272.449 15.6445 273.199 15.2969 273.722 14.6016C274.246 13.9062 274.507 12.918 274.507 11.6367C274.507 10.3555 274.246 9.37109 273.722 8.68359C273.199 7.98828 272.449 7.64062 271.472 7.64062ZM290.586 6.84375C291.664 8.19531 292.203 9.79297 292.203 11.6367C292.203 13.5117 291.664 15.1172 290.586 16.4531C289.508 17.7812 287.871 18.4453 285.676 18.4453C283.48 18.4453 281.844 17.7812 280.766 16.4531C279.688 15.1172 279.148 13.5117 279.148 11.6367C279.148 9.79297 279.688 8.19531 280.766 6.84375C281.844 5.49219 283.48 4.81641 285.676 4.81641C287.871 4.81641 289.508 5.49219 290.586 6.84375ZM285.664 7.64062C284.688 7.64062 283.934 7.98828 283.402 8.68359C282.879 9.37109 282.617 10.3555 282.617 11.6367C282.617 12.918 282.879 13.9062 283.402 14.6016C283.934 15.2969 284.688 15.6445 285.664 15.6445C286.641 15.6445 287.391 15.2969 287.914 14.6016C288.438 13.9062 288.699 12.918 288.699 11.6367C288.699 10.3555 288.438 9.37109 287.914 8.68359C287.391 7.98828 286.641 7.64062 285.664 7.64062ZM302.926 5.8125C303.926 6.45312 304.5 7.55469 304.649 9.11719H301.309C301.262 8.6875 301.141 8.34766 300.946 8.09766C300.579 7.64453 299.954 7.41797 299.071 7.41797C298.344 7.41797 297.825 7.53125 297.512 7.75781C297.207 7.98438 297.055 8.25 297.055 8.55469C297.055 8.9375 297.219 9.21484 297.547 9.38672C297.875 9.56641 299.036 9.875 301.028 10.3125C302.356 10.625 303.352 11.0977 304.016 11.7305C304.672 12.3711 305 13.1719 305 14.1328C305 15.3984 304.528 16.4336 303.582 17.2383C302.645 18.0352 301.192 18.4336 299.223 18.4336C297.215 18.4336 295.731 18.0117 294.77 17.168C293.817 16.3164 293.34 15.2344 293.34 13.9219H296.727C296.797 14.5156 296.95 14.9375 297.184 15.1875C297.598 15.6328 298.364 15.8555 299.481 15.8555C300.137 15.8555 300.657 15.7578 301.04 15.5625C301.43 15.3672 301.625 15.0742 301.625 14.6836C301.625 14.3086 301.469 14.0234 301.157 13.8281C300.844 13.6328 299.684 13.2969 297.676 12.8203C296.231 12.4609 295.211 12.0117 294.618 11.4727C294.024 10.9414 293.727 10.1758 293.727 9.17578C293.727 7.99609 294.188 6.98438 295.11 6.14062C296.04 5.28906 297.344 4.86328 299.024 4.86328C300.618 4.86328 301.918 5.17969 302.926 5.8125ZM317.938 14.25C317.853 15.0078 317.458 15.7773 316.755 16.5586C315.661 17.8008 314.13 18.4219 312.161 18.4219C310.536 18.4219 309.103 17.8984 307.86 16.8516C306.618 15.8047 305.997 14.1016 305.997 11.7422C305.997 9.53125 306.556 7.83594 307.673 6.65625C308.798 5.47656 310.255 4.88672 312.044 4.88672C313.106 4.88672 314.063 5.08594 314.915 5.48438C315.767 5.88281 316.47 6.51172 317.024 7.37109C317.524 8.12891 317.849 9.00781 317.997 10.0078C318.083 10.5938 318.118 11.4375 318.103 12.5391H309.36C309.407 13.8203 309.81 14.7188 310.567 15.2344C311.028 15.5547 311.583 15.7148 312.231 15.7148C312.919 15.7148 313.478 15.5195 313.907 15.1289C314.142 14.918 314.349 14.625 314.528 14.25H317.938ZM314.634 10.3359C314.579 9.45312 314.31 8.78516 313.825 8.33203C313.349 7.87109 312.755 7.64062 312.044 7.64062C311.27 7.64062 310.669 7.88281 310.239 8.36719C309.817 8.85156 309.552 9.50781 309.442 10.3359H314.634ZM326.225 9.39844C326.225 8.64844 326.467 8.03125 326.951 7.54688C327.443 7.0625 328.064 6.82031 328.814 6.82031C329.564 6.82031 330.182 7.0625 330.666 7.54688C331.158 8.03125 331.404 8.64844 331.404 9.39844C331.404 10.1484 331.158 10.7695 330.666 11.2617C330.182 11.7539 329.564 12 328.814 12C328.064 12 327.443 11.7539 326.951 11.2617C326.467 10.7695 326.225 10.1484 326.225 9.39844Z" fill="white"/>
</svg>
