<svg width="133" height="23" viewBox="0 0 133 23" fill="none" xmlns="http://www.w3.org/2000/svg">
<path d="M0.699219 9.39844C0.699219 8.64844 0.941406 8.03125 1.42578 7.54688C1.91797 7.0625 2.53906 6.82031 3.28906 6.82031C4.03906 6.82031 4.65625 7.0625 5.14062 7.54688C5.63281 8.03125 5.87891 8.64844 5.87891 9.39844C5.87891 10.1484 5.63281 10.7695 5.14062 11.2617C4.65625 11.7539 4.03906 12 3.28906 12C2.53906 12 1.91797 11.7539 1.42578 11.2617C0.941406 10.7695 0.699219 10.1484 0.699219 9.39844ZM25.2627 18V10.2891H18.5127V18H14.9384V0.726562H18.5127V7.3125H25.2627V0.726562H28.8486V18H25.2627ZM34.9897 5.22656V18H31.603V5.22656H34.9897ZM34.9897 0.621094V3.70312H31.603V0.621094H34.9897ZM40.9784 19.1953C40.8378 19.7734 40.5761 20.2734 40.1933 20.6953C39.7792 21.1484 39.2909 21.4883 38.7284 21.7148C38.1738 21.9492 37.7909 22.0664 37.58 22.0664V20.7773C38.2519 20.5898 38.7441 20.2773 39.0566 19.8398C39.3769 19.4023 39.5605 18.7891 39.6073 18H37.58V14.5078H41.1894V17.5312C41.1894 18.0625 41.1191 18.6172 40.9784 19.1953ZM62.9755 0.726562V3.78516H57.8075V18H54.1747V3.78516H48.9833V0.726562H62.9755ZM75.89 10.5V18H72.4798V10.2305C72.4798 9.54297 72.3627 8.98828 72.1283 8.56641C71.8236 7.97266 71.2455 7.67578 70.3939 7.67578C69.5111 7.67578 68.8392 7.97266 68.3783 8.56641C67.9252 9.15234 67.6986 9.99219 67.6986 11.0859V18H64.3705V0.785156H67.6986V6.89062C68.183 6.14844 68.7416 5.63281 69.3744 5.34375C70.015 5.04688 70.6869 4.89844 71.39 4.89844C72.1791 4.89844 72.8939 5.03516 73.5345 5.30859C74.183 5.58203 74.7142 6 75.1283 6.5625C75.4798 7.03906 75.6947 7.53125 75.7728 8.03906C75.8509 8.53906 75.89 9.35938 75.89 10.5ZM89.4725 14.25C89.3866 15.0078 88.992 15.7773 88.2889 16.5586C87.1952 17.8008 85.6639 18.4219 83.6952 18.4219C82.0702 18.4219 80.6366 17.8984 79.3944 16.8516C78.1522 15.8047 77.5311 14.1016 77.5311 11.7422C77.5311 9.53125 78.0897 7.83594 79.2069 6.65625C80.3319 5.47656 81.7889 4.88672 83.578 4.88672C84.6405 4.88672 85.5975 5.08594 86.4491 5.48438C87.3006 5.88281 88.0038 6.51172 88.5584 7.37109C89.0584 8.12891 89.3827 9.00781 89.5311 10.0078C89.617 10.5938 89.6522 11.4375 89.6366 12.5391H80.8944C80.9413 13.8203 81.3436 14.7188 82.1014 15.2344C82.5623 15.5547 83.117 15.7148 83.7655 15.7148C84.453 15.7148 85.0116 15.5195 85.4413 15.1289C85.6756 14.918 85.8827 14.625 86.0623 14.25H89.4725ZM86.1678 10.3359C86.1131 9.45312 85.8436 8.78516 85.3592 8.33203C84.8827 7.87109 84.2889 7.64062 83.578 7.64062C82.8045 7.64062 82.203 7.88281 81.7733 8.36719C81.3514 8.85156 81.0858 9.50781 80.9764 10.3359H86.1678ZM97.8402 8.30859C96.4964 8.30859 95.5941 8.74609 95.1331 9.62109C94.8753 10.1133 94.7464 10.8711 94.7464 11.8945V18H91.3831V5.22656H94.5706V7.45312C95.0863 6.60156 95.5355 6.01953 95.9183 5.70703C96.5433 5.18359 97.3558 4.92188 98.3558 4.92188C98.4183 4.92188 98.4691 4.92578 98.5081 4.93359C98.555 4.93359 98.6527 4.9375 98.8011 4.94531V8.36719C98.5902 8.34375 98.4027 8.32812 98.2386 8.32031C98.0745 8.3125 97.9417 8.30859 97.8402 8.30859ZM111.223 14.25C111.137 15.0078 110.743 15.7773 110.04 16.5586C108.946 17.8008 107.415 18.4219 105.446 18.4219C103.821 18.4219 102.387 17.8984 101.145 16.8516C99.9031 15.8047 99.282 14.1016 99.282 11.7422C99.282 9.53125 99.8406 7.83594 100.958 6.65625C102.083 5.47656 103.54 4.88672 105.329 4.88672C106.391 4.88672 107.348 5.08594 108.2 5.48438C109.052 5.88281 109.755 6.51172 110.309 7.37109C110.809 8.12891 111.134 9.00781 111.282 10.0078C111.368 10.5938 111.403 11.4375 111.387 12.5391H102.645C102.692 13.8203 103.095 14.7188 103.852 15.2344C104.313 15.5547 104.868 15.7148 105.516 15.7148C106.204 15.7148 106.762 15.5195 107.192 15.1289C107.427 14.918 107.634 14.625 107.813 14.25H111.223ZM107.919 10.3359C107.864 9.45312 107.595 8.78516 107.11 8.33203C106.634 7.87109 106.04 7.64062 105.329 7.64062C104.555 7.64062 103.954 7.88281 103.524 8.36719C103.102 8.85156 102.837 9.50781 102.727 10.3359H107.919ZM117.915 5.16797L116.966 13.2305H115.22L114.247 5.16797V0.785156H117.915V5.16797ZM117.822 14.6133V18H114.329V14.6133H117.822ZM127.022 9.39844C127.022 8.64844 127.264 8.03125 127.748 7.54688C128.24 7.0625 128.862 6.82031 129.612 6.82031C130.362 6.82031 130.979 7.0625 131.463 7.54688C131.955 8.03125 132.201 8.64844 132.201 9.39844C132.201 10.1484 131.955 10.7695 131.463 11.2617C130.979 11.7539 130.362 12 129.612 12C128.862 12 128.24 11.7539 127.748 11.2617C127.264 10.7695 127.022 10.1484 127.022 9.39844Z" fill="white"/>
</svg>
