<svg width="371" height="682" viewBox="0 0 371 682" fill="none" xmlns="http://www.w3.org/2000/svg">
<rect x="57" y="616" width="66" height="66" rx="33" fill="#E3B039"/>
<path d="M98.7915 637H80.5709C78.0462 637 76 639.046 76 641.571V655.176C76 657.701 78.0462 659.747 80.5709 659.747H84.0504L89.6822 667L95.314 659.747H98.7935C101.318 659.747 103.364 657.701 103.364 655.176V641.571C103.364 639.046 101.318 637 98.7935 637H98.7915Z" fill="#F8F8F0"/>
<path d="M92.9486 642.113C90.7247 642.074 89.6572 644.697 89.522 645.022C89.3974 644.694 88.4225 642.037 86.1985 642.001C83.81 641.961 82.0549 643.047 82.0006 646.139C81.9312 650.235 87.5952 653.12 89.3761 655C91.133 653.135 96.9277 650.488 96.9988 646.389C97.0513 643.298 95.3362 642.154 92.9477 642.114L92.9486 642.113Z" fill="#E3B039"/>
<rect x="153" y="616" width="66" height="66" rx="33" fill="#6AA062"/>
<path d="M186 635C178.268 635 172 641.268 172 649V663H186C193.732 663 200 656.732 200 649C200 641.268 193.732 635 186 635ZM179.318 650.714C178.371 650.714 177.604 649.947 177.604 649C177.604 648.053 178.371 647.286 179.318 647.286C180.265 647.286 181.032 648.053 181.032 649C181.032 649.947 180.265 650.714 179.318 650.714ZM186 650.714C185.053 650.714 184.286 649.947 184.286 649C184.286 648.053 185.053 647.286 186 647.286C186.947 647.286 187.714 648.053 187.714 649C187.714 649.947 186.947 650.714 186 650.714ZM192.682 650.714C191.735 650.714 190.968 649.947 190.968 649C190.968 648.053 191.735 647.286 192.682 647.286C193.629 647.286 194.396 648.053 194.396 649C194.396 649.947 193.629 650.714 192.682 650.714Z" fill="#F8F8F0"/>
<rect x="249" y="616" width="66" height="66" rx="33" fill="#D94243"/>
<path d="M270.08 643.917H294.632V654.999H270.08V643.917Z" fill="#F8F8F0"/>
<path d="M294.632 644.002C294.632 650.829 289.136 656.363 282.356 656.363C275.576 656.363 270.08 650.829 270.08 644.002C270.08 637.175 275.576 631.641 282.356 631.641C289.136 631.641 294.632 637.175 294.632 644.002Z" fill="#F8F8F0"/>
<path d="M294.632 654.743C294.632 661.57 289.136 667.105 282.356 667.105C275.576 667.105 270.08 661.57 270.08 654.743C270.08 647.916 275.576 642.382 282.356 642.382C289.136 642.382 294.632 647.916 294.632 654.743Z" fill="#F8F8F0"/>
<path d="M285.98 648.152C285.928 647.881 285.777 647.638 285.556 647.471C285.434 647.387 285.298 647.327 285.153 647.295C285.009 647.264 284.859 647.261 284.714 647.287C284.568 647.313 284.429 647.367 284.305 647.447C284.18 647.526 284.073 647.629 283.989 647.75L280.145 653.264C279.976 653.504 279.91 653.801 279.961 654.089C280.013 654.377 280.177 654.633 280.418 654.801C280.659 654.969 280.957 655.034 281.247 654.983C281.537 654.932 281.794 654.769 281.963 654.529L285.837 648.941C285.981 648.705 286.032 648.424 285.98 648.152Z" fill="#D94243"/>
<path d="M279.923 651.22L283.767 645.706C283.849 645.584 283.906 645.447 283.934 645.303C283.962 645.159 283.961 645.01 283.931 644.866C283.901 644.723 283.842 644.586 283.758 644.465C283.674 644.344 283.566 644.241 283.442 644.162C283.204 644.019 282.921 643.968 282.648 644.02C282.375 644.071 282.131 644.222 281.963 644.442L278.163 650.029C278.019 650.266 277.968 650.547 278.02 650.818C278.072 651.09 278.223 651.333 278.444 651.5C278.683 651.64 278.964 651.689 279.237 651.638C279.509 651.586 279.753 651.438 279.923 651.22Z" fill="#D94243"/>
<rect x="269.688" y="663.936" width="1.125" height="4.5" rx="0.5625" fill="#F8F8F0"/>
<rect x="268" y="666.748" width="1.125" height="4.5" rx="0.5625" transform="rotate(-90 268 666.748)" fill="#F8F8F0"/>
<rect x="293.688" y="630" width="1.125" height="4.5" rx="0.5625" fill="#F8F8F0"/>
<rect x="292" y="632.812" width="1.125" height="4.5" rx="0.5625" transform="rotate(-90 292 632.812)" fill="#F8F8F0"/>
<path d="M41.021 521L49.9237 535.482L22.1439 552.559C18.1447 555.018 12.9097 553.769 10.4513 549.769V549.769C7.99291 545.77 9.24199 540.535 13.2412 538.077L41.021 521Z" fill="#131313"/>
<path d="M320 535.515L328.903 521.033L356.682 538.11C360.682 540.568 361.931 545.803 359.472 549.802V549.802C357.014 553.801 351.779 555.05 347.78 552.592L320 535.515Z" fill="#131313"/>
<rect x="349" y="304" width="36" height="321" rx="4" transform="rotate(90 349 304)" fill="#131313"/>
<path d="M36 325H335V557H36V325Z" fill="#F8F8F0"/>
<path d="M36 72H335V310H36V72Z" fill="#F8F8F0"/>
<rect x="335" y="280" width="36" height="119" rx="4" fill="#131313"/>
<path d="M344 399H361V545.5C361 550.194 357.194 554 352.5 554V554C347.806 554 344 550.194 344 545.5V399Z" fill="#131313"/>
<path d="M9 399H26V545.5C26 550.194 22.1944 554 17.5 554V554C12.8056 554 9 550.194 9 545.5V399Z" fill="#131313"/>
<rect y="280" width="36" height="119" rx="4" fill="#131313"/>
<rect x="154" y="294" width="11" height="46" rx="4" fill="#7F7F7F"/>
<rect x="206" y="294" width="11" height="46" rx="4" fill="#7F7F7F"/>
<path d="M92.9 100.46L93.34 100.64C92.44 102.36 91.6 103.04 90.64 103.04C89.6 103.04 87.08 101.3 86.02 101.3C85.3 101.3 84.72 101.78 83.84 103.28L83.42 103.06C84.3 101.58 85.1 100.9 86.06 100.9C87.26 100.9 89.6 102.62 90.76 102.62C91.42 102.62 92.32 101.74 92.9 100.46ZM103.115 100.46L103.555 100.64C102.655 102.36 101.815 103.04 100.855 103.04C99.8148 103.04 97.2948 101.3 96.2348 101.3C95.5148 101.3 94.9348 101.78 94.0548 103.28L93.6348 103.06C94.5148 101.58 95.3148 100.9 96.2748 100.9C97.4748 100.9 99.8148 102.62 100.975 102.62C101.635 102.62 102.535 101.74 103.115 100.46ZM110.307 95.4C110.567 95.4 112.167 95.46 115.347 95.46C118.207 95.46 119.767 95.4 120.227 95.4C120.567 95.4 120.787 95.46 120.787 95.72C120.787 95.9 120.687 96.28 120.567 96.82C120.187 98.46 120.027 99.48 119.947 100.2C119.907 100.6 119.807 100.8 119.607 100.8C119.367 100.8 119.347 100.62 119.347 100.46C119.347 100.14 120.147 97.54 120.147 96.52C120.147 96.02 119.867 95.88 118.807 95.88H116.207C115.587 95.88 115.547 95.98 115.147 98L113.467 106.62C113.327 107.38 113.287 107.78 113.287 108.08C113.287 108.4 113.527 108.56 114.027 108.56C114.527 108.56 115.107 108.52 115.267 108.52C115.487 108.52 115.647 108.56 115.647 108.8C115.647 108.96 115.347 109.06 115.107 109.06C114.927 109.06 114.127 108.96 112.747 108.96C111.487 108.96 110.707 109.06 110.527 109.06C110.287 109.06 110.087 109.04 110.087 108.8C110.087 108.66 110.347 108.52 110.567 108.52C110.867 108.52 111.267 108.54 111.567 108.54C112.407 108.54 112.567 108.12 112.867 106.64C113.487 103.52 114.067 100.5 114.647 97.42C114.787 96.72 114.827 96.34 114.827 96.3C114.827 95.9 114.547 95.88 114.167 95.88H111.447C110.407 95.88 110.067 96.2 109.727 98.74C109.467 100.68 109.427 100.86 109.087 100.86C108.907 100.86 108.887 100.68 108.887 100.54C108.887 100.44 108.927 100.24 109.007 99.92C109.807 96.84 109.407 95.4 110.307 95.4ZM128.901 109.2C127.921 109.2 127.341 108.48 127.341 107.58C127.341 106.72 127.541 105.54 127.961 104.06C128.381 102.56 128.581 101.56 128.581 101.02C128.581 99.86 127.761 99.2 126.641 99.2C124.181 99.2 122.241 101.36 121.421 106.94C121.241 108.2 121.141 108.7 121.041 108.94C120.961 109.12 120.841 109.14 120.681 109.14C120.541 109.14 120.461 109.02 120.461 108.9C120.461 108.8 120.661 108.04 121.301 104.74L122.781 97.18C122.861 96.78 122.941 96.24 122.941 96C122.941 95.6 122.621 95.54 122.201 95.54C121.821 95.54 121.341 95.62 121.081 95.62C120.921 95.62 120.801 95.58 120.801 95.44C120.801 95.22 121.121 95.14 121.421 95.14C121.821 95.14 122.341 95.16 122.441 95.16C122.741 95.16 123.141 95.12 123.401 95.12C123.621 95.12 123.641 95.32 123.641 95.4C123.641 95.64 123.461 96.24 123.341 96.84L122.301 102.2C123.481 99.8 124.841 98.78 126.721 98.78C128.121 98.78 129.141 99.58 129.141 100.98C129.141 101.72 128.881 102.72 128.501 104.16C128.081 105.72 127.881 106.7 127.881 107.32C127.881 108.28 128.261 108.8 128.921 108.8C129.761 108.8 130.261 107.92 130.601 107.06C130.861 106.42 131.101 105.46 131.101 105.5C131.161 105.3 131.221 105.24 131.321 105.24C131.481 105.24 131.541 105.34 131.541 105.44C131.541 105.78 131.421 106.32 131.141 107C130.601 108.32 129.781 109.2 128.901 109.2ZM138.467 98.78C140.087 98.78 141.147 99.62 141.147 100.92C141.147 102.74 138.687 104.32 134.567 104.32C134.087 104.32 133.827 104.28 133.607 104.28C133.227 104.28 133.167 104.28 133.167 105.26C133.167 106.92 133.807 108.86 136.307 108.86C138.647 108.86 140.127 107.02 140.567 105.54C140.627 105.36 140.687 105.28 140.867 105.28C141.047 105.28 141.087 105.36 141.087 105.5C141.087 105.76 140.867 106.34 140.387 107.02C139.427 108.38 138.007 109.28 136.267 109.28C133.967 109.28 132.607 107.86 132.607 105.36C132.607 101.98 135.227 98.78 138.467 98.78ZM133.407 103.66C133.407 103.86 133.407 103.9 134.487 103.9C138.567 103.9 140.587 102.44 140.587 100.96C140.587 99.9 139.867 99.2 138.407 99.2C136.887 99.2 135.587 100 134.767 101C133.527 102.5 133.407 103.54 133.407 103.66ZM153.144 98.78C153.984 98.78 154.464 98.94 154.904 99.28C155.424 99.66 155.804 100.3 155.964 101.22C156.424 99.18 156.204 98.92 156.684 98.92C156.904 98.92 156.944 99.1 156.944 99.2C156.944 99.3 156.904 99.54 156.704 100.2C156.504 100.86 155.704 104.84 155.384 106.86C155.084 108.8 154.684 110.24 154.004 111.24C153.164 112.48 151.844 113.02 149.944 113.02C147.924 113.02 146.664 112.22 146.664 111.08C146.664 110.64 147.044 110.2 147.464 110.2C147.784 110.2 148.064 110.42 148.064 110.76C148.064 111.38 147.344 111.26 147.344 111.5C147.344 112.1 148.664 112.6 150.024 112.6C151.644 112.6 152.924 112.16 153.764 110.68C154.364 109.64 154.744 108.08 155.064 105.84C154.124 108.1 152.664 109.28 150.884 109.28C148.904 109.28 147.704 107.9 147.704 105.66C147.704 104.52 147.944 103.04 148.844 101.54C149.864 99.86 151.324 98.78 153.144 98.78ZM148.244 105.62C148.244 107.62 149.264 108.86 150.864 108.86C153.724 108.86 155.644 105.02 155.644 101.94C155.644 100.2 154.724 99.2 153.244 99.2C152.064 99.2 151.364 99.52 150.564 100.18C149.364 101.18 148.244 103.22 148.244 105.62ZM164.932 98.78C166.552 98.78 167.612 99.62 167.612 100.92C167.612 102.74 165.152 104.32 161.032 104.32C160.552 104.32 160.292 104.28 160.072 104.28C159.692 104.28 159.632 104.28 159.632 105.26C159.632 106.92 160.272 108.86 162.772 108.86C165.112 108.86 166.592 107.02 167.032 105.54C167.092 105.36 167.152 105.28 167.332 105.28C167.512 105.28 167.552 105.36 167.552 105.5C167.552 105.76 167.332 106.34 166.852 107.02C165.892 108.38 164.472 109.28 162.732 109.28C160.432 109.28 159.072 107.86 159.072 105.36C159.072 101.98 161.692 98.78 164.932 98.78ZM159.872 103.66C159.872 103.86 159.872 103.9 160.952 103.9C165.032 103.9 167.052 102.44 167.052 100.96C167.052 99.9 166.332 99.2 164.872 99.2C163.352 99.2 162.052 100 161.232 101C159.992 102.5 159.872 103.54 159.872 103.66ZM176.171 98.78C177.571 98.78 178.651 99.6 178.651 100.98C178.651 101.72 178.391 102.72 178.011 104.16C177.591 105.72 177.431 106.78 177.431 107.16C177.431 108.16 177.791 108.8 178.451 108.8C179.291 108.8 179.791 107.94 180.131 107.08C180.391 106.44 180.611 105.5 180.611 105.54C180.671 105.34 180.731 105.24 180.831 105.24C180.991 105.24 181.051 105.34 181.051 105.44C181.051 105.74 180.931 106.32 180.651 107C180.111 108.32 179.371 109.2 178.331 109.2C177.351 109.2 176.871 108.3 176.871 107.4C176.871 106.54 177.051 105.54 177.471 104.06C177.891 102.56 178.091 101.56 178.091 101.02C178.091 99.86 177.111 99.2 176.111 99.2C174.391 99.2 172.711 100.34 171.791 102.9C171.491 103.72 171.251 104.82 171.071 105.64C170.491 108.42 170.691 109.14 170.111 109.14C169.951 109.14 169.831 109.02 169.831 108.86C169.831 108.58 170.031 108.12 170.431 106.08L171.451 100.88C171.491 100.66 171.531 100.4 171.531 100.26C171.531 99.7 171.411 99.42 171.011 99.42C170.311 99.42 169.831 99.52 169.651 99.52C169.511 99.52 169.351 99.5 169.351 99.32C169.351 99.1 169.651 99 170.031 99C170.331 99 170.751 99.04 171.091 99.04C171.391 99.04 171.771 99 171.951 99C172.131 99 172.191 99.16 172.191 99.3C172.191 99.6 171.931 100.6 171.711 101.72L171.551 102.52C172.591 100.02 174.031 98.78 176.171 98.78ZM185.799 95.28C185.959 95.28 186.019 95.34 186.019 95.5C186.019 96 185.399 97.98 185.399 98.76C185.399 99.02 185.599 99.08 185.939 99.08C186.319 99.08 186.979 98.98 187.619 98.98C188.099 98.98 188.259 99.04 188.259 99.18C188.259 99.4 188.099 99.46 187.679 99.46L185.639 99.44C185.259 99.44 185.219 99.6 185.139 100.06L184.119 105.46C183.979 106.22 183.919 107.02 183.919 107.34C183.919 108.36 184.399 108.86 185.259 108.86C185.999 108.86 187.319 108.46 187.839 105.72C188.059 104.52 188.139 104.5 188.319 104.5C188.459 104.5 188.519 104.6 188.519 104.74C188.519 105 188.439 105.36 188.299 105.82C187.979 106.9 187.359 109.28 185.259 109.28C184.099 109.28 183.359 108.58 183.359 107.44C183.359 106.88 183.419 106.26 183.539 105.68C183.959 103.5 184.659 100.04 184.659 99.68C184.659 99.46 184.579 99.4 184.439 99.4C184.259 99.4 183.439 99.42 182.899 99.42C182.679 99.42 182.579 99.36 182.579 99.22C182.579 99.04 182.799 99 183.259 99H183.979C184.639 99 184.899 98.94 185.199 97.2L185.459 95.66C185.499 95.38 185.619 95.28 185.799 95.28ZM190.992 95.12C191.332 95.12 191.872 95.16 191.972 95.16C192.272 95.16 192.652 95.12 192.912 95.12C193.152 95.12 193.192 95.22 193.192 95.38C193.192 95.6 193.032 96.22 192.892 96.92L191.212 105.52C191.112 106 191.012 106.78 191.012 107.2C191.012 108.24 191.412 108.8 192.112 108.8C192.912 108.8 193.832 107.62 194.192 105.78C194.252 105.44 194.372 105.24 194.552 105.24C194.652 105.24 194.692 105.3 194.692 105.4C194.692 105.68 194.552 106.24 194.292 106.94C193.772 108.34 192.952 109.2 192.032 109.2C191.092 109.2 190.472 108.5 190.472 107.12C190.472 106.66 190.612 105.9 191.032 103.76L192.392 96.9C192.432 96.68 192.492 96.3 192.492 96C192.492 95.68 192.312 95.54 191.912 95.54C191.252 95.54 190.752 95.64 190.572 95.64C190.432 95.64 190.352 95.58 190.352 95.44C190.352 95.22 190.652 95.12 190.992 95.12ZM201.689 98.78C203.309 98.78 204.369 99.62 204.369 100.92C204.369 102.74 201.909 104.32 197.789 104.32C197.309 104.32 197.049 104.28 196.829 104.28C196.449 104.28 196.389 104.28 196.389 105.26C196.389 106.92 197.029 108.86 199.529 108.86C201.869 108.86 203.349 107.02 203.789 105.54C203.849 105.36 203.909 105.28 204.089 105.28C204.269 105.28 204.309 105.36 204.309 105.5C204.309 105.76 204.089 106.34 203.609 107.02C202.649 108.38 201.229 109.28 199.489 109.28C197.189 109.28 195.829 107.86 195.829 105.36C195.829 101.98 198.449 98.78 201.689 98.78ZM196.629 103.66C196.629 103.86 196.629 103.9 197.709 103.9C201.789 103.9 203.809 102.44 203.809 100.96C203.809 99.9 203.089 99.2 201.629 99.2C200.109 99.2 198.809 100 197.989 101C196.749 102.5 196.629 103.54 196.629 103.66ZM216.367 98.78C217.207 98.78 217.687 98.94 218.127 99.28C218.647 99.66 219.027 100.3 219.187 101.22C219.647 99.18 219.427 98.92 219.907 98.92C220.127 98.92 220.167 99.1 220.167 99.2C220.167 99.3 220.127 99.54 219.927 100.2C219.727 100.86 218.927 104.84 218.607 106.86C218.307 108.8 217.907 110.24 217.227 111.24C216.387 112.48 215.067 113.02 213.167 113.02C211.147 113.02 209.887 112.22 209.887 111.08C209.887 110.64 210.267 110.2 210.687 110.2C211.007 110.2 211.287 110.42 211.287 110.76C211.287 111.38 210.567 111.26 210.567 111.5C210.567 112.1 211.887 112.6 213.247 112.6C214.867 112.6 216.147 112.16 216.987 110.68C217.587 109.64 217.967 108.08 218.287 105.84C217.347 108.1 215.887 109.28 214.107 109.28C212.127 109.28 210.927 107.9 210.927 105.66C210.927 104.52 211.167 103.04 212.067 101.54C213.087 99.86 214.547 98.78 216.367 98.78ZM211.467 105.62C211.467 107.62 212.487 108.86 214.087 108.86C216.947 108.86 218.867 105.02 218.867 101.94C218.867 100.2 217.947 99.2 216.467 99.2C215.287 99.2 214.587 99.52 213.787 100.18C212.587 101.18 211.467 103.22 211.467 105.62ZM227.674 98.78C229.654 98.78 231.314 100.2 231.314 102.88C231.314 106.48 228.914 109.28 225.914 109.28C223.674 109.28 222.274 107.68 222.274 105.14C222.274 101.78 224.714 98.78 227.674 98.78ZM222.814 105.3C222.814 107.74 224.314 108.86 225.954 108.86C229.114 108.86 230.774 105.32 230.774 102.86C230.774 100.52 229.534 99.2 227.614 99.2C224.894 99.2 222.814 102.12 222.814 105.3ZM238.065 98.78C240.045 98.78 241.705 100.2 241.705 102.88C241.705 106.48 239.305 109.28 236.305 109.28C234.065 109.28 232.665 107.68 232.665 105.14C232.665 101.78 235.105 98.78 238.065 98.78ZM233.205 105.3C233.205 107.74 234.705 108.86 236.345 108.86C239.505 108.86 241.165 105.32 241.165 102.86C241.165 100.52 239.925 99.2 238.005 99.2C235.285 99.2 233.205 102.12 233.205 105.3ZM247.955 98.78C250.075 98.78 251.435 99.7 251.435 100.84C251.435 101.38 250.995 101.84 250.595 101.84C250.115 101.84 249.915 101.56 249.915 101.26C249.915 100.96 250.115 100.7 250.555 100.7C250.795 100.7 250.815 100.66 250.815 100.56C250.815 100.06 249.895 99.2 247.915 99.2C246.255 99.2 244.795 100.32 244.795 101.74C244.795 102.58 245.475 103.08 246.795 103.4L248.755 103.88C250.115 104.22 250.935 104.78 250.935 105.98C250.935 107.86 248.995 109.28 246.515 109.28C244.195 109.28 242.615 108.38 242.615 107.02C242.615 106.46 243.195 105.84 243.735 105.84C244.235 105.84 244.495 106.1 244.495 106.48C244.495 106.92 244.235 107.04 243.975 107.04C243.855 107.04 243.715 107.02 243.575 106.98C243.435 106.94 243.375 106.9 243.355 106.9C243.255 106.9 243.155 107.06 243.155 107.22C243.155 108.1 244.455 108.86 246.515 108.86C248.735 108.86 250.375 107.64 250.375 105.98C250.375 105.04 249.655 104.52 248.295 104.2L246.535 103.78C244.955 103.4 244.255 102.82 244.255 101.8C244.255 100.06 245.935 98.78 247.955 98.78ZM258.603 98.78C260.223 98.78 261.283 99.62 261.283 100.92C261.283 102.74 258.823 104.32 254.703 104.32C254.223 104.32 253.963 104.28 253.743 104.28C253.363 104.28 253.303 104.28 253.303 105.26C253.303 106.92 253.943 108.86 256.443 108.86C258.783 108.86 260.263 107.02 260.703 105.54C260.763 105.36 260.823 105.28 261.003 105.28C261.183 105.28 261.223 105.36 261.223 105.5C261.223 105.76 261.003 106.34 260.523 107.02C259.563 108.38 258.143 109.28 256.403 109.28C254.103 109.28 252.743 107.86 252.743 105.36C252.743 101.98 255.363 98.78 258.603 98.78ZM253.543 103.66C253.543 103.86 253.543 103.9 254.623 103.9C258.703 103.9 260.723 102.44 260.723 100.96C260.723 99.9 260.003 99.2 258.543 99.2C257.023 99.2 255.723 100 254.903 101C253.663 102.5 253.543 103.54 253.543 103.66ZM277.041 100.46L277.481 100.64C276.581 102.36 275.741 103.04 274.781 103.04C273.741 103.04 271.221 101.3 270.161 101.3C269.441 101.3 268.861 101.78 267.981 103.28L267.561 103.06C268.441 101.58 269.241 100.9 270.201 100.9C271.401 100.9 273.741 102.62 274.901 102.62C275.561 102.62 276.461 101.74 277.041 100.46ZM287.255 100.46L287.695 100.64C286.795 102.36 285.955 103.04 284.995 103.04C283.955 103.04 281.435 101.3 280.375 101.3C279.655 101.3 279.075 101.78 278.195 103.28L277.775 103.06C278.655 101.58 279.455 100.9 280.415 100.9C281.615 100.9 283.955 102.62 285.115 102.62C285.775 102.62 286.675 101.74 287.255 100.46Z" fill="black"/>
<path d="M92.8086 395.056C93.0486 395.056 93.4966 395.152 94.3126 395.152C95.0166 395.152 95.5926 395.056 95.8326 395.056C96.0406 395.056 96.2646 395.056 96.2646 395.232C96.2646 395.408 96.0406 395.504 95.8486 395.504C95.7526 395.504 95.3686 395.488 95.0966 395.488C94.5686 395.488 94.3766 395.68 94.3766 396.336C94.3766 398.48 94.6006 402.992 94.6966 405.52L98.6006 396.432C99.0806 395.312 99.2406 395.056 99.5446 395.056C99.9446 395.056 99.9446 395.392 99.9766 396.384L100.297 405.52C102.297 400.768 103.481 398.032 103.833 397.136C104.137 396.368 104.313 395.92 104.313 395.76C104.313 395.552 104.121 395.472 103.721 395.472C103.513 395.472 103.161 395.504 102.889 395.504C102.649 395.504 102.473 395.488 102.473 395.312C102.473 395.136 102.697 395.056 102.937 395.056C103.081 395.056 104.393 395.168 104.809 395.168C105.497 395.168 105.945 395.056 106.217 395.056C106.393 395.056 106.585 395.072 106.585 395.248C106.585 395.392 106.425 395.504 106.281 395.504C106.169 395.504 105.817 395.44 105.497 395.44C105.017 395.44 104.937 395.664 104.409 396.944L101.161 404.816C100.761 405.792 100.505 406.224 100.233 406.224C99.8966 406.224 99.8486 405.904 99.8006 404.48L99.4966 395.488L95.5766 404.576C94.9526 406 94.8406 406.224 94.5526 406.224C94.2166 406.224 94.1526 405.92 94.1366 405.024L93.8966 396.16C93.8806 395.776 93.8006 395.472 93.3686 395.472C93.1126 395.472 92.8086 395.504 92.7286 395.504C92.5846 395.504 92.3766 395.456 92.3766 395.312C92.3766 395.136 92.6006 395.056 92.8086 395.056ZM109.514 397.824C110.81 397.824 111.658 398.496 111.658 399.536C111.658 400.992 109.69 402.256 106.394 402.256C106.01 402.256 105.802 402.224 105.626 402.224C105.322 402.224 105.274 402.224 105.274 403.008C105.274 404.336 105.786 405.888 107.786 405.888C109.658 405.888 110.842 404.416 111.194 403.232C111.242 403.088 111.29 403.024 111.434 403.024C111.578 403.024 111.61 403.088 111.61 403.2C111.61 403.408 111.434 403.872 111.05 404.416C110.282 405.504 109.146 406.224 107.754 406.224C105.914 406.224 104.826 405.088 104.826 403.088C104.826 400.384 106.922 397.824 109.514 397.824ZM105.466 401.728C105.466 401.888 105.466 401.92 106.33 401.92C109.594 401.92 111.21 400.752 111.21 399.568C111.21 398.72 110.634 398.16 109.466 398.16C108.25 398.16 107.21 398.8 106.554 399.6C105.562 400.8 105.466 401.632 105.466 401.728ZM113.722 394.896C113.994 394.896 114.426 394.928 114.506 394.928C114.746 394.928 115.05 394.896 115.258 394.896C115.45 394.896 115.482 394.976 115.482 395.104C115.482 395.28 115.354 395.776 115.242 396.336L113.898 403.216C113.818 403.6 113.738 404.224 113.738 404.56C113.738 405.392 114.058 405.84 114.618 405.84C115.258 405.84 115.994 404.896 116.282 403.424C116.33 403.152 116.426 402.992 116.57 402.992C116.65 402.992 116.682 403.04 116.682 403.12C116.682 403.344 116.57 403.792 116.362 404.352C115.946 405.472 115.29 406.16 114.554 406.16C113.802 406.16 113.306 405.6 113.306 404.496C113.306 404.128 113.418 403.52 113.754 401.808L114.842 396.32C114.874 396.144 114.922 395.84 114.922 395.6C114.922 395.344 114.778 395.232 114.458 395.232C113.93 395.232 113.53 395.312 113.386 395.312C113.274 395.312 113.21 395.264 113.21 395.152C113.21 394.976 113.45 394.896 113.722 394.896ZM118.472 394.896C118.744 394.896 119.176 394.928 119.256 394.928C119.496 394.928 119.8 394.896 120.008 394.896C120.2 394.896 120.232 394.976 120.232 395.104C120.232 395.28 120.104 395.776 119.992 396.336L118.648 403.216C118.568 403.6 118.488 404.224 118.488 404.56C118.488 405.392 118.808 405.84 119.368 405.84C120.008 405.84 120.744 404.896 121.032 403.424C121.08 403.152 121.176 402.992 121.32 402.992C121.4 402.992 121.432 403.04 121.432 403.12C121.432 403.344 121.32 403.792 121.112 404.352C120.696 405.472 120.04 406.16 119.304 406.16C118.552 406.16 118.056 405.6 118.056 404.496C118.056 404.128 118.168 403.52 118.504 401.808L119.592 396.32C119.624 396.144 119.672 395.84 119.672 395.6C119.672 395.344 119.528 395.232 119.208 395.232C118.68 395.232 118.28 395.312 118.136 395.312C118.024 395.312 117.96 395.264 117.96 395.152C117.96 394.976 118.2 394.896 118.472 394.896ZM123.19 404.8C123.718 404.8 123.958 405.12 123.958 405.76C123.958 407.44 122.422 409.376 121.974 409.376C121.862 409.376 121.814 409.264 121.814 409.184C121.814 409.12 121.878 409.04 122.038 408.912C122.63 408.464 123.398 407.2 123.398 406.48C123.398 406.336 123.398 406.16 123.206 406.16C123.142 406.16 122.95 406.24 122.758 406.24C122.454 406.24 122.246 405.984 122.246 405.664C122.246 405.2 122.694 404.8 123.19 404.8ZM68.8544 413.896C69.1264 413.896 69.5584 413.928 69.6384 413.928C69.8784 413.928 70.1824 413.896 70.3904 413.896C70.5824 413.896 70.6144 413.976 70.6144 414.104C70.6144 414.28 70.4864 414.776 70.3744 415.336L69.0304 422.216C68.9504 422.6 68.8704 423.224 68.8704 423.56C68.8704 424.392 69.1904 424.84 69.7504 424.84C70.3904 424.84 71.1264 423.896 71.4144 422.424C71.4624 422.152 71.5584 421.992 71.7024 421.992C71.7824 421.992 71.8144 422.04 71.8144 422.12C71.8144 422.344 71.7024 422.792 71.4944 423.352C71.0784 424.472 70.4224 425.16 69.6864 425.16C68.9344 425.16 68.4384 424.6 68.4384 423.496C68.4384 423.128 68.5504 422.52 68.8864 420.808L69.9744 415.32C70.0064 415.144 70.0544 414.84 70.0544 414.6C70.0544 414.344 69.9104 414.232 69.5904 414.232C69.0624 414.232 68.6624 414.312 68.5184 414.312C68.4064 414.312 68.3424 414.264 68.3424 414.152C68.3424 413.976 68.5824 413.896 68.8544 413.896ZM77.0284 416.824C78.6124 416.824 79.9404 417.96 79.9404 420.104C79.9404 422.984 78.0204 425.224 75.6204 425.224C73.8284 425.224 72.7084 423.944 72.7084 421.912C72.7084 419.224 74.6604 416.824 77.0284 416.824ZM73.1404 422.04C73.1404 423.992 74.3404 424.888 75.6524 424.888C78.1804 424.888 79.5084 422.056 79.5084 420.088C79.5084 418.216 78.5164 417.16 76.9804 417.16C74.8044 417.16 73.1404 419.496 73.1404 422.04ZM85.3409 416.824C86.9249 416.824 88.2529 417.96 88.2529 420.104C88.2529 422.984 86.3329 425.224 83.9329 425.224C82.1409 425.224 81.0209 423.944 81.0209 421.912C81.0209 419.224 82.9729 416.824 85.3409 416.824ZM81.4529 422.04C81.4529 423.992 82.6529 424.888 83.9649 424.888C86.4929 424.888 87.8209 422.056 87.8209 420.088C87.8209 418.216 86.8289 417.16 85.2929 417.16C83.1169 417.16 81.4529 419.496 81.4529 422.04ZM91.7334 413.896C91.9094 413.896 91.9414 414.008 91.9414 414.136C91.9414 414.248 91.9094 414.472 91.8454 414.808L90.9014 419.64C90.8854 419.752 90.8534 419.928 90.8534 419.992C90.8534 420.136 90.9014 420.2 91.2054 420.2C92.5654 420.2 93.3814 420.088 93.8934 419.112L94.4694 418.024C94.9014 417.208 95.3494 416.888 96.1174 416.888C96.8374 416.888 97.3654 417.448 97.3654 418.088C97.3654 418.488 97.0614 418.92 96.6294 418.92C96.3094 418.92 96.0854 418.68 96.0854 418.36C96.0854 418.088 96.3734 417.976 96.5814 417.976C96.6934 417.976 96.8054 417.976 96.8054 417.832C96.8054 417.528 96.4214 417.224 96.0374 417.224C95.4454 417.224 95.0934 417.56 94.6614 418.408C94.3254 419.064 94.1014 419.464 93.9894 419.624C93.6694 420.056 93.2374 420.328 92.3254 420.376C93.7334 420.552 94.3414 420.824 94.3414 422.408C94.3414 422.808 94.2934 423.336 94.2934 423.656C94.2934 424.36 94.6294 424.84 95.2054 424.84C95.9414 424.84 96.6774 423.528 96.8374 422.072C96.8534 421.96 96.9174 421.88 97.0294 421.88C97.1414 421.88 97.1894 421.944 97.1894 422.024C97.1894 422.392 97.0934 422.872 96.8854 423.416C96.4854 424.456 95.8774 425.16 95.1734 425.16C94.4214 425.16 93.8934 424.792 93.8934 423.256V422.008C93.8934 420.952 92.9494 420.52 91.2054 420.52C90.6134 420.52 90.7094 420.6 90.3254 422.552C90.0694 423.848 89.9894 424.328 89.9094 424.68C89.8294 425.048 89.7174 425.112 89.5734 425.112C89.3974 425.112 89.3654 425.032 89.3654 424.888C89.3654 424.728 89.7494 423.496 89.9574 422.376C91.1414 416.104 91.4294 414.952 91.4294 414.6C91.4294 414.28 91.1734 414.232 90.8374 414.232C90.5334 414.232 90.1174 414.296 89.9094 414.296C89.7814 414.296 89.7174 414.264 89.7174 414.152C89.7174 413.976 89.9574 413.912 90.1974 413.912C90.5654 413.912 90.8054 413.928 91.0134 413.928C91.2534 413.928 91.5414 413.896 91.7334 413.896ZM102.472 416.824C104.168 416.824 105.256 417.56 105.256 418.472C105.256 418.904 104.904 419.272 104.584 419.272C104.2 419.272 104.04 419.048 104.04 418.808C104.04 418.568 104.2 418.36 104.552 418.36C104.744 418.36 104.76 418.328 104.76 418.248C104.76 417.848 104.024 417.16 102.44 417.16C101.112 417.16 99.9442 418.056 99.9442 419.192C99.9442 419.864 100.488 420.264 101.544 420.52L103.112 420.904C104.2 421.176 104.856 421.624 104.856 422.584C104.856 424.088 103.304 425.224 101.32 425.224C99.4642 425.224 98.2002 424.504 98.2002 423.416C98.2002 422.968 98.6642 422.472 99.0962 422.472C99.4962 422.472 99.7042 422.68 99.7042 422.984C99.7042 423.336 99.4962 423.432 99.2882 423.432C99.1922 423.432 99.0802 423.416 98.9682 423.384C98.8562 423.352 98.8082 423.32 98.7922 423.32C98.7122 423.32 98.6322 423.448 98.6322 423.576C98.6322 424.28 99.6722 424.888 101.32 424.888C103.096 424.888 104.408 423.912 104.408 422.584C104.408 421.832 103.832 421.416 102.744 421.16L101.336 420.824C100.072 420.52 99.5122 420.056 99.5122 419.24C99.5122 417.848 100.856 416.824 102.472 416.824ZM116.045 416.824C117.165 416.824 118.029 417.48 118.029 418.584C118.029 419.176 117.821 419.976 117.517 421.128C117.181 422.376 117.053 423.224 117.053 423.528C117.053 424.328 117.341 424.84 117.869 424.84C118.541 424.84 118.941 424.152 119.213 423.464C119.421 422.952 119.597 422.2 119.597 422.232C119.645 422.072 119.693 421.992 119.773 421.992C119.901 421.992 119.949 422.072 119.949 422.152C119.949 422.392 119.853 422.856 119.629 423.4C119.197 424.456 118.605 425.16 117.773 425.16C116.989 425.16 116.605 424.44 116.605 423.72C116.605 423.032 116.749 422.232 117.085 421.048C117.421 419.848 117.581 419.048 117.581 418.616C117.581 417.688 116.797 417.16 115.997 417.16C114.621 417.16 113.277 418.072 112.541 420.12C112.301 420.776 112.109 421.656 111.965 422.312C111.501 424.536 111.661 425.112 111.197 425.112C111.069 425.112 110.973 425.016 110.973 424.888C110.973 424.664 111.133 424.296 111.453 422.664L112.269 418.504C112.301 418.328 112.333 418.12 112.333 418.008C112.333 417.56 112.237 417.336 111.917 417.336C111.357 417.336 110.973 417.416 110.829 417.416C110.717 417.416 110.589 417.4 110.589 417.256C110.589 417.08 110.829 417 111.133 417C111.373 417 111.709 417.032 111.981 417.032C112.221 417.032 112.525 417 112.669 417C112.813 417 112.861 417.128 112.861 417.24C112.861 417.48 112.653 418.28 112.477 419.176L112.349 419.816C113.181 417.816 114.333 416.824 116.045 416.824ZM123.619 414.92C123.619 415.288 123.283 415.544 122.963 415.544C122.643 415.544 122.467 415.336 122.467 415.016C122.467 414.68 122.771 414.408 123.107 414.408C123.427 414.408 123.619 414.648 123.619 414.92ZM123.011 417C123.155 417 123.203 417.064 123.203 417.208C123.203 417.384 123.059 417.944 122.835 419.096C122.371 421.512 122.083 422.76 122.083 423.56C122.083 424.392 122.387 424.84 122.947 424.84C123.747 424.84 124.467 423.416 124.611 422.488C124.659 422.152 124.755 421.992 124.883 421.992C124.995 421.992 125.011 422.024 125.011 422.136C125.011 422.36 124.899 422.84 124.675 423.4C124.243 424.504 123.619 425.16 122.883 425.16C122.131 425.16 121.635 424.6 121.635 423.496C121.635 423 121.731 422.744 122.435 419.064C122.483 418.792 122.643 418.072 122.643 417.672C122.643 417.4 122.403 417.32 122.099 417.32C121.827 417.32 121.283 417.4 121.139 417.4C120.995 417.4 120.931 417.368 120.931 417.256C120.931 417.08 121.187 417.016 121.427 417.016C121.635 417.016 122.163 417.032 122.243 417.032C122.515 417.032 122.819 417 123.011 417ZM130.122 416.824C131.658 416.824 132.634 417.672 132.634 419C132.634 419.592 132.138 420.216 131.562 420.216C131.194 420.216 130.97 420.008 130.97 419.704C130.97 419.384 131.226 419.128 131.498 419.128C131.77 419.128 131.866 419.4 131.946 419.4C132.09 419.4 132.186 419.144 132.186 418.76C132.186 417.976 131.418 417.16 130.058 417.16C127.93 417.16 126.298 419.704 126.298 421.976C126.298 423.784 127.322 424.888 129.034 424.888C130.602 424.888 131.61 423.8 132.09 422.696C132.266 422.296 132.298 422.248 132.426 422.248C132.538 422.248 132.602 422.328 132.602 422.408C132.602 422.648 132.426 423.032 132.09 423.528C131.418 424.536 130.298 425.224 129.034 425.224C126.986 425.224 125.786 423.928 125.786 421.992C125.786 419.24 127.77 416.824 130.122 416.824ZM138.537 416.824C139.833 416.824 140.681 417.496 140.681 418.536C140.681 419.992 138.713 421.256 135.417 421.256C135.033 421.256 134.825 421.224 134.649 421.224C134.345 421.224 134.297 421.224 134.297 422.008C134.297 423.336 134.809 424.888 136.809 424.888C138.681 424.888 139.865 423.416 140.217 422.232C140.265 422.088 140.313 422.024 140.457 422.024C140.601 422.024 140.633 422.088 140.633 422.2C140.633 422.408 140.457 422.872 140.073 423.416C139.305 424.504 138.169 425.224 136.777 425.224C134.937 425.224 133.849 424.088 133.849 422.088C133.849 419.384 135.945 416.824 138.537 416.824ZM134.489 420.728C134.489 420.888 134.489 420.92 135.353 420.92C138.617 420.92 140.233 419.752 140.233 418.568C140.233 417.72 139.657 417.16 138.489 417.16C137.273 417.16 136.233 417.8 135.577 418.6C134.585 419.8 134.489 420.632 134.489 420.728ZM142.589 423.816C143.053 423.816 143.293 424.04 143.293 424.472C143.293 424.872 142.925 425.256 142.413 425.256C142.045 425.256 141.757 425 141.757 424.632C141.757 424.184 142.157 423.816 142.589 423.816ZM146.745 423.816C147.209 423.816 147.449 424.04 147.449 424.472C147.449 424.872 147.081 425.256 146.569 425.256C146.201 425.256 145.913 425 145.913 424.632C145.913 424.184 146.313 423.816 146.745 423.816ZM150.901 423.816C151.365 423.816 151.605 424.04 151.605 424.472C151.605 424.872 151.237 425.256 150.725 425.256C150.357 425.256 150.069 425 150.069 424.632C150.069 424.184 150.469 423.816 150.901 423.816Z" fill="black"/>
<path d="M231.122 394.896C232.706 394.896 233.794 395.536 234.114 396.928C234.322 395.6 234.258 394.96 234.658 394.96C234.802 394.96 234.834 395.104 234.834 395.232C234.834 395.472 234.546 396.144 234.274 397.728C234.13 398.544 234.066 398.992 234.05 399.136C234.018 399.44 233.922 399.52 233.746 399.52C233.57 399.52 233.57 399.376 233.57 399.248C233.57 399.12 233.794 398.416 233.794 397.872C233.794 397.008 233.682 396.752 233.522 396.448C233.17 395.76 232.258 395.28 231.09 395.28C229.074 395.28 227.842 396.656 227.842 397.952C227.842 398.656 228.066 398.944 228.402 399.248C228.994 399.792 230.93 400.208 232.066 400.448C233.218 400.688 233.826 401.536 233.826 402.624C233.826 404.656 232.066 406.272 229.73 406.272C227.938 406.272 226.482 405.488 226.226 404.08C226.194 404.256 226.178 404.416 226.162 404.56C225.97 405.872 225.938 406.096 225.634 406.096C225.522 406.096 225.458 405.984 225.458 405.872C225.474 405.36 225.922 404.32 226.13 402.752C226.322 401.344 226.354 401.2 226.626 401.2C226.738 401.2 226.818 401.248 226.818 401.408C226.818 401.6 226.45 402.416 226.45 403.216C226.45 404.848 227.81 405.888 229.746 405.888C231.778 405.888 233.378 404.496 233.378 402.624C233.378 401.712 232.802 401.04 231.874 400.832C228.946 400.176 227.394 399.824 227.394 397.952C227.394 396.48 228.738 394.896 231.122 394.896ZM241.932 406.16C241.148 406.16 240.684 405.584 240.684 404.864C240.684 404.176 240.844 403.232 241.18 402.048C241.516 400.848 241.676 400.048 241.676 399.616C241.676 398.688 241.02 398.16 240.124 398.16C238.156 398.16 236.604 399.888 235.948 404.352C235.804 405.36 235.724 405.76 235.644 405.952C235.58 406.096 235.484 406.112 235.356 406.112C235.244 406.112 235.18 406.016 235.18 405.92C235.18 405.84 235.34 405.232 235.852 402.592L237.036 396.544C237.1 396.224 237.164 395.792 237.164 395.6C237.164 395.28 236.908 395.232 236.572 395.232C236.268 395.232 235.884 395.296 235.676 395.296C235.548 395.296 235.452 395.264 235.452 395.152C235.452 394.976 235.708 394.912 235.948 394.912C236.268 394.912 236.684 394.928 236.764 394.928C237.004 394.928 237.324 394.896 237.532 394.896C237.708 394.896 237.724 395.056 237.724 395.12C237.724 395.312 237.58 395.792 237.484 396.272L236.652 400.56C237.596 398.64 238.684 397.824 240.188 397.824C241.308 397.824 242.124 398.464 242.124 399.584C242.124 400.176 241.916 400.976 241.612 402.128C241.276 403.376 241.116 404.16 241.116 404.656C241.116 405.424 241.42 405.84 241.948 405.84C242.62 405.84 243.02 405.136 243.292 404.448C243.5 403.936 243.692 403.168 243.692 403.2C243.74 403.04 243.788 402.992 243.868 402.992C243.996 402.992 244.044 403.072 244.044 403.152C244.044 403.424 243.948 403.856 243.724 404.4C243.292 405.456 242.636 406.16 241.932 406.16ZM249.2 397.824C250.784 397.824 252.112 398.96 252.112 401.104C252.112 403.984 250.192 406.224 247.792 406.224C246 406.224 244.88 404.944 244.88 402.912C244.88 400.224 246.832 397.824 249.2 397.824ZM245.312 403.04C245.312 404.992 246.512 405.888 247.824 405.888C250.352 405.888 251.68 403.056 251.68 401.088C251.68 399.216 250.688 398.16 249.152 398.16C246.976 398.16 245.312 400.496 245.312 403.04ZM263.581 397.648C263.869 397.648 264.189 397.76 264.509 398C265.149 398.464 265.389 399.232 265.389 400.624C265.389 401.344 265.181 402.224 264.765 403.168C263.949 405.04 262.621 406.224 261.149 406.224C259.757 406.224 258.957 405.552 258.957 404.288C258.957 404.016 258.973 403.728 259.021 403.456C258.381 405.216 257.069 406.224 255.725 406.224C254.637 406.224 253.917 405.456 253.917 404.592C253.917 404.24 253.949 403.904 254.013 403.568L254.797 399.552C254.861 399.232 254.909 398.912 254.909 398.672C254.909 398.4 254.669 398.32 254.365 398.32C254.093 398.32 253.549 398.4 253.405 398.4C253.261 398.4 253.197 398.368 253.197 398.256C253.197 398.08 253.469 398.016 253.709 398.016C254.189 398.016 254.301 398.032 254.509 398.032C254.781 398.032 255.085 398 255.229 398C255.357 398 255.469 398.08 255.469 398.224C255.469 398.56 255.325 398.896 255.117 400L254.509 403.152C254.461 403.44 254.365 403.904 254.365 404.4C254.365 405.312 254.925 405.888 255.741 405.888C256.765 405.888 258.493 405.296 259.277 401.792C259.533 400.672 259.725 399.584 259.821 398.928C259.917 398.24 259.997 397.936 260.253 397.936C260.381 397.936 260.445 398.016 260.445 398.144C260.445 398.272 260.349 398.736 260.093 399.76C259.645 401.52 259.341 403.248 259.341 404.288C259.341 405.28 260.045 405.888 261.133 405.888C263.261 405.888 264.957 402.976 264.957 400.288C264.957 398.96 264.349 398.112 263.645 398.112C263.501 398.112 263.357 398.144 263.357 398.256C263.357 398.336 263.453 398.464 263.453 398.656C263.453 398.864 263.229 399.088 262.925 399.088C262.589 399.088 262.397 398.896 262.397 398.544C262.397 398.192 262.829 397.648 263.581 397.648ZM283.05 406.16C282.282 406.16 281.802 405.6 281.802 404.592C281.802 404.064 281.962 403.2 282.298 402.016C282.618 400.848 282.778 400.048 282.778 399.584C282.778 398.704 282.106 398.16 281.258 398.16C278.922 398.16 277.61 400.48 277.05 404.624C276.874 405.904 276.842 406.112 276.538 406.112C276.41 406.112 276.33 406.032 276.33 405.904C276.33 405.76 276.394 405.568 276.458 405.312C276.714 404.304 277.53 400.656 277.53 399.824C277.53 398.736 277.018 398.16 275.978 398.16C273.594 398.16 272.41 400.848 271.93 404.08C271.834 404.656 271.738 405.296 271.642 405.76C271.594 406 271.482 406.112 271.274 406.112C271.162 406.112 271.082 406.032 271.082 405.904C271.082 405.664 271.354 404.784 271.594 403.552L272.362 399.664C272.442 399.264 272.458 399.184 272.458 398.976C272.458 398.576 272.362 398.336 272.042 398.336C271.482 398.336 271.098 398.416 270.954 398.416C270.842 398.416 270.73 398.4 270.73 398.256C270.73 398.08 270.97 398 271.258 398C271.498 398 271.834 398.032 272.106 398.032C272.362 398.032 272.634 398 272.81 398C272.954 398 273.002 398.08 273.002 398.224C273.002 398.352 272.778 399.296 272.618 400.08L272.474 400.768C273.434 398.704 274.49 397.824 276.01 397.824C277.146 397.824 277.898 398.48 277.898 399.456C277.898 399.952 277.77 400.448 277.706 400.752C278.682 398.64 279.722 397.824 281.258 397.824C282.41 397.824 283.21 398.448 283.21 399.552C283.21 400.016 283.05 400.832 282.73 402.048C282.394 403.28 282.234 404.128 282.234 404.592C282.234 405.456 282.602 405.84 283.098 405.84C283.658 405.84 284.138 405.136 284.41 404.448C284.618 403.936 284.794 403.168 284.794 403.2C284.842 403.04 284.89 402.992 284.97 402.992C285.098 402.992 285.146 403.072 285.146 403.152C285.146 403.424 285.05 403.872 284.826 404.416C284.394 405.472 283.802 406.16 283.05 406.16ZM290.647 397.824C291.943 397.824 292.791 398.496 292.791 399.536C292.791 400.992 290.823 402.256 287.527 402.256C287.143 402.256 286.935 402.224 286.759 402.224C286.455 402.224 286.407 402.224 286.407 403.008C286.407 404.336 286.919 405.888 288.919 405.888C290.791 405.888 291.975 404.416 292.327 403.232C292.375 403.088 292.423 403.024 292.567 403.024C292.711 403.024 292.743 403.088 292.743 403.2C292.743 403.408 292.567 403.872 292.183 404.416C291.415 405.504 290.279 406.224 288.887 406.224C287.047 406.224 285.959 405.088 285.959 403.088C285.959 400.384 288.055 397.824 290.647 397.824ZM286.599 401.728C286.599 401.888 286.599 401.92 287.463 401.92C290.727 401.92 292.343 400.752 292.343 399.568C292.343 398.72 291.767 398.16 290.599 398.16C289.383 398.16 288.343 398.8 287.687 399.6C286.695 400.8 286.599 401.632 286.599 401.728ZM213.325 416.824C214.909 416.824 216.237 417.96 216.237 420.104C216.237 422.984 214.317 425.224 211.917 425.224C210.125 425.224 209.005 423.944 209.005 421.912C209.005 419.224 210.957 416.824 213.325 416.824ZM209.437 422.04C209.437 423.992 210.637 424.888 211.949 424.888C214.477 424.888 215.805 422.056 215.805 420.088C215.805 418.216 214.813 417.16 213.277 417.16C211.101 417.16 209.437 419.496 209.437 422.04ZM220.294 414.024C220.422 414.024 220.47 414.072 220.47 414.2C220.47 414.6 219.974 416.184 219.974 416.808C219.974 417.016 220.134 417.064 220.406 417.064C220.71 417.064 221.238 416.984 221.75 416.984C222.134 416.984 222.262 417.032 222.262 417.144C222.262 417.32 222.134 417.368 221.798 417.368L220.166 417.352C219.862 417.352 219.83 417.48 219.766 417.848L218.95 422.168C218.838 422.776 218.79 423.416 218.79 423.672C218.79 424.488 219.174 424.888 219.862 424.888C220.454 424.888 221.51 424.568 221.926 422.376C222.102 421.416 222.166 421.4 222.31 421.4C222.422 421.4 222.47 421.48 222.47 421.592C222.47 421.8 222.406 422.088 222.294 422.456C222.038 423.32 221.542 425.224 219.862 425.224C218.934 425.224 218.342 424.664 218.342 423.752C218.342 423.304 218.39 422.808 218.486 422.344C218.822 420.6 219.382 417.832 219.382 417.544C219.382 417.368 219.318 417.32 219.206 417.32C219.062 417.32 218.406 417.336 217.974 417.336C217.798 417.336 217.718 417.288 217.718 417.176C217.718 417.032 217.894 417 218.262 417H218.838C219.366 417 219.574 416.952 219.814 415.56L220.022 414.328C220.054 414.104 220.15 414.024 220.294 414.024ZM230.416 425.16C229.632 425.16 229.168 424.584 229.168 423.864C229.168 423.176 229.328 422.232 229.664 421.048C230 419.848 230.16 419.048 230.16 418.616C230.16 417.688 229.504 417.16 228.608 417.16C226.64 417.16 225.088 418.888 224.432 423.352C224.288 424.36 224.208 424.76 224.128 424.952C224.064 425.096 223.968 425.112 223.84 425.112C223.728 425.112 223.664 425.016 223.664 424.92C223.664 424.84 223.824 424.232 224.336 421.592L225.52 415.544C225.584 415.224 225.648 414.792 225.648 414.6C225.648 414.28 225.392 414.232 225.056 414.232C224.752 414.232 224.368 414.296 224.16 414.296C224.032 414.296 223.936 414.264 223.936 414.152C223.936 413.976 224.192 413.912 224.432 413.912C224.752 413.912 225.168 413.928 225.248 413.928C225.488 413.928 225.808 413.896 226.016 413.896C226.192 413.896 226.208 414.056 226.208 414.12C226.208 414.312 226.064 414.792 225.968 415.272L225.136 419.56C226.08 417.64 227.168 416.824 228.672 416.824C229.792 416.824 230.608 417.464 230.608 418.584C230.608 419.176 230.4 419.976 230.096 421.128C229.76 422.376 229.6 423.16 229.6 423.656C229.6 424.424 229.904 424.84 230.432 424.84C231.104 424.84 231.504 424.136 231.776 423.448C231.984 422.936 232.176 422.168 232.176 422.2C232.224 422.04 232.272 421.992 232.352 421.992C232.48 421.992 232.528 422.072 232.528 422.152C232.528 422.424 232.432 422.856 232.208 423.4C231.776 424.456 231.12 425.16 230.416 425.16ZM238.069 416.824C239.365 416.824 240.213 417.496 240.213 418.536C240.213 419.992 238.245 421.256 234.949 421.256C234.565 421.256 234.357 421.224 234.181 421.224C233.877 421.224 233.829 421.224 233.829 422.008C233.829 423.336 234.341 424.888 236.341 424.888C238.213 424.888 239.397 423.416 239.749 422.232C239.797 422.088 239.845 422.024 239.989 422.024C240.133 422.024 240.165 422.088 240.165 422.2C240.165 422.408 239.989 422.872 239.605 423.416C238.837 424.504 237.701 425.224 236.309 425.224C234.469 425.224 233.381 424.088 233.381 422.088C233.381 419.384 235.477 416.824 238.069 416.824ZM234.021 420.728C234.021 420.888 234.021 420.92 234.885 420.92C238.149 420.92 239.765 419.752 239.765 418.568C239.765 417.72 239.189 417.16 238.021 417.16C236.805 417.16 235.765 417.8 235.109 418.6C234.117 419.8 234.021 420.632 234.021 420.728ZM246.676 416.824C247.364 416.824 247.844 417.192 247.844 417.816C247.844 418.264 247.492 418.664 247.092 418.664C246.852 418.664 246.66 418.44 246.66 418.232C246.66 417.928 246.884 417.736 247.092 417.704C247.22 417.688 247.284 417.672 247.284 417.576C247.284 417.368 246.964 417.16 246.58 417.16C245.636 417.16 244.692 417.704 244.084 418.728C243.444 419.816 242.964 421.144 242.612 423.944C242.468 425.112 242.308 425.112 242.132 425.112C242.02 425.112 241.924 425.032 241.924 424.92C241.924 424.84 241.972 424.664 242.052 424.296C242.516 422.12 242.948 419.752 243.22 418.408C243.316 417.96 243.332 417.816 243.332 417.672C243.332 417.4 243.076 417.32 242.772 417.32C242.452 417.32 242.036 417.4 241.796 417.4C241.652 417.4 241.604 417.368 241.604 417.256C241.604 417.096 241.812 417.016 242.212 417.016H243.028C243.108 417.016 243.348 417 243.652 417C243.796 417 243.892 417.048 243.892 417.176C243.892 417.432 243.716 417.72 243.364 419.544C244.132 417.704 245.252 416.824 246.676 416.824ZM257.797 413.896C259.685 413.896 260.741 414.616 261.141 416.216L261.189 415.816C261.349 414.456 261.397 414.072 261.669 414.072C261.797 414.072 261.845 414.232 261.845 414.36C261.845 414.6 261.557 415.496 261.365 416.44C261.221 417.096 261.189 417.688 261.141 418.088C261.077 418.568 260.965 418.648 260.789 418.648C260.661 418.648 260.629 418.52 260.629 418.344C260.629 418.152 260.837 417.448 260.837 417C260.837 415.272 259.797 414.28 257.813 414.28C254.869 414.28 252.709 417.592 252.709 420.632C252.709 423.352 254.117 424.888 256.437 424.888C259.269 424.888 260.293 422.456 260.293 420.984C260.293 420.552 260.117 420.44 259.685 420.44C259.445 420.44 259.109 420.472 258.773 420.472C258.517 420.472 258.357 420.456 258.357 420.28C258.357 420.104 258.565 420.04 258.741 420.04C258.917 420.04 259.525 420.136 260.661 420.136C261.573 420.136 262.165 420.04 262.405 420.04C262.645 420.04 262.757 420.088 262.757 420.2C262.757 420.392 262.549 420.472 262.421 420.472H261.605C261.125 420.472 260.837 420.568 260.613 421.784C260.501 422.408 260.341 423.416 260.261 424.248C260.197 424.92 260.165 425.144 259.893 425.144C259.749 425.144 259.669 425.032 259.669 424.904C259.669 424.776 259.909 424.12 260.101 423.096C259.285 424.568 258.133 425.272 256.405 425.272C253.797 425.272 252.261 423.544 252.261 420.712C252.261 417.048 254.805 413.896 257.797 413.896ZM269.263 413.896C271.775 413.896 273.183 415.544 273.183 418.36C273.183 420.184 272.591 422.04 271.583 423.32C270.591 424.584 269.391 425.272 267.647 425.272C265.295 425.272 263.823 423.48 263.823 420.856C263.823 417.032 266.271 413.896 269.263 413.896ZM264.255 420.92C264.255 423.336 265.567 424.888 267.663 424.888C268.751 424.888 269.663 424.584 270.383 423.976C271.855 422.744 272.751 420.408 272.751 418.392C272.751 415.768 271.503 414.28 269.279 414.28C266.431 414.28 264.255 417.464 264.255 420.92ZM279.67 413.896C282.182 413.896 283.59 415.544 283.59 418.36C283.59 420.184 282.998 422.04 281.99 423.32C280.998 424.584 279.798 425.272 278.054 425.272C275.702 425.272 274.23 423.48 274.23 420.856C274.23 417.032 276.678 413.896 279.67 413.896ZM274.662 420.92C274.662 423.336 275.974 424.888 278.07 424.888C279.158 424.888 280.07 424.584 280.79 423.976C282.262 422.744 283.158 420.408 283.158 418.392C283.158 415.768 281.91 414.28 279.686 414.28C276.838 414.28 274.662 417.464 274.662 420.92ZM289.356 413.896C290.94 413.896 292.028 414.536 292.348 415.928C292.556 414.6 292.492 413.96 292.892 413.96C293.036 413.96 293.068 414.104 293.068 414.232C293.068 414.472 292.78 415.144 292.508 416.728C292.364 417.544 292.3 417.992 292.284 418.136C292.252 418.44 292.156 418.52 291.98 418.52C291.804 418.52 291.804 418.376 291.804 418.248C291.804 418.12 292.028 417.416 292.028 416.872C292.028 416.008 291.916 415.752 291.756 415.448C291.404 414.76 290.492 414.28 289.324 414.28C287.308 414.28 286.076 415.656 286.076 416.952C286.076 417.656 286.3 417.944 286.636 418.248C287.228 418.792 289.164 419.208 290.3 419.448C291.452 419.688 292.06 420.536 292.06 421.624C292.06 423.656 290.3 425.272 287.964 425.272C286.172 425.272 284.716 424.488 284.46 423.08C284.428 423.256 284.412 423.416 284.396 423.56C284.204 424.872 284.172 425.096 283.868 425.096C283.756 425.096 283.692 424.984 283.692 424.872C283.708 424.36 284.156 423.32 284.364 421.752C284.556 420.344 284.588 420.2 284.86 420.2C284.972 420.2 285.052 420.248 285.052 420.408C285.052 420.6 284.684 421.416 284.684 422.216C284.684 423.848 286.044 424.888 287.98 424.888C290.012 424.888 291.612 423.496 291.612 421.624C291.612 420.712 291.036 420.04 290.108 419.832C287.18 419.176 285.628 418.824 285.628 416.952C285.628 415.48 286.972 413.896 289.356 413.896ZM294.966 414.056C295.11 414.056 295.686 414.152 296.694 414.152C298.598 414.152 301.062 414.056 302.79 414.056C303.19 414.056 303.302 414.12 303.302 414.36C303.302 414.616 302.998 415.544 302.838 416.616C302.678 417.656 302.662 418.184 302.358 418.184C302.214 418.184 302.182 418.008 302.182 417.88C302.182 417.48 302.742 416.008 302.742 414.984C302.742 414.584 302.406 414.488 301.302 414.488H297.83C296.886 414.488 296.758 414.584 296.534 415.752L296.054 418.216C296.006 418.456 295.958 418.712 295.958 418.776C295.958 419.064 296.134 419.064 296.438 419.064H298.598C299.366 419.064 299.734 418.728 299.846 417.72C299.942 416.904 300.022 416.648 300.246 416.648C300.39 416.648 300.422 416.76 300.422 416.888C300.422 417.192 300.086 417.864 299.91 418.824C299.462 421.24 299.718 421.88 299.238 421.88C299.078 421.88 299.078 421.736 299.078 421.624C299.078 421.352 299.382 420.52 299.382 420.072C299.382 419.608 299.19 419.432 298.342 419.432H296.182C295.942 419.432 295.798 419.576 295.75 419.8C295.622 420.408 295.222 422.44 295.094 423.176C294.982 423.8 294.918 424.136 294.918 424.28C294.918 424.536 295.062 424.616 296.294 424.616H299.542C301.318 424.616 301.478 424.408 301.798 422.36C302.006 421.032 302.086 420.968 302.278 420.968C302.422 420.968 302.47 421.064 302.47 421.192C302.47 421.24 302.438 421.368 302.326 421.784C302.198 422.264 301.75 424.344 301.734 424.536C301.702 424.856 301.382 425.048 300.998 425.048C300.534 425.048 298.214 424.952 294.71 424.952C293.574 424.952 293.19 425.048 292.982 425.048C292.79 425.048 292.63 425.032 292.63 424.84C292.63 424.712 292.822 424.616 293.014 424.616C293.094 424.616 293.462 424.648 293.734 424.648C294.262 424.648 294.438 424.136 294.646 423.08L295.958 416.312C296.102 415.592 296.166 415.112 296.166 414.856C296.166 414.616 295.99 414.472 295.718 414.472C295.35 414.472 294.918 414.504 294.838 414.504C294.662 414.504 294.534 414.472 294.534 414.28C294.534 414.152 294.758 414.056 294.966 414.056ZM308.495 413.896C308.639 413.896 308.735 413.976 308.735 414.12C308.719 414.52 308.607 414.728 308.159 417.016L307.551 420.104C307.151 422.12 307.183 422.952 306.799 422.952C306.719 422.952 306.591 422.856 306.591 422.728C306.591 422.536 306.911 420.776 307.087 419.944L307.631 417.304C308.095 415.016 308.031 413.896 308.495 413.896ZM306.543 423.816C306.975 423.816 307.231 424.024 307.231 424.456C307.231 424.856 306.863 425.256 306.335 425.256C305.967 425.256 305.711 425 305.711 424.632C305.711 424.168 306.111 423.816 306.543 423.816Z" fill="black"/>
<mask id="mask0_6_407" style="mask-type:alpha" maskUnits="userSpaceOnUse" x="119" y="132" width="134" height="134">
<rect x="119" y="132" width="134" height="134" fill="#D9D9D9"/>
</mask>
<g mask="url(#mask0_6_407)">
<rect x="74.5721" y="77.5403" width="238.62" height="250.802" fill="#95CBE2"/>
<path d="M189.629 297.053C187.177 299.015 184.779 301.054 182.842 303.509C179.798 307.356 178.369 309.11 173.412 308.518C169.377 308.033 165.28 307.24 161.283 306.171C156.533 304.901 151.553 304.794 146.703 303.955C135.474 302.016 130.263 293.821 124.668 284.765C120.741 278.401 116.014 277.593 108.689 277.432C109.527 276.578 110.365 275.716 111.203 274.862C108.835 274.538 99.0666 275.608 103.793 271.368C108.197 267.413 113.055 263.974 118.25 261.127C122.816 258.618 127.696 256.541 131.639 253.14C134.106 251.008 136.128 248.423 138.38 246.068C150.838 233.034 169.915 227.786 187.976 228.71C189.767 209.596 182.742 190.483 184.402 171.354C184.886 165.768 186.662 156.173 191.735 152.802C196.823 149.424 205.923 152.826 209.727 156.734C212.24 159.32 212.233 164.968 212.156 168.276C212.11 170.238 212.125 173.285 211.08 175.032C209.181 178.218 204.862 176.709 202.541 179.095C200.804 180.88 201.088 183.904 201.388 186.143C202.095 191.437 204.347 196.408 206.299 201.332C209.765 210.089 211.818 219.753 217.175 227.648C222.409 235.373 226.897 242.013 226.536 251.839C226.198 261.142 221.002 270.999 214.438 277.485C211.126 280.756 206.914 282.649 203.409 285.572C199.251 289.035 195.155 292.69 190.866 296.083C190.451 296.414 190.044 296.737 189.629 297.068V297.053Z" fill="white"/>
<path d="M211.203 178.218C210.58 177.625 209.927 177.063 209.181 176.679C207.367 175.74 205.223 176.363 203.486 175.44C198.951 173.031 202.74 167.499 202.848 164.152C202.91 162.328 203.286 160.982 205.062 160.112C207.075 159.127 210.257 159.366 211.717 161.22C212.878 162.69 212.34 164.614 212.44 166.314C212.655 169.923 216.99 173.17 218.481 176.332C219.611 178.725 219.203 180.857 216.329 181.011C214.016 181.134 212.671 179.587 211.21 178.202L211.203 178.218Z" fill="#E99A4F"/>
<path d="M208.467 171.654C208.951 171.677 209.589 172 209.858 172.162C210.426 172.5 210.957 173.062 210.795 173.77C210.726 174.07 210.403 174.27 210.081 174.201C209.496 174.07 207.083 172.462 208.052 171.754C208.159 171.677 208.305 171.646 208.467 171.654Z" fill="#B28356"/>
<path d="M161.983 269.976C160.699 270.453 159.431 270.891 158.17 271.299C156.541 271.822 154.712 272.269 153.175 271.522C151.637 270.776 150.984 268.298 152.437 267.398C149.355 269.637 145.566 270.899 141.753 270.968C140.324 270.991 138.764 270.799 137.749 269.799C136.735 268.798 136.712 266.767 138.01 266.175C134.191 267.737 130.002 268.391 125.882 268.067C123.646 267.89 120.817 266.636 121.179 264.428C121.448 262.797 125.698 259.834 126.874 258.726C129.564 256.187 132.169 253.694 135.182 251.47C140.608 247.461 145.289 242.468 151.038 238.897C156.003 235.812 161.591 233.534 167.439 233.172C174.088 232.765 186.001 238.035 186.093 245.961C186.17 252.671 185.409 258.165 179.645 261.558C174.257 264.736 168.054 267.713 161.983 269.968V269.976Z" fill="#DFDFDD"/>
<path d="M198.936 163.521C198.828 162.729 198.014 161.805 197.099 161.613C196.415 161.467 195.623 161.828 195.431 162.567C195.27 163.175 195.562 163.868 196.015 164.26C196.477 164.652 197.068 164.775 197.637 164.745C198.682 164.683 199.021 164.145 198.936 163.521Z" fill="#1D1D1B"/>
<path d="M203.355 173.355C205.4 174.155 207.567 174.501 209.327 175.878C210.296 176.64 211.072 177.579 211.963 178.418C213.708 180.08 216.598 181.018 218.397 178.772C218.589 178.533 218.842 178.533 219.05 178.656C219.034 179.456 218.719 180.126 218.051 180.541C217.859 180.649 217.666 180.734 217.467 180.811C217.136 180.918 216.759 180.995 216.321 181.018C214.008 181.142 212.663 179.595 211.203 178.21C210.58 177.617 209.927 177.056 209.181 176.671C209.097 176.625 209.004 176.602 208.912 176.563C207.175 175.217 205.008 174.824 203.317 173.424C203.286 173.393 203.317 173.332 203.363 173.347L203.355 173.355Z" fill="#B28356"/>
<path d="M185.563 139.229C185.186 138.306 184.763 137.398 184.264 136.529C183.488 135.19 194.317 132.25 195.208 132.158C199.22 131.758 203.724 132.127 207.629 133.158C207.383 134.751 207.206 136.305 207.052 137.96C206.906 139.529 206.653 141.107 206.53 142.684C206.376 144.616 205.892 146.678 206.13 148.624C207.959 148.671 210.011 148.563 211.856 148.324C213.178 148.147 214.631 147.786 215.899 148.455C218.304 149.725 215.338 153.072 214.192 154.011C210.004 157.45 205.085 159.174 199.82 159.959C195.439 160.613 190.889 160.89 186.562 159.766C184.817 159.312 176.201 156.227 179.737 153.133C180.774 152.225 188.86 151.879 188.96 151.056C188.314 148.194 187.815 145.316 186.816 142.538C186.416 141.43 186.032 140.314 185.586 139.222L185.563 139.229Z" fill="#1D1D1B"/>
<path d="M189.636 151.087C189.636 151.087 189.867 151.179 190.236 151.325C190.628 151.479 191.204 151.656 191.942 151.81C193.402 152.133 195.524 152.287 197.783 151.902C200.043 151.518 201.957 150.748 203.294 150.117C204.631 149.479 205.408 148.986 205.408 148.986C205.408 148.986 204.485 149.094 203.04 149.325C201.211 149.632 199.297 149.963 197.499 150.263C195.37 150.625 193.433 150.887 191.996 150.979C191.281 151.033 190.682 151.064 190.274 151.064C189.882 151.079 189.629 151.087 189.629 151.087H189.636Z" fill="white"/>
<path d="M191.012 208.812C191.996 206.318 197.422 210.281 199.436 210.812C200.181 211.012 203.878 212.859 204.439 212.289C207.129 209.55 209.812 206.88 212.471 204.118C213.578 202.971 214.147 201.786 215.384 203.548C216.36 204.949 216.598 207.165 216.96 208.819C217.482 211.181 218.343 213.513 218.835 215.898C219.481 219.022 219.457 219.784 217.29 219.361C213.347 218.591 209.304 216.999 205.362 215.829C204.631 215.614 202.257 219.538 201.726 220.146C200.289 221.785 198.552 224.101 196.561 224.593C194.824 225.016 193.925 222.362 193.41 220.423C192.68 217.668 192.081 215.013 191.304 212.289C190.812 210.566 190.759 209.466 191.02 208.804L191.012 208.812Z" fill="#1D1D1B"/>
</g>
<line x1="184.5" y1="557" x2="184.5" y2="325" stroke="#D8D8D8"/>
<path d="M120.99 456.421C120.494 456.421 120.02 456.625 119.689 456.979L107.105 470.457L101.244 464.845C100.914 464.529 100.476 464.355 100.011 464.355C99.545 464.355 99.1023 464.531 98.7718 464.85C98.0918 465.507 98.0941 466.573 98.7768 467.228L105.942 474.089C106.272 474.405 106.71 474.579 107.176 474.579C107.197 474.579 107.22 474.578 107.224 474.577C107.701 474.565 108.157 474.361 108.477 474.02L122.291 459.225C122.935 458.535 122.874 457.47 122.157 456.852C121.836 456.574 121.421 456.421 120.99 456.421L120.99 456.421Z" fill="#379923"/>
<path d="M110.5 443C98.0935 443 88 453.093 88 465.5C88 477.907 98.0935 488 110.5 488C122.907 488 133 477.907 133 465.5C133 453.093 122.907 443 110.5 443ZM110.5 484.539C100.002 484.539 91.4614 475.998 91.4614 465.5C91.4614 455.002 100.002 446.461 110.5 446.461C120.998 446.461 129.539 455.002 129.539 465.5C129.539 475.998 120.998 484.539 110.5 484.539Z" fill="#379923"/>
<g clip-path="url(#clip0_6_407)">
<path d="M257.052 465.5L249.969 458.417C249.294 457.742 249.294 456.643 249.969 455.968C250.295 455.641 250.73 455.461 251.193 455.461C251.655 455.461 252.09 455.641 252.416 455.968L259.5 463.052L266.583 455.968C266.91 455.641 267.345 455.461 267.807 455.461C268.27 455.461 268.705 455.641 269.032 455.968C269.706 456.643 269.706 457.741 269.032 458.416L261.948 465.5L269.032 472.584C269.359 472.911 269.539 473.345 269.539 473.808C269.539 474.27 269.359 474.705 269.032 475.031C268.705 475.358 268.271 475.539 267.808 475.539C267.346 475.539 266.912 475.359 266.584 475.031L259.5 467.948L252.417 475.031C252.09 475.358 251.655 475.539 251.193 475.539C250.731 475.539 250.295 475.359 249.969 475.031C249.642 474.705 249.462 474.27 249.462 473.807C249.462 473.345 249.642 472.911 249.969 472.584L257.053 465.5H257.052Z" fill="#CC2D28"/>
<path d="M259.5 443C271.907 443 282 453.093 282 465.5C282 477.907 271.907 488 259.5 488C247.093 488 237 477.907 237 465.5C237 453.093 247.093 443 259.5 443ZM259.5 484.539C269.998 484.539 278.539 475.998 278.539 465.5C278.539 455.002 269.998 446.461 259.5 446.461C249.002 446.461 240.461 455.002 240.461 465.5C240.461 475.998 249.002 484.539 259.5 484.539Z" fill="#CC2D28"/>
</g>
<path d="M20.6992 13.3984C20.6992 12.6484 20.9414 12.0312 21.4258 11.5469C21.918 11.0625 22.5391 10.8203 23.2891 10.8203C24.0391 10.8203 24.6562 11.0625 25.1406 11.5469C25.6328 12.0312 25.8789 12.6484 25.8789 13.3984C25.8789 14.1484 25.6328 14.7695 25.1406 15.2617C24.6562 15.7539 24.0391 16 23.2891 16C22.5391 16 21.918 15.7539 21.4258 15.2617C20.9414 14.7695 20.6992 14.1484 20.6992 13.3984ZM47.1494 20.7109C45.8603 21.8906 44.2119 22.4805 42.2041 22.4805C39.7197 22.4805 37.7666 21.6836 36.3447 20.0898C34.9228 18.4883 34.2119 16.293 34.2119 13.5039C34.2119 10.4883 35.0205 8.16406 36.6377 6.53125C38.0439 5.10938 39.833 4.39844 42.0048 4.39844C44.9111 4.39844 47.0361 5.35156 48.3798 7.25781C49.122 8.32812 49.5205 9.40234 49.5752 10.4805H45.9658C45.7314 9.65234 45.4306 9.02734 45.0634 8.60547C44.4072 7.85547 43.4345 7.48047 42.1455 7.48047C40.833 7.48047 39.7978 8.01172 39.04 9.07422C38.2822 10.1289 37.9033 11.625 37.9033 13.5625C37.9033 15.5 38.3017 16.9531 39.0986 17.9219C39.9033 18.8828 40.9228 19.3633 42.1572 19.3633C43.4228 19.3633 44.3877 18.9492 45.0517 18.1211C45.4189 17.6758 45.7236 17.0078 45.9658 16.1172H49.54C49.2275 18 48.4306 19.5312 47.1494 20.7109ZM63.0991 14.5V22H59.6889V14.2305C59.6889 13.543 59.5717 12.9883 59.3373 12.5664C59.0327 11.9727 58.4545 11.6758 57.603 11.6758C56.7202 11.6758 56.0483 11.9727 55.5873 12.5664C55.1342 13.1523 54.9077 13.9922 54.9077 15.0859V22H51.5795V4.78516H54.9077V10.8906C55.392 10.1484 55.9506 9.63281 56.5834 9.34375C57.2241 9.04688 57.8959 8.89844 58.5991 8.89844C59.3881 8.89844 60.103 9.03516 60.7436 9.30859C61.392 9.58203 61.9233 10 62.3373 10.5625C62.6889 11.0391 62.9037 11.5312 62.9819 12.0391C63.06 12.5391 63.0991 13.3594 63.0991 14.5ZM76.4003 10.8438C77.4784 12.1953 78.0175 13.793 78.0175 15.6367C78.0175 17.5117 77.4784 19.1172 76.4003 20.4531C75.3222 21.7812 73.6855 22.4453 71.4902 22.4453C69.2948 22.4453 67.6581 21.7812 66.58 20.4531C65.5019 19.1172 64.9628 17.5117 64.9628 15.6367C64.9628 13.793 65.5019 12.1953 66.58 10.8438C67.6581 9.49219 69.2948 8.81641 71.4902 8.81641C73.6855 8.81641 75.3222 9.49219 76.4003 10.8438ZM71.4784 11.6406C70.5019 11.6406 69.748 11.9883 69.2167 12.6836C68.6933 13.3711 68.4316 14.3555 68.4316 15.6367C68.4316 16.918 68.6933 17.9062 69.2167 18.6016C69.748 19.2969 70.5019 19.6445 71.4784 19.6445C72.455 19.6445 73.205 19.2969 73.7284 18.6016C74.2519 17.9062 74.5136 16.918 74.5136 15.6367C74.5136 14.3555 74.2519 13.3711 73.7284 12.6836C73.205 11.9883 72.455 11.6406 71.4784 11.6406ZM90.5922 10.8438C91.6703 12.1953 92.2094 13.793 92.2094 15.6367C92.2094 17.5117 91.6703 19.1172 90.5922 20.4531C89.5141 21.7812 87.8773 22.4453 85.682 22.4453C83.4867 22.4453 81.85 21.7812 80.7719 20.4531C79.6937 19.1172 79.1547 17.5117 79.1547 15.6367C79.1547 13.793 79.6937 12.1953 80.7719 10.8438C81.85 9.49219 83.4867 8.81641 85.682 8.81641C87.8773 8.81641 89.5141 9.49219 90.5922 10.8438ZM85.6703 11.6406C84.6937 11.6406 83.9398 11.9883 83.4086 12.6836C82.8852 13.3711 82.6234 14.3555 82.6234 15.6367C82.6234 16.918 82.8852 17.9062 83.4086 18.6016C83.9398 19.2969 84.6937 19.6445 85.6703 19.6445C86.6469 19.6445 87.3969 19.2969 87.9203 18.6016C88.4437 17.9062 88.7055 16.918 88.7055 15.6367C88.7055 14.3555 88.4437 13.3711 87.9203 12.6836C87.3969 11.9883 86.6469 11.6406 85.6703 11.6406ZM102.933 9.8125C103.933 10.4531 104.507 11.5547 104.655 13.1172H101.315C101.268 12.6875 101.147 12.3477 100.952 12.0977C100.585 11.6445 99.9598 11.418 99.077 11.418C98.3505 11.418 97.8309 11.5312 97.5184 11.7578C97.2138 11.9844 97.0614 12.25 97.0614 12.5547C97.0614 12.9375 97.2255 13.2148 97.5536 13.3867C97.8817 13.5664 99.0419 13.875 101.034 14.3125C102.362 14.625 103.358 15.0977 104.022 15.7305C104.679 16.3711 105.007 17.1719 105.007 18.1328C105.007 19.3984 104.534 20.4336 103.589 21.2383C102.651 22.0352 101.198 22.4336 99.2294 22.4336C97.2216 22.4336 95.7372 22.0117 94.7763 21.168C93.8231 20.3164 93.3466 19.2344 93.3466 17.9219H96.7333C96.8036 18.5156 96.9559 18.9375 97.1903 19.1875C97.6044 19.6328 98.37 19.8555 99.4872 19.8555C100.143 19.8555 100.663 19.7578 101.046 19.5625C101.436 19.3672 101.632 19.0742 101.632 18.6836C101.632 18.3086 101.475 18.0234 101.163 17.8281C100.85 17.6328 99.6903 17.2969 97.6825 16.8203C96.2372 16.4609 95.2177 16.0117 94.6239 15.4727C94.0302 14.9414 93.7333 14.1758 93.7333 13.1758C93.7333 11.9961 94.1942 10.9844 95.1161 10.1406C96.0458 9.28906 97.3505 8.86328 99.0302 8.86328C100.624 8.86328 101.925 9.17969 102.933 9.8125ZM117.945 18.25C117.859 19.0078 117.464 19.7773 116.761 20.5586C115.667 21.8008 114.136 22.4219 112.167 22.4219C110.542 22.4219 109.109 21.8984 107.867 20.8516C106.624 19.8047 106.003 18.1016 106.003 15.7422C106.003 13.5312 106.562 11.8359 107.679 10.6562C108.804 9.47656 110.261 8.88672 112.05 8.88672C113.113 8.88672 114.07 9.08594 114.921 9.48438C115.773 9.88281 116.476 10.5117 117.031 11.3711C117.531 12.1289 117.855 13.0078 118.003 14.0078C118.089 14.5938 118.124 15.4375 118.109 16.5391H109.367C109.413 17.8203 109.816 18.7188 110.574 19.2344C111.035 19.5547 111.589 19.7148 112.238 19.7148C112.925 19.7148 113.484 19.5195 113.913 19.1289C114.148 18.918 114.355 18.625 114.535 18.25H117.945ZM114.64 14.3359C114.585 13.4531 114.316 12.7852 113.831 12.332C113.355 11.8711 112.761 11.6406 112.05 11.6406C111.277 11.6406 110.675 11.8828 110.245 12.3672C109.824 12.8516 109.558 13.5078 109.449 14.3359H114.64ZM131.282 18.6484L133.918 9.22656H137.469L133.086 21.7891C132.243 24.2109 131.575 25.7109 131.082 26.2891C130.59 26.875 129.606 27.168 128.129 27.168C127.832 27.168 127.594 27.1641 127.414 27.1562C127.235 27.1562 126.965 27.1445 126.606 27.1211V24.4492L127.028 24.4727C127.356 24.4883 127.668 24.4766 127.965 24.4375C128.262 24.3984 128.512 24.3086 128.715 24.168C128.91 24.0352 129.09 23.7578 129.254 23.3359C129.426 22.9141 129.496 22.6562 129.465 22.5625L124.778 9.22656H128.493L131.282 18.6484ZM149.622 10.8438C150.7 12.1953 151.239 13.793 151.239 15.6367C151.239 17.5117 150.7 19.1172 149.622 20.4531C148.544 21.7812 146.907 22.4453 144.712 22.4453C142.516 22.4453 140.88 21.7812 139.802 20.4531C138.723 19.1172 138.184 17.5117 138.184 15.6367C138.184 13.793 138.723 12.1953 139.802 10.8438C140.88 9.49219 142.516 8.81641 144.712 8.81641C146.907 8.81641 148.544 9.49219 149.622 10.8438ZM144.7 11.6406C143.723 11.6406 142.97 11.9883 142.438 12.6836C141.915 13.3711 141.653 14.3555 141.653 15.6367C141.653 16.918 141.915 17.9062 142.438 18.6016C142.97 19.2969 143.723 19.6445 144.7 19.6445C145.677 19.6445 146.427 19.2969 146.95 18.6016C147.473 17.9062 147.735 16.918 147.735 15.6367C147.735 14.3555 147.473 13.3711 146.95 12.6836C146.427 11.9883 145.677 11.6406 144.7 11.6406ZM161.353 20.1953C161.322 20.2344 161.243 20.3516 161.118 20.5469C160.993 20.7422 160.845 20.9141 160.673 21.0625C160.15 21.5312 159.642 21.8516 159.15 22.0234C158.665 22.1953 158.095 22.2812 157.439 22.2812C155.548 22.2812 154.275 21.6016 153.618 20.2422C153.251 19.4922 153.068 18.3867 153.068 16.9258V9.22656H156.49V16.9258C156.49 17.6523 156.575 18.1992 156.747 18.5664C157.052 19.2148 157.65 19.5391 158.54 19.5391C159.681 19.5391 160.462 19.0781 160.884 18.1562C161.103 17.6562 161.212 16.9961 161.212 16.1758V9.22656H164.599V22H161.353V20.1953ZM173.775 12.3086C172.431 12.3086 171.529 12.7461 171.068 13.6211C170.81 14.1133 170.681 14.8711 170.681 15.8945V22H167.318V9.22656H170.506V11.4531C171.021 10.6016 171.47 10.0195 171.853 9.70703C172.478 9.18359 173.291 8.92188 174.291 8.92188C174.353 8.92188 174.404 8.92578 174.443 8.93359C174.49 8.93359 174.588 8.9375 174.736 8.94531V12.3672C174.525 12.3438 174.338 12.3281 174.174 12.3203C174.01 12.3125 173.877 12.3086 173.775 12.3086ZM188.413 4.62109V7.33984C188.225 7.31641 187.909 7.30078 187.464 7.29297C187.026 7.27734 186.721 7.375 186.55 7.58594C186.385 7.78906 186.303 8.01562 186.303 8.26562V9.34375H188.495V11.6992H186.303V22H182.975V11.6992H181.112V9.34375H182.94V8.52344C182.94 7.15625 183.171 6.21484 183.632 5.69922C184.116 4.93359 185.284 4.55078 187.135 4.55078C187.346 4.55078 187.538 4.55859 187.71 4.57422C187.882 4.58203 188.116 4.59766 188.413 4.62109ZM190.417 10.6094C191.3 9.48438 192.816 8.92188 194.964 8.92188C196.363 8.92188 197.605 9.19922 198.691 9.75391C199.777 10.3086 200.32 11.3555 200.32 12.8945V18.7539C200.32 19.1602 200.327 19.6523 200.343 20.2305C200.366 20.668 200.433 20.9648 200.542 21.1211C200.652 21.2773 200.816 21.4062 201.034 21.5078V22H197.402C197.3 21.7422 197.23 21.5 197.191 21.2734C197.152 21.0469 197.12 20.7891 197.097 20.5C196.636 21 196.105 21.4258 195.503 21.7773C194.784 22.1914 193.972 22.3984 193.066 22.3984C191.909 22.3984 190.952 22.0703 190.195 21.4141C189.445 20.75 189.07 19.8125 189.07 18.6016C189.07 17.0312 189.675 15.8945 190.886 15.1914C191.55 14.8086 192.527 14.5352 193.816 14.3711L194.952 14.2305C195.57 14.1523 196.011 14.0547 196.277 13.9375C196.753 13.7344 196.991 13.418 196.991 12.9883C196.991 12.4648 196.808 12.1055 196.441 11.9102C196.081 11.707 195.55 11.6055 194.847 11.6055C194.058 11.6055 193.499 11.8008 193.171 12.1914C192.937 12.4805 192.78 12.8711 192.702 13.3633H189.48C189.55 12.2461 189.863 11.3281 190.417 10.6094ZM192.902 19.5859C193.214 19.8438 193.597 19.9727 194.05 19.9727C194.769 19.9727 195.429 19.7617 196.03 19.3398C196.64 18.918 196.956 18.1484 196.98 17.0312V15.7891C196.769 15.9219 196.554 16.0312 196.335 16.1172C196.124 16.1953 195.831 16.2695 195.456 16.3398L194.706 16.4805C194.003 16.6055 193.499 16.7578 193.195 16.9375C192.679 17.2422 192.421 17.7148 192.421 18.3555C192.421 18.9258 192.581 19.3359 192.902 19.5859ZM201.562 9.22656H205.312L207.972 18.6484L210.691 9.22656H214.277L209.672 22H206.144L201.562 9.22656ZM226.348 10.8438C227.426 12.1953 227.965 13.793 227.965 15.6367C227.965 17.5117 227.426 19.1172 226.348 20.4531C225.27 21.7812 223.633 22.4453 221.438 22.4453C219.242 22.4453 217.606 21.7812 216.527 20.4531C215.449 19.1172 214.91 17.5117 214.91 15.6367C214.91 13.793 215.449 12.1953 216.527 10.8438C217.606 9.49219 219.242 8.81641 221.438 8.81641C223.633 8.81641 225.27 9.49219 226.348 10.8438ZM221.426 11.6406C220.449 11.6406 219.695 11.9883 219.164 12.6836C218.641 13.3711 218.379 14.3555 218.379 15.6367C218.379 16.918 218.641 17.9062 219.164 18.6016C219.695 19.2969 220.449 19.6445 221.426 19.6445C222.402 19.6445 223.152 19.2969 223.676 18.6016C224.199 17.9062 224.461 16.918 224.461 15.6367C224.461 14.3555 224.199 13.3711 223.676 12.6836C223.152 11.9883 222.402 11.6406 221.426 11.6406ZM236.309 12.3086C234.965 12.3086 234.063 12.7461 233.602 13.6211C233.344 14.1133 233.215 14.8711 233.215 15.8945V22H229.852V9.22656H233.04V11.4531C233.555 10.6016 234.005 10.0195 234.387 9.70703C235.012 9.18359 235.825 8.92188 236.825 8.92188C236.887 8.92188 236.938 8.92578 236.977 8.93359C237.024 8.93359 237.122 8.9375 237.27 8.94531V12.3672C237.059 12.3438 236.872 12.3281 236.708 12.3203C236.544 12.3125 236.411 12.3086 236.309 12.3086ZM242.193 9.22656V22H238.806V9.22656H242.193ZM242.193 4.62109V7.70312H238.806V4.62109H242.193ZM250.806 19.6211V22.1172L249.224 22.1758C247.646 22.2305 246.568 21.957 245.99 21.3555C245.615 20.9727 245.427 20.3828 245.427 19.5859V11.7227H243.646V9.34375H245.427V5.78125H248.732V9.34375H250.806V11.7227H248.732V18.4727C248.732 18.9961 248.798 19.3242 248.931 19.457C249.064 19.582 249.47 19.6445 250.15 19.6445C250.252 19.6445 250.357 19.6445 250.466 19.6445C250.584 19.6367 250.697 19.6289 250.806 19.6211ZM263.404 18.25C263.318 19.0078 262.924 19.7773 262.221 20.5586C261.127 21.8008 259.596 22.4219 257.627 22.4219C256.002 22.4219 254.568 21.8984 253.326 20.8516C252.084 19.8047 251.463 18.1016 251.463 15.7422C251.463 13.5312 252.022 11.8359 253.139 10.6562C254.264 9.47656 255.721 8.88672 257.51 8.88672C258.572 8.88672 259.529 9.08594 260.381 9.48438C261.232 9.88281 261.936 10.5117 262.49 11.3711C262.99 12.1289 263.315 13.0078 263.463 14.0078C263.549 14.5938 263.584 15.4375 263.568 16.5391H254.826C254.873 17.8203 255.275 18.7188 256.033 19.2344C256.494 19.5547 257.049 19.7148 257.697 19.7148C258.385 19.7148 258.943 19.5195 259.373 19.1289C259.607 18.918 259.815 18.625 259.994 18.25H263.404ZM260.1 14.3359C260.045 13.4531 259.775 12.7852 259.291 12.332C258.815 11.8711 258.221 11.6406 257.51 11.6406C256.736 11.6406 256.135 11.8828 255.705 12.3672C255.283 12.8516 255.018 13.5078 254.908 14.3359H260.1ZM275.159 24.2383C275.519 24.543 276.124 24.6953 276.976 24.6953C278.179 24.6953 278.983 24.293 279.39 23.4883C279.655 22.9727 279.788 22.1055 279.788 20.8867V20.0664C279.468 20.6133 279.124 21.0234 278.757 21.2969C278.093 21.8047 277.23 22.0586 276.167 22.0586C274.526 22.0586 273.214 21.4844 272.23 20.3359C271.253 19.1797 270.765 17.6172 270.765 15.6484C270.765 13.75 271.237 12.1562 272.183 10.8672C273.128 9.57031 274.468 8.92188 276.202 8.92188C276.843 8.92188 277.401 9.01953 277.878 9.21484C278.69 9.55078 279.347 10.168 279.847 11.0664V9.22656H283.093V21.3438C283.093 22.9922 282.815 24.2344 282.261 25.0703C281.308 26.5078 279.48 27.2266 276.776 27.2266C275.144 27.2266 273.812 26.9062 272.78 26.2656C271.749 25.625 271.179 24.668 271.069 23.3945H274.702C274.796 23.7852 274.948 24.0664 275.159 24.2383ZM274.597 17.6406C275.05 18.7188 275.862 19.2578 277.034 19.2578C277.815 19.2578 278.476 18.9648 279.015 18.3789C279.554 17.7852 279.823 16.8438 279.823 15.5547C279.823 14.3438 279.565 13.4219 279.05 12.7891C278.542 12.1562 277.858 11.8398 276.999 11.8398C275.827 11.8398 275.019 12.3906 274.573 13.4922C274.339 14.0781 274.222 14.8008 274.222 15.6602C274.222 16.4023 274.347 17.0625 274.597 17.6406ZM296.394 10.8438C297.472 12.1953 298.011 13.793 298.011 15.6367C298.011 17.5117 297.472 19.1172 296.394 20.4531C295.316 21.7812 293.679 22.4453 291.484 22.4453C289.289 22.4453 287.652 21.7812 286.574 20.4531C285.496 19.1172 284.957 17.5117 284.957 15.6367C284.957 13.793 285.496 12.1953 286.574 10.8438C287.652 9.49219 289.289 8.81641 291.484 8.81641C293.679 8.81641 295.316 9.49219 296.394 10.8438ZM291.472 11.6406C290.496 11.6406 289.742 11.9883 289.21 12.6836C288.687 13.3711 288.425 14.3555 288.425 15.6367C288.425 16.918 288.687 17.9062 289.21 18.6016C289.742 19.2969 290.496 19.6445 291.472 19.6445C292.449 19.6445 293.199 19.2969 293.722 18.6016C294.246 17.9062 294.507 16.918 294.507 15.6367C294.507 14.3555 294.246 13.3711 293.722 12.6836C293.199 11.9883 292.449 11.6406 291.472 11.6406ZM310.586 10.8438C311.664 12.1953 312.203 13.793 312.203 15.6367C312.203 17.5117 311.664 19.1172 310.586 20.4531C309.508 21.7812 307.871 22.4453 305.676 22.4453C303.48 22.4453 301.844 21.7812 300.766 20.4531C299.688 19.1172 299.148 17.5117 299.148 15.6367C299.148 13.793 299.688 12.1953 300.766 10.8438C301.844 9.49219 303.48 8.81641 305.676 8.81641C307.871 8.81641 309.508 9.49219 310.586 10.8438ZM305.664 11.6406C304.688 11.6406 303.934 11.9883 303.402 12.6836C302.879 13.3711 302.617 14.3555 302.617 15.6367C302.617 16.918 302.879 17.9062 303.402 18.6016C303.934 19.2969 304.688 19.6445 305.664 19.6445C306.641 19.6445 307.391 19.2969 307.914 18.6016C308.438 17.9062 308.699 16.918 308.699 15.6367C308.699 14.3555 308.438 13.3711 307.914 12.6836C307.391 11.9883 306.641 11.6406 305.664 11.6406ZM322.926 9.8125C323.926 10.4531 324.5 11.5547 324.649 13.1172H321.309C321.262 12.6875 321.141 12.3477 320.946 12.0977C320.579 11.6445 319.954 11.418 319.071 11.418C318.344 11.418 317.825 11.5312 317.512 11.7578C317.207 11.9844 317.055 12.25 317.055 12.5547C317.055 12.9375 317.219 13.2148 317.547 13.3867C317.875 13.5664 319.036 13.875 321.028 14.3125C322.356 14.625 323.352 15.0977 324.016 15.7305C324.672 16.3711 325 17.1719 325 18.1328C325 19.3984 324.528 20.4336 323.582 21.2383C322.645 22.0352 321.192 22.4336 319.223 22.4336C317.215 22.4336 315.731 22.0117 314.77 21.168C313.817 20.3164 313.34 19.2344 313.34 17.9219H316.727C316.797 18.5156 316.95 18.9375 317.184 19.1875C317.598 19.6328 318.364 19.8555 319.481 19.8555C320.137 19.8555 320.657 19.7578 321.04 19.5625C321.43 19.3672 321.625 19.0742 321.625 18.6836C321.625 18.3086 321.469 18.0234 321.157 17.8281C320.844 17.6328 319.684 17.2969 317.676 16.8203C316.231 16.4609 315.211 16.0117 314.618 15.4727C314.024 14.9414 313.727 14.1758 313.727 13.1758C313.727 11.9961 314.188 10.9844 315.11 10.1406C316.04 9.28906 317.344 8.86328 319.024 8.86328C320.618 8.86328 321.918 9.17969 322.926 9.8125ZM337.938 18.25C337.853 19.0078 337.458 19.7773 336.755 20.5586C335.661 21.8008 334.13 22.4219 332.161 22.4219C330.536 22.4219 329.103 21.8984 327.86 20.8516C326.618 19.8047 325.997 18.1016 325.997 15.7422C325.997 13.5312 326.556 11.8359 327.673 10.6562C328.798 9.47656 330.255 8.88672 332.044 8.88672C333.106 8.88672 334.063 9.08594 334.915 9.48438C335.767 9.88281 336.47 10.5117 337.024 11.3711C337.524 12.1289 337.849 13.0078 337.997 14.0078C338.083 14.5938 338.118 15.4375 338.103 16.5391H329.36C329.407 17.8203 329.81 18.7188 330.567 19.2344C331.028 19.5547 331.583 19.7148 332.231 19.7148C332.919 19.7148 333.478 19.5195 333.907 19.1289C334.142 18.918 334.349 18.625 334.528 18.25H337.938ZM334.634 14.3359C334.579 13.4531 334.31 12.7852 333.825 12.332C333.349 11.8711 332.755 11.6406 332.044 11.6406C331.27 11.6406 330.669 11.8828 330.239 12.3672C329.817 12.8516 329.552 13.5078 329.442 14.3359H334.634ZM346.225 13.3984C346.225 12.6484 346.467 12.0312 346.951 11.5469C347.443 11.0625 348.064 10.8203 348.814 10.8203C349.564 10.8203 350.182 11.0625 350.666 11.5469C351.158 12.0312 351.404 12.6484 351.404 13.3984C351.404 14.1484 351.158 14.7695 350.666 15.2617C350.182 15.7539 349.564 16 348.814 16C348.064 16 347.443 15.7539 346.951 15.2617C346.467 14.7695 346.225 14.1484 346.225 13.3984Z" fill="white"/>
<defs>
<clipPath id="clip0_6_407">
<rect width="45" height="45" fill="white" transform="matrix(-1 0 0 1 282 443)"/>
</clipPath>
</defs>
</svg>
