<svg width="87" height="95" viewBox="0 0 87 95" fill="none" xmlns="http://www.w3.org/2000/svg">
<path d="M25.8086 2.056C26.0486 2.056 26.4966 2.152 27.3126 2.152C28.0166 2.152 28.5926 2.056 28.8326 2.056C29.0406 2.056 29.2646 2.056 29.2646 2.232C29.2646 2.408 29.0406 2.504 28.8486 2.504C28.7526 2.504 28.3686 2.488 28.0966 2.488C27.5686 2.488 27.3766 2.68 27.3766 3.336C27.3766 5.48 27.6006 9.992 27.6966 12.52L31.6006 3.432C32.0806 2.312 32.2406 2.056 32.5446 2.056C32.9446 2.056 32.9446 2.392 32.9766 3.384L33.2966 12.52C35.2966 7.768 36.4806 5.032 36.8326 4.136C37.1366 3.368 37.3126 2.92 37.3126 2.76C37.3126 2.552 37.1206 2.472 36.7206 2.472C36.5126 2.472 36.1606 2.504 35.8886 2.504C35.6486 2.504 35.4726 2.488 35.4726 2.312C35.4726 2.136 35.6966 2.056 35.9366 2.056C36.0806 2.056 37.3926 2.168 37.8086 2.168C38.4966 2.168 38.9446 2.056 39.2166 2.056C39.3926 2.056 39.5846 2.072 39.5846 2.248C39.5846 2.392 39.4246 2.504 39.2806 2.504C39.1686 2.504 38.8166 2.44 38.4966 2.44C38.0166 2.44 37.9366 2.664 37.4086 3.944L34.1606 11.816C33.7606 12.792 33.5046 13.224 33.2326 13.224C32.8966 13.224 32.8486 12.904 32.8006 11.48L32.4966 2.488L28.5766 11.576C27.9526 13 27.8406 13.224 27.5526 13.224C27.2166 13.224 27.1526 12.92 27.1366 12.024L26.8966 3.16C26.8806 2.776 26.8006 2.472 26.3686 2.472C26.1126 2.472 25.8086 2.504 25.7286 2.504C25.5846 2.504 25.3766 2.456 25.3766 2.312C25.3766 2.136 25.6006 2.056 25.8086 2.056ZM42.514 4.824C43.81 4.824 44.658 5.496 44.658 6.536C44.658 7.992 42.69 9.256 39.394 9.256C39.01 9.256 38.802 9.224 38.626 9.224C38.322 9.224 38.274 9.224 38.274 10.008C38.274 11.336 38.786 12.888 40.786 12.888C42.658 12.888 43.842 11.416 44.194 10.232C44.242 10.088 44.29 10.024 44.434 10.024C44.578 10.024 44.61 10.088 44.61 10.2C44.61 10.408 44.434 10.872 44.05 11.416C43.282 12.504 42.146 13.224 40.754 13.224C38.914 13.224 37.826 12.088 37.826 10.088C37.826 7.384 39.922 4.824 42.514 4.824ZM38.466 8.728C38.466 8.888 38.466 8.92 39.33 8.92C42.594 8.92 44.21 7.752 44.21 6.568C44.21 5.72 43.634 5.16 42.466 5.16C41.25 5.16 40.21 5.8 39.554 6.6C38.562 7.8 38.466 8.632 38.466 8.728ZM46.7216 1.896C46.9936 1.896 47.4256 1.928 47.5056 1.928C47.7456 1.928 48.0496 1.896 48.2576 1.896C48.4496 1.896 48.4816 1.976 48.4816 2.104C48.4816 2.28 48.3536 2.776 48.2416 3.336L46.8976 10.216C46.8176 10.6 46.7376 11.224 46.7376 11.56C46.7376 12.392 47.0576 12.84 47.6176 12.84C48.2576 12.84 48.9936 11.896 49.2816 10.424C49.3296 10.152 49.4256 9.992 49.5696 9.992C49.6496 9.992 49.6816 10.04 49.6816 10.12C49.6816 10.344 49.5696 10.792 49.3616 11.352C48.9456 12.472 48.2896 13.16 47.5536 13.16C46.8016 13.16 46.3056 12.6 46.3056 11.496C46.3056 11.128 46.4176 10.52 46.7536 8.808L47.8416 3.32C47.8736 3.144 47.9216 2.84 47.9216 2.6C47.9216 2.344 47.7776 2.232 47.4576 2.232C46.9296 2.232 46.5296 2.312 46.3856 2.312C46.2736 2.312 46.2096 2.264 46.2096 2.152C46.2096 1.976 46.4496 1.896 46.7216 1.896ZM51.4716 1.896C51.7436 1.896 52.1756 1.928 52.2556 1.928C52.4956 1.928 52.7996 1.896 53.0076 1.896C53.1996 1.896 53.2316 1.976 53.2316 2.104C53.2316 2.28 53.1036 2.776 52.9916 3.336L51.6476 10.216C51.5676 10.6 51.4876 11.224 51.4876 11.56C51.4876 12.392 51.8076 12.84 52.3676 12.84C53.0076 12.84 53.7436 11.896 54.0316 10.424C54.0796 10.152 54.1756 9.992 54.3196 9.992C54.3996 9.992 54.4316 10.04 54.4316 10.12C54.4316 10.344 54.3196 10.792 54.1116 11.352C53.6956 12.472 53.0396 13.16 52.3036 13.16C51.5516 13.16 51.0556 12.6 51.0556 11.496C51.0556 11.128 51.1676 10.52 51.5036 8.808L52.5916 3.32C52.6236 3.144 52.6716 2.84 52.6716 2.6C52.6716 2.344 52.5276 2.232 52.2076 2.232C51.6796 2.232 51.2796 2.312 51.1356 2.312C51.0236 2.312 50.9596 2.264 50.9596 2.152C50.9596 1.976 51.1996 1.896 51.4716 1.896ZM56.1896 11.8C56.7176 11.8 56.9576 12.12 56.9576 12.76C56.9576 14.44 55.4216 16.376 54.9736 16.376C54.8616 16.376 54.8136 16.264 54.8136 16.184C54.8136 16.12 54.8776 16.04 55.0376 15.912C55.6296 15.464 56.3976 14.2 56.3976 13.48C56.3976 13.336 56.3976 13.16 56.2056 13.16C56.1416 13.16 55.9496 13.24 55.7576 13.24C55.4536 13.24 55.2456 12.984 55.2456 12.664C55.2456 12.2 55.6936 11.8 56.1896 11.8ZM1.85444 20.896C2.12644 20.896 2.55844 20.928 2.63844 20.928C2.87844 20.928 3.18244 20.896 3.39044 20.896C3.58244 20.896 3.61444 20.976 3.61444 21.104C3.61444 21.28 3.48644 21.776 3.37444 22.336L2.03044 29.216C1.95044 29.6 1.87044 30.224 1.87044 30.56C1.87044 31.392 2.19044 31.84 2.75044 31.84C3.39044 31.84 4.12644 30.896 4.41444 29.424C4.46244 29.152 4.55844 28.992 4.70244 28.992C4.78244 28.992 4.81444 29.04 4.81444 29.12C4.81444 29.344 4.70244 29.792 4.49444 30.352C4.07844 31.472 3.42244 32.16 2.68644 32.16C1.93444 32.16 1.43844 31.6 1.43844 30.496C1.43844 30.128 1.55044 29.52 1.88644 27.808L2.97444 22.32C3.00644 22.144 3.05444 21.84 3.05444 21.6C3.05444 21.344 2.91044 21.232 2.59044 21.232C2.06244 21.232 1.66244 21.312 1.51844 21.312C1.40644 21.312 1.34244 21.264 1.34244 21.152C1.34244 20.976 1.58244 20.896 1.85444 20.896ZM10.0284 23.824C11.6124 23.824 12.9404 24.96 12.9404 27.104C12.9404 29.984 11.0204 32.224 8.62044 32.224C6.82844 32.224 5.70844 30.944 5.70844 28.912C5.70844 26.224 7.66044 23.824 10.0284 23.824ZM6.14044 29.04C6.14044 30.992 7.34044 31.888 8.65244 31.888C11.1804 31.888 12.5084 29.056 12.5084 27.088C12.5084 25.216 11.5164 24.16 9.98044 24.16C7.80444 24.16 6.14044 26.496 6.14044 29.04ZM18.3409 23.824C19.9249 23.824 21.2529 24.96 21.2529 27.104C21.2529 29.984 19.3329 32.224 16.9329 32.224C15.1409 32.224 14.0209 30.944 14.0209 28.912C14.0209 26.224 15.9729 23.824 18.3409 23.824ZM14.4529 29.04C14.4529 30.992 15.6529 31.888 16.9649 31.888C19.4929 31.888 20.8209 29.056 20.8209 27.088C20.8209 25.216 19.8289 24.16 18.2929 24.16C16.1169 24.16 14.4529 26.496 14.4529 29.04ZM24.7334 20.896C24.9094 20.896 24.9414 21.008 24.9414 21.136C24.9414 21.248 24.9094 21.472 24.8454 21.808L23.9014 26.64C23.8854 26.752 23.8534 26.928 23.8534 26.992C23.8534 27.136 23.9014 27.2 24.2054 27.2C25.5654 27.2 26.3814 27.088 26.8934 26.112L27.4694 25.024C27.9014 24.208 28.3494 23.888 29.1174 23.888C29.8374 23.888 30.3654 24.448 30.3654 25.088C30.3654 25.488 30.0614 25.92 29.6294 25.92C29.3094 25.92 29.0854 25.68 29.0854 25.36C29.0854 25.088 29.3734 24.976 29.5814 24.976C29.6934 24.976 29.8054 24.976 29.8054 24.832C29.8054 24.528 29.4214 24.224 29.0374 24.224C28.4454 24.224 28.0934 24.56 27.6614 25.408C27.3254 26.064 27.1014 26.464 26.9894 26.624C26.6694 27.056 26.2374 27.328 25.3254 27.376C26.7334 27.552 27.3414 27.824 27.3414 29.408C27.3414 29.808 27.2934 30.336 27.2934 30.656C27.2934 31.36 27.6294 31.84 28.2054 31.84C28.9414 31.84 29.6774 30.528 29.8374 29.072C29.8534 28.96 29.9174 28.88 30.0294 28.88C30.1414 28.88 30.1894 28.944 30.1894 29.024C30.1894 29.392 30.0934 29.872 29.8854 30.416C29.4854 31.456 28.8774 32.16 28.1734 32.16C27.4214 32.16 26.8934 31.792 26.8934 30.256V29.008C26.8934 27.952 25.9494 27.52 24.2054 27.52C23.6134 27.52 23.7094 27.6 23.3254 29.552C23.0694 30.848 22.9894 31.328 22.9094 31.68C22.8294 32.048 22.7174 32.112 22.5734 32.112C22.3974 32.112 22.3654 32.032 22.3654 31.888C22.3654 31.728 22.7494 30.496 22.9574 29.376C24.1414 23.104 24.4294 21.952 24.4294 21.6C24.4294 21.28 24.1734 21.232 23.8374 21.232C23.5334 21.232 23.1174 21.296 22.9094 21.296C22.7814 21.296 22.7174 21.264 22.7174 21.152C22.7174 20.976 22.9574 20.912 23.1974 20.912C23.5654 20.912 23.8054 20.928 24.0134 20.928C24.2534 20.928 24.5414 20.896 24.7334 20.896ZM35.4722 23.824C37.1682 23.824 38.2562 24.56 38.2562 25.472C38.2562 25.904 37.9042 26.272 37.5842 26.272C37.2002 26.272 37.0402 26.048 37.0402 25.808C37.0402 25.568 37.2002 25.36 37.5522 25.36C37.7442 25.36 37.7602 25.328 37.7602 25.248C37.7602 24.848 37.0242 24.16 35.4402 24.16C34.1122 24.16 32.9442 25.056 32.9442 26.192C32.9442 26.864 33.4882 27.264 34.5442 27.52L36.1122 27.904C37.2002 28.176 37.8562 28.624 37.8562 29.584C37.8562 31.088 36.3042 32.224 34.3202 32.224C32.4642 32.224 31.2002 31.504 31.2002 30.416C31.2002 29.968 31.6642 29.472 32.0962 29.472C32.4962 29.472 32.7042 29.68 32.7042 29.984C32.7042 30.336 32.4962 30.432 32.2882 30.432C32.1922 30.432 32.0802 30.416 31.9682 30.384C31.8562 30.352 31.8082 30.32 31.7922 30.32C31.7122 30.32 31.6322 30.448 31.6322 30.576C31.6322 31.28 32.6722 31.888 34.3202 31.888C36.0962 31.888 37.4082 30.912 37.4082 29.584C37.4082 28.832 36.8322 28.416 35.7442 28.16L34.3362 27.824C33.0722 27.52 32.5122 27.056 32.5122 26.24C32.5122 24.848 33.8562 23.824 35.4722 23.824ZM49.0447 23.824C50.1647 23.824 51.0287 24.48 51.0287 25.584C51.0287 26.176 50.8207 26.976 50.5167 28.128C50.1807 29.376 50.0527 30.224 50.0527 30.528C50.0527 31.328 50.3407 31.84 50.8687 31.84C51.5407 31.84 51.9407 31.152 52.2127 30.464C52.4207 29.952 52.5967 29.2 52.5967 29.232C52.6447 29.072 52.6927 28.992 52.7727 28.992C52.9007 28.992 52.9487 29.072 52.9487 29.152C52.9487 29.392 52.8527 29.856 52.6287 30.4C52.1967 31.456 51.6047 32.16 50.7727 32.16C49.9887 32.16 49.6047 31.44 49.6047 30.72C49.6047 30.032 49.7487 29.232 50.0847 28.048C50.4207 26.848 50.5807 26.048 50.5807 25.616C50.5807 24.688 49.7967 24.16 48.9967 24.16C47.6207 24.16 46.2767 25.072 45.5407 27.12C45.3007 27.776 45.1087 28.656 44.9647 29.312C44.5007 31.536 44.6607 32.112 44.1967 32.112C44.0687 32.112 43.9727 32.016 43.9727 31.888C43.9727 31.664 44.1327 31.296 44.4527 29.664L45.2687 25.504C45.3007 25.328 45.3327 25.12 45.3327 25.008C45.3327 24.56 45.2367 24.336 44.9167 24.336C44.3567 24.336 43.9727 24.416 43.8287 24.416C43.7167 24.416 43.5887 24.4 43.5887 24.256C43.5887 24.08 43.8287 24 44.1327 24C44.3727 24 44.7087 24.032 44.9807 24.032C45.2207 24.032 45.5247 24 45.6687 24C45.8127 24 45.8607 24.128 45.8607 24.24C45.8607 24.48 45.6527 25.28 45.4767 26.176L45.3487 26.816C46.1807 24.816 47.3327 23.824 49.0447 23.824ZM56.6189 21.92C56.6189 22.288 56.2829 22.544 55.9629 22.544C55.6429 22.544 55.4669 22.336 55.4669 22.016C55.4669 21.68 55.7709 21.408 56.1069 21.408C56.4269 21.408 56.6189 21.648 56.6189 21.92ZM56.0109 24C56.1549 24 56.2029 24.064 56.2029 24.208C56.2029 24.384 56.0589 24.944 55.8349 26.096C55.3709 28.512 55.0829 29.76 55.0829 30.56C55.0829 31.392 55.3869 31.84 55.9469 31.84C56.7469 31.84 57.4669 30.416 57.6109 29.488C57.6589 29.152 57.7549 28.992 57.8829 28.992C57.9949 28.992 58.0109 29.024 58.0109 29.136C58.0109 29.36 57.8989 29.84 57.6749 30.4C57.2429 31.504 56.6189 32.16 55.8829 32.16C55.1309 32.16 54.6349 31.6 54.6349 30.496C54.6349 30 54.7309 29.744 55.4349 26.064C55.4829 25.792 55.6429 25.072 55.6429 24.672C55.6429 24.4 55.4029 24.32 55.0989 24.32C54.8269 24.32 54.2829 24.4 54.1389 24.4C53.9949 24.4 53.9309 24.368 53.9309 24.256C53.9309 24.08 54.1869 24.016 54.4269 24.016C54.6349 24.016 55.1629 24.032 55.2429 24.032C55.5149 24.032 55.8189 24 56.0109 24ZM63.1218 23.824C64.6578 23.824 65.6338 24.672 65.6338 26C65.6338 26.592 65.1378 27.216 64.5618 27.216C64.1938 27.216 63.9698 27.008 63.9698 26.704C63.9698 26.384 64.2258 26.128 64.4978 26.128C64.7698 26.128 64.8658 26.4 64.9458 26.4C65.0898 26.4 65.1858 26.144 65.1858 25.76C65.1858 24.976 64.4178 24.16 63.0578 24.16C60.9298 24.16 59.2978 26.704 59.2978 28.976C59.2978 30.784 60.3218 31.888 62.0338 31.888C63.6018 31.888 64.6098 30.8 65.0898 29.696C65.2658 29.296 65.2978 29.248 65.4258 29.248C65.5378 29.248 65.6018 29.328 65.6018 29.408C65.6018 29.648 65.4258 30.032 65.0898 30.528C64.4178 31.536 63.2978 32.224 62.0338 32.224C59.9858 32.224 58.7858 30.928 58.7858 28.992C58.7858 26.24 60.7698 23.824 63.1218 23.824ZM71.5374 23.824C72.8334 23.824 73.6814 24.496 73.6814 25.536C73.6814 26.992 71.7134 28.256 68.4174 28.256C68.0334 28.256 67.8254 28.224 67.6494 28.224C67.3454 28.224 67.2974 28.224 67.2974 29.008C67.2974 30.336 67.8094 31.888 69.8094 31.888C71.6814 31.888 72.8654 30.416 73.2174 29.232C73.2654 29.088 73.3134 29.024 73.4574 29.024C73.6014 29.024 73.6334 29.088 73.6334 29.2C73.6334 29.408 73.4574 29.872 73.0734 30.416C72.3054 31.504 71.1694 32.224 69.7774 32.224C67.9374 32.224 66.8494 31.088 66.8494 29.088C66.8494 26.384 68.9454 23.824 71.5374 23.824ZM67.4894 27.728C67.4894 27.888 67.4894 27.92 68.3534 27.92C71.6174 27.92 73.2334 26.752 73.2334 25.568C73.2334 24.72 72.6574 24.16 71.4894 24.16C70.2734 24.16 69.2334 24.8 68.5774 25.6C67.5854 26.8 67.4894 27.632 67.4894 27.728ZM75.5888 30.816C76.0528 30.816 76.2928 31.04 76.2928 31.472C76.2928 31.872 75.9248 32.256 75.4128 32.256C75.0448 32.256 74.7568 32 74.7568 31.632C74.7568 31.184 75.1568 30.816 75.5888 30.816ZM79.7451 30.816C80.2091 30.816 80.4491 31.04 80.4491 31.472C80.4491 31.872 80.0811 32.256 79.5691 32.256C79.2011 32.256 78.9131 32 78.9131 31.632C78.9131 31.184 79.3131 30.816 79.7451 30.816ZM83.9013 30.816C84.3653 30.816 84.6053 31.04 84.6053 31.472C84.6053 31.872 84.2373 32.256 83.7253 32.256C83.3573 32.256 83.0693 32 83.0693 31.632C83.0693 31.184 83.4693 30.816 83.9013 30.816Z" fill="black"/>
<path d="M53.9896 63.4211C53.4937 63.4211 53.0196 63.6248 52.6891 63.9793L40.1047 77.457L34.2437 71.8452C33.9142 71.5292 33.476 71.3552 33.0105 71.3552C32.545 71.3552 32.1023 71.5309 31.7718 71.85C31.0918 72.5066 31.0941 73.5732 31.7768 74.2284L38.9424 81.0885C39.272 81.4046 39.7102 81.5785 40.1761 81.5785C40.1975 81.5785 40.2202 81.5781 40.2243 81.5772C40.7011 81.5646 41.1575 81.3613 41.4766 81.0199L55.2914 66.2252C55.9346 65.535 55.8742 64.4702 55.1573 63.8517C54.8364 63.5736 54.4214 63.4207 53.99 63.4207L53.9896 63.4211Z" fill="#379923"/>
<path d="M43.5 50C31.0935 50 21 60.0935 21 72.5C21 84.9065 31.0935 95 43.5 95C55.9065 95 66 84.9065 66 72.5C66 60.0935 55.9065 50 43.5 50ZM43.5 91.5386C33.002 91.5386 24.4614 82.9981 24.4614 72.5C24.4614 62.002 33.002 53.4614 43.5 53.4614C53.9981 53.4614 62.5386 62.002 62.5386 72.5C62.5386 82.9981 53.9981 91.5386 43.5 91.5386Z" fill="#379923"/>
</svg>
