<svg width="99" height="107" viewBox="0 0 99 107" fill="none" xmlns="http://www.w3.org/2000/svg">
<path d="M31.8086 2.056C32.0486 2.056 32.4966 2.152 33.3126 2.152C34.0166 2.152 34.5926 2.056 34.8326 2.056C35.0406 2.056 35.2646 2.056 35.2646 2.232C35.2646 2.408 35.0406 2.504 34.8486 2.504C34.7526 2.504 34.3686 2.488 34.0966 2.488C33.5686 2.488 33.3766 2.68 33.3766 3.336C33.3766 5.48 33.6006 9.992 33.6966 12.52L37.6006 3.432C38.0806 2.312 38.2406 2.056 38.5446 2.056C38.9446 2.056 38.9446 2.392 38.9766 3.384L39.2966 12.52C41.2966 7.768 42.4806 5.032 42.8326 4.136C43.1366 3.368 43.3126 2.92 43.3126 2.76C43.3126 2.552 43.1206 2.472 42.7206 2.472C42.5126 2.472 42.1606 2.504 41.8886 2.504C41.6486 2.504 41.4726 2.488 41.4726 2.312C41.4726 2.136 41.6966 2.056 41.9366 2.056C42.0806 2.056 43.3926 2.168 43.8086 2.168C44.4966 2.168 44.9446 2.056 45.2166 2.056C45.3926 2.056 45.5846 2.072 45.5846 2.248C45.5846 2.392 45.4246 2.504 45.2806 2.504C45.1686 2.504 44.8166 2.44 44.4966 2.44C44.0166 2.44 43.9366 2.664 43.4086 3.944L40.1606 11.816C39.7606 12.792 39.5046 13.224 39.2326 13.224C38.8966 13.224 38.8486 12.904 38.8006 11.48L38.4966 2.488L34.5766 11.576C33.9526 13 33.8406 13.224 33.5526 13.224C33.2166 13.224 33.1526 12.92 33.1366 12.024L32.8966 3.16C32.8806 2.776 32.8006 2.472 32.3686 2.472C32.1126 2.472 31.8086 2.504 31.7286 2.504C31.5846 2.504 31.3766 2.456 31.3766 2.312C31.3766 2.136 31.6006 2.056 31.8086 2.056ZM48.514 4.824C49.81 4.824 50.658 5.496 50.658 6.536C50.658 7.992 48.69 9.256 45.394 9.256C45.01 9.256 44.802 9.224 44.626 9.224C44.322 9.224 44.274 9.224 44.274 10.008C44.274 11.336 44.786 12.888 46.786 12.888C48.658 12.888 49.842 11.416 50.194 10.232C50.242 10.088 50.29 10.024 50.434 10.024C50.578 10.024 50.61 10.088 50.61 10.2C50.61 10.408 50.434 10.872 50.05 11.416C49.282 12.504 48.146 13.224 46.754 13.224C44.914 13.224 43.826 12.088 43.826 10.088C43.826 7.384 45.922 4.824 48.514 4.824ZM44.466 8.728C44.466 8.888 44.466 8.92 45.33 8.92C48.594 8.92 50.21 7.752 50.21 6.568C50.21 5.72 49.634 5.16 48.466 5.16C47.25 5.16 46.21 5.8 45.554 6.6C44.562 7.8 44.466 8.632 44.466 8.728ZM52.7216 1.896C52.9936 1.896 53.4256 1.928 53.5056 1.928C53.7456 1.928 54.0496 1.896 54.2576 1.896C54.4496 1.896 54.4816 1.976 54.4816 2.104C54.4816 2.28 54.3536 2.776 54.2416 3.336L52.8976 10.216C52.8176 10.6 52.7376 11.224 52.7376 11.56C52.7376 12.392 53.0576 12.84 53.6176 12.84C54.2576 12.84 54.9936 11.896 55.2816 10.424C55.3296 10.152 55.4256 9.992 55.5696 9.992C55.6496 9.992 55.6816 10.04 55.6816 10.12C55.6816 10.344 55.5696 10.792 55.3616 11.352C54.9456 12.472 54.2896 13.16 53.5536 13.16C52.8016 13.16 52.3056 12.6 52.3056 11.496C52.3056 11.128 52.4176 10.52 52.7536 8.808L53.8416 3.32C53.8736 3.144 53.9216 2.84 53.9216 2.6C53.9216 2.344 53.7776 2.232 53.4576 2.232C52.9296 2.232 52.5296 2.312 52.3856 2.312C52.2736 2.312 52.2096 2.264 52.2096 2.152C52.2096 1.976 52.4496 1.896 52.7216 1.896ZM57.4716 1.896C57.7436 1.896 58.1756 1.928 58.2556 1.928C58.4956 1.928 58.7996 1.896 59.0076 1.896C59.1996 1.896 59.2316 1.976 59.2316 2.104C59.2316 2.28 59.1036 2.776 58.9916 3.336L57.6476 10.216C57.5676 10.6 57.4876 11.224 57.4876 11.56C57.4876 12.392 57.8076 12.84 58.3676 12.84C59.0076 12.84 59.7436 11.896 60.0316 10.424C60.0796 10.152 60.1756 9.992 60.3196 9.992C60.3996 9.992 60.4316 10.04 60.4316 10.12C60.4316 10.344 60.3196 10.792 60.1116 11.352C59.6956 12.472 59.0396 13.16 58.3036 13.16C57.5516 13.16 57.0556 12.6 57.0556 11.496C57.0556 11.128 57.1676 10.52 57.5036 8.808L58.5916 3.32C58.6236 3.144 58.6716 2.84 58.6716 2.6C58.6716 2.344 58.5276 2.232 58.2076 2.232C57.6796 2.232 57.2796 2.312 57.1356 2.312C57.0236 2.312 56.9596 2.264 56.9596 2.152C56.9596 1.976 57.1996 1.896 57.4716 1.896ZM62.1896 11.8C62.7176 11.8 62.9576 12.12 62.9576 12.76C62.9576 14.44 61.4216 16.376 60.9736 16.376C60.8616 16.376 60.8136 16.264 60.8136 16.184C60.8136 16.12 60.8776 16.04 61.0376 15.912C61.6296 15.464 62.3976 14.2 62.3976 13.48C62.3976 13.336 62.3976 13.16 62.2056 13.16C62.1416 13.16 61.9496 13.24 61.7576 13.24C61.4536 13.24 61.2456 12.984 61.2456 12.664C61.2456 12.2 61.6936 11.8 62.1896 11.8ZM7.85442 20.896C8.12642 20.896 8.55842 20.928 8.63842 20.928C8.87842 20.928 9.18242 20.896 9.39042 20.896C9.58242 20.896 9.61442 20.976 9.61442 21.104C9.61442 21.28 9.48642 21.776 9.37442 22.336L8.03042 29.216C7.95042 29.6 7.87042 30.224 7.87042 30.56C7.87042 31.392 8.19042 31.84 8.75042 31.84C9.39042 31.84 10.1264 30.896 10.4144 29.424C10.4624 29.152 10.5584 28.992 10.7024 28.992C10.7824 28.992 10.8144 29.04 10.8144 29.12C10.8144 29.344 10.7024 29.792 10.4944 30.352C10.0784 31.472 9.42242 32.16 8.68642 32.16C7.93442 32.16 7.43842 31.6 7.43842 30.496C7.43842 30.128 7.55042 29.52 7.88642 27.808L8.97442 22.32C9.00642 22.144 9.05442 21.84 9.05442 21.6C9.05442 21.344 8.91042 21.232 8.59042 21.232C8.06242 21.232 7.66242 21.312 7.51842 21.312C7.40642 21.312 7.34242 21.264 7.34242 21.152C7.34242 20.976 7.58242 20.896 7.85442 20.896ZM16.0284 23.824C17.6124 23.824 18.9404 24.96 18.9404 27.104C18.9404 29.984 17.0204 32.224 14.6204 32.224C12.8284 32.224 11.7084 30.944 11.7084 28.912C11.7084 26.224 13.6604 23.824 16.0284 23.824ZM12.1404 29.04C12.1404 30.992 13.3404 31.888 14.6524 31.888C17.1804 31.888 18.5084 29.056 18.5084 27.088C18.5084 25.216 17.5164 24.16 15.9804 24.16C13.8044 24.16 12.1404 26.496 12.1404 29.04ZM24.3409 23.824C25.9249 23.824 27.2529 24.96 27.2529 27.104C27.2529 29.984 25.3329 32.224 22.9329 32.224C21.1409 32.224 20.0209 30.944 20.0209 28.912C20.0209 26.224 21.9729 23.824 24.3409 23.824ZM20.4529 29.04C20.4529 30.992 21.6529 31.888 22.9649 31.888C25.4929 31.888 26.8209 29.056 26.8209 27.088C26.8209 25.216 25.8289 24.16 24.2929 24.16C22.1169 24.16 20.4529 26.496 20.4529 29.04ZM30.7334 20.896C30.9094 20.896 30.9414 21.008 30.9414 21.136C30.9414 21.248 30.9094 21.472 30.8454 21.808L29.9014 26.64C29.8854 26.752 29.8534 26.928 29.8534 26.992C29.8534 27.136 29.9014 27.2 30.2054 27.2C31.5654 27.2 32.3814 27.088 32.8934 26.112L33.4694 25.024C33.9014 24.208 34.3494 23.888 35.1174 23.888C35.8374 23.888 36.3654 24.448 36.3654 25.088C36.3654 25.488 36.0614 25.92 35.6294 25.92C35.3094 25.92 35.0854 25.68 35.0854 25.36C35.0854 25.088 35.3734 24.976 35.5814 24.976C35.6934 24.976 35.8054 24.976 35.8054 24.832C35.8054 24.528 35.4214 24.224 35.0374 24.224C34.4454 24.224 34.0934 24.56 33.6614 25.408C33.3254 26.064 33.1014 26.464 32.9894 26.624C32.6694 27.056 32.2374 27.328 31.3254 27.376C32.7334 27.552 33.3414 27.824 33.3414 29.408C33.3414 29.808 33.2934 30.336 33.2934 30.656C33.2934 31.36 33.6294 31.84 34.2054 31.84C34.9414 31.84 35.6774 30.528 35.8374 29.072C35.8534 28.96 35.9174 28.88 36.0294 28.88C36.1414 28.88 36.1894 28.944 36.1894 29.024C36.1894 29.392 36.0934 29.872 35.8854 30.416C35.4854 31.456 34.8774 32.16 34.1734 32.16C33.4214 32.16 32.8934 31.792 32.8934 30.256V29.008C32.8934 27.952 31.9494 27.52 30.2054 27.52C29.6134 27.52 29.7094 27.6 29.3254 29.552C29.0694 30.848 28.9894 31.328 28.9094 31.68C28.8294 32.048 28.7174 32.112 28.5734 32.112C28.3974 32.112 28.3654 32.032 28.3654 31.888C28.3654 31.728 28.7494 30.496 28.9574 29.376C30.1414 23.104 30.4294 21.952 30.4294 21.6C30.4294 21.28 30.1734 21.232 29.8374 21.232C29.5334 21.232 29.1174 21.296 28.9094 21.296C28.7814 21.296 28.7174 21.264 28.7174 21.152C28.7174 20.976 28.9574 20.912 29.1974 20.912C29.5654 20.912 29.8054 20.928 30.0134 20.928C30.2534 20.928 30.5414 20.896 30.7334 20.896ZM41.4722 23.824C43.1682 23.824 44.2562 24.56 44.2562 25.472C44.2562 25.904 43.9042 26.272 43.5842 26.272C43.2002 26.272 43.0402 26.048 43.0402 25.808C43.0402 25.568 43.2002 25.36 43.5522 25.36C43.7442 25.36 43.7602 25.328 43.7602 25.248C43.7602 24.848 43.0242 24.16 41.4402 24.16C40.1122 24.16 38.9442 25.056 38.9442 26.192C38.9442 26.864 39.4882 27.264 40.5442 27.52L42.1122 27.904C43.2002 28.176 43.8562 28.624 43.8562 29.584C43.8562 31.088 42.3042 32.224 40.3202 32.224C38.4642 32.224 37.2002 31.504 37.2002 30.416C37.2002 29.968 37.6642 29.472 38.0962 29.472C38.4962 29.472 38.7042 29.68 38.7042 29.984C38.7042 30.336 38.4962 30.432 38.2882 30.432C38.1922 30.432 38.0802 30.416 37.9682 30.384C37.8562 30.352 37.8082 30.32 37.7922 30.32C37.7122 30.32 37.6322 30.448 37.6322 30.576C37.6322 31.28 38.6722 31.888 40.3202 31.888C42.0962 31.888 43.4082 30.912 43.4082 29.584C43.4082 28.832 42.8322 28.416 41.7442 28.16L40.3362 27.824C39.0722 27.52 38.5122 27.056 38.5122 26.24C38.5122 24.848 39.8562 23.824 41.4722 23.824ZM55.0447 23.824C56.1647 23.824 57.0287 24.48 57.0287 25.584C57.0287 26.176 56.8207 26.976 56.5167 28.128C56.1807 29.376 56.0527 30.224 56.0527 30.528C56.0527 31.328 56.3407 31.84 56.8687 31.84C57.5407 31.84 57.9407 31.152 58.2127 30.464C58.4207 29.952 58.5967 29.2 58.5967 29.232C58.6447 29.072 58.6927 28.992 58.7727 28.992C58.9007 28.992 58.9487 29.072 58.9487 29.152C58.9487 29.392 58.8527 29.856 58.6287 30.4C58.1967 31.456 57.6047 32.16 56.7727 32.16C55.9887 32.16 55.6047 31.44 55.6047 30.72C55.6047 30.032 55.7487 29.232 56.0847 28.048C56.4207 26.848 56.5807 26.048 56.5807 25.616C56.5807 24.688 55.7967 24.16 54.9967 24.16C53.6207 24.16 52.2767 25.072 51.5407 27.12C51.3007 27.776 51.1087 28.656 50.9647 29.312C50.5007 31.536 50.6607 32.112 50.1967 32.112C50.0687 32.112 49.9727 32.016 49.9727 31.888C49.9727 31.664 50.1327 31.296 50.4527 29.664L51.2687 25.504C51.3007 25.328 51.3327 25.12 51.3327 25.008C51.3327 24.56 51.2367 24.336 50.9167 24.336C50.3567 24.336 49.9727 24.416 49.8287 24.416C49.7167 24.416 49.5887 24.4 49.5887 24.256C49.5887 24.08 49.8287 24 50.1327 24C50.3727 24 50.7087 24.032 50.9807 24.032C51.2207 24.032 51.5247 24 51.6687 24C51.8127 24 51.8607 24.128 51.8607 24.24C51.8607 24.48 51.6527 25.28 51.4767 26.176L51.3487 26.816C52.1807 24.816 53.3327 23.824 55.0447 23.824ZM62.6189 21.92C62.6189 22.288 62.2829 22.544 61.9629 22.544C61.6429 22.544 61.4669 22.336 61.4669 22.016C61.4669 21.68 61.7709 21.408 62.1069 21.408C62.4269 21.408 62.6189 21.648 62.6189 21.92ZM62.0109 24C62.1549 24 62.2029 24.064 62.2029 24.208C62.2029 24.384 62.0589 24.944 61.8349 26.096C61.3709 28.512 61.0829 29.76 61.0829 30.56C61.0829 31.392 61.3869 31.84 61.9469 31.84C62.7469 31.84 63.4669 30.416 63.6109 29.488C63.6589 29.152 63.7549 28.992 63.8829 28.992C63.9949 28.992 64.0109 29.024 64.0109 29.136C64.0109 29.36 63.8989 29.84 63.6749 30.4C63.2429 31.504 62.6189 32.16 61.8829 32.16C61.1309 32.16 60.6349 31.6 60.6349 30.496C60.6349 30 60.7309 29.744 61.4349 26.064C61.4829 25.792 61.6429 25.072 61.6429 24.672C61.6429 24.4 61.4029 24.32 61.0989 24.32C60.8269 24.32 60.2829 24.4 60.1389 24.4C59.9949 24.4 59.9309 24.368 59.9309 24.256C59.9309 24.08 60.1869 24.016 60.4269 24.016C60.6349 24.016 61.1629 24.032 61.2429 24.032C61.5149 24.032 61.8189 24 62.0109 24ZM69.1218 23.824C70.6578 23.824 71.6338 24.672 71.6338 26C71.6338 26.592 71.1378 27.216 70.5618 27.216C70.1938 27.216 69.9698 27.008 69.9698 26.704C69.9698 26.384 70.2258 26.128 70.4978 26.128C70.7698 26.128 70.8658 26.4 70.9458 26.4C71.0898 26.4 71.1858 26.144 71.1858 25.76C71.1858 24.976 70.4178 24.16 69.0578 24.16C66.9298 24.16 65.2978 26.704 65.2978 28.976C65.2978 30.784 66.3218 31.888 68.0338 31.888C69.6018 31.888 70.6098 30.8 71.0898 29.696C71.2658 29.296 71.2978 29.248 71.4258 29.248C71.5378 29.248 71.6018 29.328 71.6018 29.408C71.6018 29.648 71.4258 30.032 71.0898 30.528C70.4178 31.536 69.2978 32.224 68.0338 32.224C65.9858 32.224 64.7858 30.928 64.7858 28.992C64.7858 26.24 66.7698 23.824 69.1218 23.824ZM77.5374 23.824C78.8334 23.824 79.6814 24.496 79.6814 25.536C79.6814 26.992 77.7134 28.256 74.4174 28.256C74.0334 28.256 73.8254 28.224 73.6494 28.224C73.3454 28.224 73.2974 28.224 73.2974 29.008C73.2974 30.336 73.8094 31.888 75.8094 31.888C77.6814 31.888 78.8654 30.416 79.2174 29.232C79.2654 29.088 79.3134 29.024 79.4574 29.024C79.6014 29.024 79.6334 29.088 79.6334 29.2C79.6334 29.408 79.4574 29.872 79.0734 30.416C78.3054 31.504 77.1694 32.224 75.7774 32.224C73.9374 32.224 72.8494 31.088 72.8494 29.088C72.8494 26.384 74.9454 23.824 77.5374 23.824ZM73.4894 27.728C73.4894 27.888 73.4894 27.92 74.3534 27.92C77.6174 27.92 79.2334 26.752 79.2334 25.568C79.2334 24.72 78.6574 24.16 77.4894 24.16C76.2734 24.16 75.2334 24.8 74.5774 25.6C73.5854 26.8 73.4894 27.632 73.4894 27.728ZM81.5888 30.816C82.0528 30.816 82.2928 31.04 82.2928 31.472C82.2928 31.872 81.9248 32.256 81.4128 32.256C81.0448 32.256 80.7568 32 80.7568 31.632C80.7568 31.184 81.1568 30.816 81.5888 30.816ZM85.745 30.816C86.209 30.816 86.449 31.04 86.449 31.472C86.449 31.872 86.081 32.256 85.569 32.256C85.201 32.256 84.913 32 84.913 31.632C84.913 31.184 85.313 30.816 85.745 30.816ZM89.9013 30.816C90.3653 30.816 90.6053 31.04 90.6053 31.472C90.6053 31.872 90.2373 32.256 89.7253 32.256C89.3573 32.256 89.0693 32 89.0693 31.632C89.0693 31.184 89.4693 30.816 89.9013 30.816Z" fill="black"/>
<path d="M61.3146 71.4321C60.756 71.4321 60.2221 71.6616 59.8499 72.0608L45.6759 87.241L39.0745 80.9204C38.7033 80.5644 38.2098 80.3685 37.6855 80.3685C37.1613 80.3685 36.6626 80.5664 36.2904 80.9258C35.5245 81.6653 35.5271 82.8666 36.2961 83.6046L44.3668 91.3313C44.738 91.6872 45.2315 91.8832 45.7563 91.8832C45.7803 91.8832 45.8059 91.8827 45.8105 91.8817C46.3476 91.8674 46.8616 91.6385 47.221 91.254L62.7809 74.5905C63.5053 73.8131 63.4372 72.6137 62.6299 71.9171C62.2684 71.604 61.801 71.4316 61.3151 71.4316L61.3146 71.4321Z" fill="#379923"/>
<path d="M49.4999 56.3157C35.5263 56.3157 24.1578 67.6841 24.1578 81.6578C24.1578 95.6314 35.5263 107 49.4999 107C63.4736 107 74.842 95.6314 74.842 81.6578C74.842 67.6841 63.4736 56.3157 49.4999 56.3157ZM49.4999 103.101C37.6758 103.101 28.0565 93.4819 28.0565 81.6578C28.0565 69.8337 37.6758 60.2143 49.4999 60.2143C61.3241 60.2143 70.9434 69.8337 70.9434 81.6578C70.9434 93.4819 61.3241 103.101 49.4999 103.101Z" fill="#379923"/>
</svg>
